SplineFontDB: 3.0
FontName: FreeMonoTengwar
FullName: FreeMonoTengwar
FamilyName: FreeMonoTengwar
Weight: Medium
Copyright: Copyleft 2002, 2003, 2005, 2008, 2009 Free Software Foundation; 2009 - 2013 j. 'mach' wust; 2010 - 2013 Johan Winge.
Version: 2013-07-21
ItalicAngle: 0
UnderlinePosition: -100
UnderlineWidth: 50
Ascent: 800
Descent: 200
LayerCount: 2
Layer: 0 0 "Back"  1
Layer: 1 0 "Fore"  0
NeedsXUIDChange: 1
FSType: 0
OS2Version: 0
OS2_WeightWidthSlopeOnly: 0
OS2_UseTypoMetrics: 1
CreationTime: 1203284335
ModificationTime: 1374418199
PfmFamily: 49
TTFWeight: 400
TTFWidth: 5
LineGap: 90
VLineGap: 0
Panose: 2 7 4 0 2 2 5 2 4 4
OS2TypoAscent: 800
OS2TypoAOffset: 0
OS2TypoDescent: -200
OS2TypoDOffset: 0
OS2TypoLinegap: 0
OS2WinAscent: 800
OS2WinAOffset: 0
OS2WinDescent: 200
OS2WinDOffset: 0
HheadAscent: 800
HheadAOffset: 0
HheadDescent: -200
HheadDOffset: 0
OS2SubXSize: 650
OS2SubYSize: 699
OS2SubXOff: 47
OS2SubYOff: 140
OS2SupXSize: 650
OS2SupYSize: 699
OS2SupXOff: -163
OS2SupYOff: 479
OS2StrikeYSize: 49
OS2StrikeYPos: 258
OS2Vendor: 'GNU '
OS2CodePages: 600001bf.dff70000
OS2UnicodeRanges: e4000eff.50007fff.00048020.00000000
Lookup: 4 0 1 "'liga' tengwar ligatures"  {"'liga' tengwar ligatures subtable"  } ['liga' ('DFLT' <'dflt' > 'armn' <'dflt' > 'brai' <'dflt' > 'cyrl' <'dflt' > 'geor' <'dflt' > 'grek' <'dflt' > 'hebr' <'dflt' > 'latn' <'dflt' > 'runr' <'dflt' > ) ]
Lookup: 260 0 0 "'mark' Mark Positioning in Greek"  {"'mark' Mark Positioning in Greek subtable"  } ['mark' ('grek' <'dflt' > ) ]
Lookup: 260 0 0 "'mark' Mark Positioning in Latin 1"  {"'mark' Mark Positioning in Latin 1 subtable"  } ['mark' ('latn' <'dflt' > ) ]
Lookup: 260 0 0 "'mark' Mark Positioning in Latin 2"  {"'mark' Mark Positioning in Latin 2 subtable"  } ['mark' ('latn' <'dflt' > ) ]
DEI: 91125
ShortTable: maxp 16
  0
  0
  0
  0
  0
  0
  0
  2
  1
  0
  9
  0
  256
  0
  0
  0
EndShort
TtTable: prep
PUSHW_1
 511
SCANCTRL
SVTCA[y-axis]
MPPEM
PUSHB_1
 8
LT
IF
PUSHB_2
 1
 1
INSTCTRL
EIF

StartChar: exclam
Encoding: 33 33 1
Width: 600
Flags: HMW
LayerCount: 2
Fore
SplineSet
338 563 m 0
 320 237 l 1
 319 217 313 209 299 209 c 0
 286 209 280 218 279 237 c 2
 261 563 l 1
 260 570 260 575 260 579 c 0
 260 601 277 618 300 618 c 0
 322 618 339 601 339 579 c 0
 339 577 338 571 338 563 c 0
293 85 m 2
 306 85 l 2
 336 85 360 63 360 35 c 0
 360 7 336 -15 306 -15 c 2
 293 -15 l 2
 263 -15 240 7 240 35 c 0
 240 63 263 85 293 85 c 2
EndSplineSet
Validated: 3073
EndChar

StartChar: quotedbl
Encoding: 34 34 2
Width: 600
Flags: MW
LayerCount: 2
Fore
SplineSet
146 604 m 1
 274 604 l 1
 240 351 l 1
 237 326 228 315 210 315 c 0
 192 315 183 326 180 351 c 0
 146 604 l 1
326 604 m 1
 454 604 l 1
 420 351 l 1
 417 326 408 315 390 315 c 0
 372 315 363 326 360 351 c 0
 326 604 l 1
EndSplineSet
Validated: 3073
EndChar

StartChar: numbersign
Encoding: 35 35 3
Width: 600
Flags: MW
LayerCount: 2
Fore
SplineSet
321 -42 m 2
 337 189 l 1
 246 189 l 1
 231 -36 l 1
 229 -54 223 -62 210 -62 c 0
 199 -62 190 -53 190 -41 c 2
 190 -33 l 1
 206 189 l 1
 119 189 l 2
 101 189 92 196 92 210 c 0
 92 223 101 230 119 230 c 2
 208 230 l 1
 217 356 l 1
 139 356 l 2
 121 356 112 363 112 377 c 0
 112 390 121 397 139 397 c 2
 220 397 l 1
 236 622 l 1
 237 639 244 647 257 647 c 0
 270 647 276 637 276 622 c 0
 276 619 l 0
 261 397 l 1
 352 397 l 1
 368 622 l 1
 369 639 375 647 388 647 c 0
 401 647 408 637 408 622 c 0
 408 619 l 0
 392 397 l 1
 481 397 l 2
 499 397 508 390 508 377 c 0
 508 363 499 356 481 356 c 2
 390 356 l 1
 381 230 l 1
 461 230 l 2
 479 230 488 223 488 210 c 0
 488 196 479 189 461 189 c 2
 378 189 l 1
 362 -36 l 1
 361 -54 354 -62 341 -62 c 0
 331 -62 321 -52 321 -42 c 2
349 356 m 1
 258 356 l 1
 249 230 l 1
 340 230 l 1
 349 356 l 1
EndSplineSet
Validated: 3073
EndChar

StartChar: dollar
Encoding: 36 36 4
Width: 600
Flags: MW
LayerCount: 2
Fore
SplineSet
446 201 m 0
 446 355 136 248 136 435 c 0
 136 507 196 566 280 576 c 1
 280 628 l 2
 280 646 287 655 301 655 c 0
 314 655 321 646 321 628 c 2
 321 576 l 1
 366 572 389 562 425 534 c 1
 426 553 433 563 446 563 c 0
 460 563 466 554 466 536 c 2
 466 476 l 2
 466 458 459 449 446 449 c 0
 433 449 427 455 425 471 c 0
 420 507 363 538 302 538 c 0
 233 538 177 491 177 434 c 0
 177 290 487 399 487 201 c 0
 487 122 423 65 321 54 c 1
 321 -65 l 2
 321 -83 314 -92 301 -92 c 0
 287 -92 280 -83 280 -65 c 2
 280 54 l 1
 234 56 180 79 154 108 c 1
 154 92 l 2
 154 74 147 65 134 65 c 0
 120 65 113 74 113 92 c 2
 113 171 l 2
 113 189 120 198 134 198 c 0
 147 198 152 191 154 173 c 0
 158 130 225 93 299 93 c 0
 384 93 446 138 446 201 c 0
EndSplineSet
Validated: 3073
EndChar

StartChar: percent
Encoding: 37 37 5
Width: 600
Flags: MW
LayerCount: 2
Fore
SplineSet
361 236 m 0
 430 236 484 181 484 110 c 0
 484 44 428 -12 362 -12 c 0
 294 -12 239 44 239 112 c 0
 239 180 294 236 361 236 c 0
361 198 m 0
 315 198 277 160 277 112 c 0
 277 65 315 26 362 26 c 0
 408 26 446 65 446 111 c 0
 446 160 409 198 361 198 c 0
237 611 m 0
 306 611 360 556 360 486 c 0
 360 419 304 363 238 363 c 0
 170 363 115 419 115 487 c 0
 115 555 170 611 237 611 c 0
237 573 m 0
 191 573 153 534 153 487 c 0
 153 440 191 401 238 401 c 0
 283 401 322 440 322 486 c 0
 322 535 285 573 237 573 c 0
495 344 m 2
 116 222 l 2
 111 220 106 219 104 219 c 0
 96 219 87 228 87 238 c 0
 87 248 92 254 105 258 c 2
 484 380 l 2
 488 381 492 382 496 382 c 0
 505 382 513 373 513 363 c 0
 513 354 508 348 495 344 c 2
EndSplineSet
Validated: 3073
EndChar

StartChar: ampersand
Encoding: 38 38 6
Width: 600
Flags: MW
LayerCount: 2
Fore
SplineSet
393 0 m 1
 362 48 l 1
 332 5 296 -16 250 -16 c 0
 172 -16 105 57 105 142 c 0
 105 211 147 266 216 287 c 1
 171 360 166 371 166 400 c 0
 166 465 222 519 289 519 c 0
 312 519 332 513 355 499 c 1
 362 503 373 510 381 510 c 0
 391 510 400 500 400 489 c 0
 400 480 396 475 384 468 c 2
 352 452 l 1
 331 470 312 478 289 478 c 0
 246 478 207 440 207 398 c 0
 207 375 218 350 251 298 c 2
 362 121 l 1
 382 158 398 201 408 249 c 1
 451 249 l 2
 469 249 478 242 478 229 c 0
 478 215 469 208 451 208 c 2
 439 208 l 1
 425 156 406 110 386 82 c 1
 413 41 l 1
 451 41 l 2
 469 41 478 34 478 21 c 0
 478 7 469 0 451 0 c 2
 393 0 l 1
338 86 m 1
 233 251 l 1
 180 239 146 197 146 142 c 0
 146 79 194 25 249 25 c 0
 284 25 316 47 338 86 c 1
EndSplineSet
Validated: 3073
EndChar

StartChar: quotesingle
Encoding: 39 39 7
Width: 600
Flags: MW
LayerCount: 2
Fore
SplineSet
236 604 m 1
 364 604 l 1
 330 351 l 1
 327 326 318 315 300 315 c 0
 282 315 273 326 270 351 c 0
 236 604 l 1
EndSplineSet
Validated: 3073
EndChar

StartChar: parenleft
Encoding: 40 40 8
Width: 600
Flags: MW
LayerCount: 2
Fore
SplineSet
294 243 m 0
 294 404 410 604 438 604 c 0
 449 604 458 595 458 584 c 0
 458 545 355 454 355 240 c 0
 355 133 386 31 455 -93 c 0
 457 -98 458 -100 458 -104 c 0
 458 -115 448 -124 437 -124 c 0
 408 -124 294 73 294 243 c 0
EndSplineSet
Validated: 3073
EndChar

StartChar: parenright
Encoding: 41 41 9
Width: 600
Flags: MW
LayerCount: 2
Fore
SplineSet
147 -104 m 0
 147 -65 250 26 250 240 c 0
 250 348 220 448 150 573 c 0
 148 578 147 580 147 584 c 0
 147 595 157 604 168 604 c 0
 197 604 311 407 311 237 c 0
 311 76 195 -124 167 -124 c 0
 156 -124 147 -115 147 -104 c 0
EndSplineSet
Validated: 3073
EndChar

StartChar: asterisk
Encoding: 42 42 10
Width: 600
Flags: MW
LayerCount: 2
Fore
SplineSet
279 438 m 1
 279 577 l 2
 279 595 286 604 300 604 c 0
 313 604 320 595 320 577 c 2
 320 438 l 1
 453 481 l 2
 458 483 465 484 468 484 c 0
 478 484 487 474 487 464 c 0
 487 453 481 447 466 442 c 2
 333 400 l 1
 414 288 l 1
 418 281 421 275 421 270 c 0
 421 259 412 250 401 250 c 0
 393 250 389 253 381 264 c 2
 299 376 l 1
 218 264 l 2
 210 254 205 250 197 250 c 0
 186 250 177 259 177 271 c 0
 177 276 178 278 185 288 c 2
 266 400 l 1
 133 442 l 1
 122 445 113 450 113 463 c 0
 113 474 122 483 133 483 c 0
 137 483 139 482 146 480 c 2
 279 438 l 1
EndSplineSet
Validated: 3073
EndChar

StartChar: plus
Encoding: 43 43 11
Width: 600
Flags: HMW
LayerCount: 2
Fore
SplineSet
320 261 m 1
 320 59 l 2
 320 41 313 32 300 32 c 0
 286 32 279 41 279 59 c 2
 279 261 l 1
 99 261 l 2
 81 261 72 268 72 282 c 0
 72 295 81 302 99 302 c 2
 279 302 l 1
 279 503 l 2
 279 521 286 530 300 530 c 0
 313 530 320 521 320 503 c 2
 320 302 l 1
 500 302 l 2
 519 302 528 295 528 282 c 0
 528 268 519 261 500 261 c 2
 320 261 l 1
EndSplineSet
Validated: 3073
EndChar

StartChar: comma
Encoding: 44 44 12
Width: 600
Flags: MW
LayerCount: 2
Fore
SplineSet
207 145 m 1
 340 145 l 1
 195 -120 l 2
 185 -139 177 -145 164 -145 c 0
 148 -145 135 -132 135 -116 c 0
 135 -112 136 -109 137 -105 c 2
 207 145 l 1
EndSplineSet
Validated: 3073
EndChar

StartChar: hyphen
Encoding: 45 45 13
Width: 600
Flags: MW
LayerCount: 2
Fore
SplineSet
501 258 m 2
 99 258 l 2
 81 258 72 265 72 279 c 0
 72 292 81 299 99 299 c 2
 501 299 l 2
 519 299 528 292 528 279 c 0
 528 265 519 258 501 258 c 2
EndSplineSet
Validated: 3073
EndChar

StartChar: period
Encoding: 46 46 14
Width: 600
Flags: MW
LayerCount: 2
Fore
SplineSet
295 116 m 2
 305 116 l 2
 344 116 374 88 374 51 c 0
 374 13 344 -15 305 -15 c 2
 295 -15 l 2
 256 -15 226 14 226 51 c 0
 226 88 256 116 295 116 c 2
EndSplineSet
Validated: 3073
EndChar

StartChar: slash
Encoding: 47 47 15
Width: 600
Flags: MW
LayerCount: 2
Fore
SplineSet
482 633 m 2
 155 -63 l 2
 148 -77 143 -81 133 -81 c 0
 123 -81 113 -72 113 -62 c 0
 113 -58 115 -53 118 -46 c 0
 445 650 l 2
 452 664 457 668 467 668 c 0
 477 668 487 659 487 649 c 0
 487 645 486 641 482 633 c 2
EndSplineSet
Validated: 3073
EndChar

StartChar: zero
Encoding: 48 48 16
Width: 600
Flags: MW
LayerCount: 2
Fore
SplineSet
487 351 m 2
 487 251 l 2
 487 93 411 -15 300 -15 c 0
 189 -15 113 93 113 251 c 2
 113 351 l 2
 113 510 189 618 300 618 c 0
 411 618 487 510 487 351 c 2
300 577 m 0
 204 577 154 462 154 346 c 2
 154 257 l 2
 154 129 211 26 300 26 c 0
 396 26 446 141 446 257 c 2
 446 346 l 2
 446 474 389 577 300 577 c 0
EndSplineSet
Validated: 3073
EndChar

StartChar: one
Encoding: 49 49 17
Width: 600
Flags: MW
LayerCount: 2
Fore
SplineSet
321 612 m 1
 321 41 l 1
 460 41 l 2
 478 41 487 34 487 21 c 0
 487 7 478 0 460 0 c 2
 141 0 l 2
 123 0 113 7 113 21 c 0
 113 34 122 41 141 41 c 2
 280 41 l 1
 280 557 l 1
 148 515 l 2
 144 514 136 512 134 512 c 0
 125 512 115 522 115 532 c 0
 115 543 120 549 136 554 c 2
 321 612 l 1
EndSplineSet
Validated: 3073
EndChar

StartChar: two
Encoding: 50 50 18
Width: 600
Flags: MW
LayerCount: 2
Fore
SplineSet
104 470 m 0
 104 521 178 618 290 618 c 0
 388 618 474 537 474 446 c 0
 474 387 454 358 330 237 c 0
 243 151 180 92 123 44 c 1
 123 41 l 1
 437 41 l 1
 437 77 l 2
 437 95 444 104 458 104 c 0
 471 104 478 95 478 77 c 2
 478 0 l 1
 84 0 l 1
 84 60 l 1
 320 282 l 2
 414 374 433 402 433 447 c 0
 433 516 366 577 290 577 c 0
 222 577 160 532 144 472 c 0
 140 458 134 452 123 452 c 0
 113 452 104 461 104 470 c 0
EndSplineSet
Validated: 3073
EndChar

StartChar: three
Encoding: 51 51 19
Width: 600
Flags: MW
LayerCount: 2
Fore
SplineSet
125 528 m 0
 125 546 189 618 301 618 c 0
 401 618 477 551 477 464 c 0
 477 407 439 355 379 330 c 0
 378 330 376 329 374 328 c 1
 452 296 499 236 499 168 c 0
 499 67 405 -15 290 -15 c 0
 212 -15 96 35 96 69 c 0
 96 79 105 88 115 88 c 0
 137 88 179 26 291 26 c 0
 382 26 458 91 458 168 c 0
 458 246 376 312 279 312 c 0
 261 312 252 319 252 333 c 0
 252 346 262 353 279 353 c 0
 329 353 345 354 366 364 c 0
 408 382 436 421 436 463 c 0
 436 528 377 577 300 577 c 0
 178 577 174 509 145 509 c 0
 134 509 125 518 125 528 c 0
EndSplineSet
Validated: 3073
EndChar

StartChar: four
Encoding: 52 52 20
Width: 600
Flags: MW
LayerCount: 2
Fore
SplineSet
376 169 m 1
 105 169 l 1
 105 216 l 1
 333 604 l 1
 417 604 l 1
 417 210 l 1
 451 210 l 2
 469 210 478 203 478 189 c 0
 478 176 469 169 451 169 c 2
 417 169 l 1
 417 41 l 1
 451 41 l 2
 469 41 478 34 478 21 c 0
 478 7 469 0 451 0 c 2
 300 0 l 2
 282 0 273 7 273 21 c 0
 273 34 282 41 300 41 c 2
 376 41 l 1
 376 169 l 1
376 210 m 1
 376 563 l 1
 352 563 l 1
 144 210 l 1
 376 210 l 1
EndSplineSet
Validated: 3073
EndChar

StartChar: five
Encoding: 53 53 21
Width: 600
Flags: MW
LayerCount: 2
Fore
SplineSet
316 354 m 0
 227 354 194 313 168 313 c 0
 157 313 149 322 149 335 c 2
 149 604 l 1
 431 604 l 2
 450 604 459 597 459 584 c 0
 459 570 450 563 431 563 c 2
 190 563 l 1
 190 365 l 1
 241 386 278 395 322 395 c 0
 424 395 499 313 499 201 c 0
 499 75 414 -15 295 -15 c 0
 185 -15 96 61 96 82 c 0
 96 93 105 102 116 102 c 0
 138 102 179 26 293 26 c 0
 391 26 458 98 458 203 c 0
 458 292 400 354 316 354 c 0
EndSplineSet
Validated: 3073
EndChar

StartChar: six
Encoding: 54 54 22
Width: 600
Flags: HMW
LayerCount: 2
Fore
SplineSet
488 563 m 0
 473 563 472 577 424 577 c 0
 348 577 269 530 220 455 c 0
 192 411 175 349 175 285 c 0
 175 276 176 261 177 242 c 1
 218 324 272 364 343 364 c 0
 434 364 510 280 510 178 c 0
 510 70 434 -15 337 -15 c 0
 219 -15 136 107 136 282 c 0
 136 485 268 618 428 618 c 0
 471 618 507 602 507 583 c 0
 507 572 499 563 488 563 c 0
183 188 m 1
 210 84 256 26 338 26 c 0
 412 26 469 92 469 178 c 0
 469 257 412 323 342 323 c 0
 252 323 202 223 183 188 c 1
EndSplineSet
Validated: 3073
EndChar

StartChar: seven
Encoding: 55 55 23
Width: 600
Flags: MW
LayerCount: 2
Fore
SplineSet
437 545 m 1
 437 563 l 1
 146 563 l 1
 146 528 l 2
 146 509 139 500 126 500 c 0
 112 500 105 509 105 528 c 2
 105 604 l 1
 478 604 l 1
 478 539 l 1
 315 20 l 2
 310 4 305 -1 295 -1 c 0
 284 -1 275 8 275 19 c 0
 275 22 276 28 277 32 c 2
 437 545 l 1
EndSplineSet
Validated: 3073
EndChar

StartChar: eight
Encoding: 56 56 24
Width: 600
Flags: MW
LayerCount: 2
Fore
SplineSet
375 313 m 1
 448 280 487 227 487 161 c 0
 487 64 403 -15 300 -15 c 0
 197 -15 113 64 113 161 c 0
 113 227 152 279 225 313 c 1
 155 349 123 392 123 453 c 0
 123 543 204 618 300 618 c 0
 396 618 477 543 477 453 c 0
 477 392 446 349 375 313 c 1
300 577 m 0
 224 577 164 521 164 451 c 0
 164 385 224 333 300 333 c 0
 375 333 436 385 436 450 c 0
 436 521 376 577 300 577 c 0
300 293 m 0
 218 293 154 235 154 161 c 0
 154 86 219 26 300 26 c 0
 380 26 446 86 446 160 c 0
 446 236 383 293 300 293 c 0
EndSplineSet
Validated: 3073
EndChar

StartChar: nine
Encoding: 57 57 25
Width: 600
Flags: MW
LayerCount: 2
Fore
SplineSet
158 40 m 0
 173 40 174 26 222 26 c 0
 298 26 377 73 426 148 c 0
 454 192 471 254 471 318 c 0
 471 327 470 342 469 361 c 1
 428 279 374 239 303 239 c 0
 212 239 136 323 136 425 c 0
 136 533 212 618 309 618 c 0
 427 618 510 496 510 321 c 0
 510 118 378 -15 218 -15 c 0
 175 -15 139 1 139 20 c 0
 139 31 147 40 158 40 c 0
463 415 m 1
 436 519 390 577 308 577 c 0
 234 577 177 511 177 425 c 0
 177 346 234 280 304 280 c 0
 394 280 444 380 463 415 c 1
EndSplineSet
Validated: 3073
EndChar

StartChar: colon
Encoding: 58 58 26
Width: 600
Flags: MW
LayerCount: 2
Fore
SplineSet
295 116 m 2
 305 116 l 2
 344 116 374 88 374 51 c 0
 374 13 344 -15 305 -15 c 2
 295 -15 l 2
 256 -15 226 14 226 51 c 0
 226 88 256 116 295 116 c 2
295 417 m 2
 305 417 l 2
 344 417 374 388 374 351 c 0
 374 314 344 285 305 285 c 2
 295 285 l 2
 256 285 226 314 226 351 c 0
 226 388 256 417 295 417 c 2
EndSplineSet
Validated: 3073
EndChar

StartChar: semicolon
Encoding: 59 59 27
Width: 600
Flags: MW
LayerCount: 2
Fore
SplineSet
211 145 m 1
 344 145 l 1
 199 -120 l 2
 189 -139 181 -145 168 -145 c 0
 152 -145 139 -132 139 -116 c 0
 139 -112 140 -109 141 -105 c 2
 211 145 l 1
271 417 m 2
 281 417 l 2
 320 417 350 388 350 351 c 0
 350 314 320 285 281 285 c 2
 271 285 l 2
 232 285 202 314 202 351 c 0
 202 388 232 417 271 417 c 2
EndSplineSet
Validated: 3073
EndChar

StartChar: less
Encoding: 60 60 28
Width: 600
Flags: MW
LayerCount: 2
Fore
SplineSet
522 67 m 0
 522 59 514 44 502 44 c 0
 499 44 494 46 489 49 c 2
 72 281 l 1
 490 513 l 2
 495 516 499 518 502 518 c 0
 512 518 522 506 522 496 c 0
 522 488 518 483 509 478 c 2
 154 281 l 1
 509 84 l 2
 518 79 522 73 522 67 c 0
EndSplineSet
Validated: 3073
EndChar

StartChar: equal
Encoding: 61 61 29
Width: 600
Flags: MW
LayerCount: 2
Fore
SplineSet
522 334 m 2
 78 334 l 2
 60 334 51 341 51 355 c 0
 51 368 60 375 78 375 c 2
 522 375 l 2
 540 375 549 368 549 355 c 0
 549 341 540 334 522 334 c 2
522 190 m 2
 78 190 l 2
 60 190 51 197 51 211 c 0
 51 224 60 231 78 231 c 2
 522 231 l 2
 540 231 549 224 549 211 c 0
 549 197 540 190 522 190 c 2
EndSplineSet
Validated: 3073
EndChar

StartChar: greater
Encoding: 62 62 30
Width: 600
Flags: MW
LayerCount: 2
Fore
SplineSet
78 496 m 0
 78 501 85 518 98 518 c 0
 101 518 106 516 111 513 c 2
 528 281 l 1
 110 49 l 2
 105 46 101 44 98 44 c 0
 87 44 78 56 78 67 c 0
 78 74 82 79 91 84 c 2
 446 281 l 1
 91 478 l 2
 82 483 78 489 78 496 c 0
EndSplineSet
Validated: 3073
EndChar

StartChar: question
Encoding: 63 63 31
Width: 600
Flags: MW
LayerCount: 2
Fore
SplineSet
134 529 m 1
 177 543 220 577 309 577 c 0
 415 577 487 515 487 423 c 0
 487 349 447 306 322 247 c 1
 322 206 l 2
 322 188 315 179 302 179 c 0
 288 179 281 188 281 206 c 2
 281 274 l 1
 397 323 446 366 446 423 c 0
 446 489 387 536 304 536 c 0
 259 536 227 528 175 502 c 1
 175 461 l 2
 175 443 168 434 155 434 c 0
 141 434 134 443 134 461 c 2
 134 529 l 1
287 85 m 2
 314 85 l 2
 348 85 371 65 371 35 c 0
 371 6 348 -15 314 -15 c 2
 287 -15 l 2
 253 -15 230 5 230 35 c 0
 230 65 253 85 287 85 c 2
EndSplineSet
Validated: 3073
EndChar

StartChar: at
Encoding: 64 64 32
Width: 600
Flags: MW
LayerCount: 2
Fore
SplineSet
299 -62 m 0
 181 -62 105 54 105 198 c 2
 105 361 l 2
 105 513 187 624 300 624 c 0
 391 624 459 555 459 463 c 2
 459 186 l 1
 471 184 478 177 478 166 c 0
 478 152 469 145 451 145 c 2
 418 145 l 1
 418 150 l 1
 398 148 388 147 378 147 c 0
 300 147 242 201 242 272 c 0
 242 355 315 416 416 416 c 2
 418 416 l 1
 418 463 l 2
 418 533 369 583 301 583 c 0
 210 583 146 490 146 358 c 2
 146 198 l 2
 146 79 204 -21 305 -21 c 0
 400 -21 410 20 429 20 c 0
 440 20 449 11 449 1 c 0
 449 -30 373 -62 299 -62 c 0
418 192 m 1
 418 376 l 1
 340 376 283 333 283 273 c 0
 283 223 323 188 381 188 c 0
 392 188 406 189 418 192 c 1
EndSplineSet
Validated: 3073
EndChar

StartChar: A
Encoding: 65 65 33
Width: 600
Flags: HMW
AnchorPoint: "above" 266 563 basechar 0
LayerCount: 2
Fore
SplineSet
428 188 m 1
 162 188 l 1
 108 41 l 1
 187 41 l 2
 205 41 214 34 214 21 c 0
 214 7 205 0 187 0 c 2
 36 0 l 2
 18 0 9 7 9 21 c 0
 9 34 18 41 36 41 c 2
 67 41 l 1
 246 522 l 1
 126 522 l 2
 108 522 99 529 99 543 c 0
 99 556 108 563 126 563 c 1
 330 563 l 1
 527 41 l 1
 564 41 l 2
 582 41 591 34 591 21 c 0
 591 7 582 0 564 0 c 2
 408 0 l 2
 390 0 381 7 381 21 c 0
 381 34 390 41 408 41 c 2
 484 41 l 1
 428 188 l 1
413 229 m 1
 301 522 l 1
 286 522 l 1
 178 229 l 1
 413 229 l 1
EndSplineSet
Validated: 3073
EndChar

StartChar: B
Encoding: 66 66 34
Width: 600
Flags: MW
LayerCount: 2
Fore
SplineSet
124 41 m 1
 124 522 l 1
 70 522 l 2
 52 522 43 529 43 543 c 0
 43 556 52 563 70 563 c 2
 328 563 l 2
 425 563 499 500 499 418 c 0
 499 367 473 330 414 298 c 1
 498 268 541 220 541 153 c 0
 541 69 467 0 376 0 c 2
 70 0 l 2
 52 0 43 7 43 21 c 0
 43 34 52 41 70 41 c 2
 124 41 l 1
165 313 m 1
 312 313 l 2
 397 313 458 357 458 419 c 0
 458 477 402 522 329 522 c 2
 165 522 l 1
 165 313 l 1
500 153 m 0
 500 202 465 272 314 272 c 2
 165 272 l 1
 165 41 l 1
 373 41 l 2
 444 41 500 91 500 153 c 0
EndSplineSet
Validated: 3073
EndChar

StartChar: C
Encoding: 67 67 35
Width: 600
Flags: HMW
AnchorPoint: "below" 326 -4 basechar 0
AnchorPoint: "above" 305 574 basechar 0
LayerCount: 2
Fore
SplineSet
63 325 m 2
 63 378 105 576 305 576 c 0
 371 576 431 552 478 507 c 1
 478 536 l 2
 478 554 485 563 499 563 c 0
 512 563 519 554 519 536 c 2
 519 424 l 2
 519 406 512 397 498 397 c 0
 486 397 479 405 478 421 c 0
 474 482 394 535 305 535 c 0
 194 535 104 438 104 319 c 2
 104 248 l 2
 104 128 204 25 322 25 c 0
 391 25 442 51 496 115 c 0
 503 123 507 125 514 125 c 0
 526 125 534 117 534 106 c 0
 534 86 449 -16 322 -16 c 0
 186 -16 63 107 63 242 c 2
 63 325 l 2
EndSplineSet
Validated: 3073
EndChar

StartChar: D
Encoding: 68 68 36
Width: 600
Flags: MW
LayerCount: 2
Fore
SplineSet
104 41 m 1
 104 522 l 1
 70 522 l 2
 52 522 43 529 43 543 c 0
 43 556 52 563 70 563 c 2
 290 563 l 2
 419 563 520 451 520 310 c 2
 520 254 l 2
 520 112 419 0 290 0 c 2
 70 0 l 2
 52 0 43 7 43 21 c 0
 43 34 52 41 70 41 c 2
 104 41 l 1
479 318 m 2
 479 359 441 522 288 522 c 2
 145 522 l 1
 145 41 l 1
 295 41 l 2
 391 41 479 139 479 245 c 2
 479 318 l 2
EndSplineSet
Validated: 3073
EndChar

StartChar: E
Encoding: 69 69 37
Width: 600
Flags: MW
AnchorPoint: "above" 310 563 basechar 0
LayerCount: 2
Fore
SplineSet
165 272 m 1
 165 41 l 1
 479 41 l 1
 479 160 l 2
 479 178 486 187 500 187 c 0
 513 187 520 178 520 160 c 2
 520 0 l 1
 70 0 l 2
 52 0 43 7 43 21 c 0
 43 34 52 41 70 41 c 2
 124 41 l 1
 124 522 l 1
 70 522 l 2
 52 522 43 529 43 543 c 0
 43 556 52 563 70 563 c 2
 499 563 l 1
 499 424 l 2
 499 406 492 397 478 397 c 0
 465 397 458 406 458 424 c 2
 458 522 l 1
 165 522 l 1
 165 313 l 1
 310 313 l 1
 310 358 l 2
 310 376 317 385 331 385 c 0
 344 385 351 376 351 358 c 2
 351 227 l 2
 351 209 344 200 331 200 c 0
 317 200 310 209 310 227 c 2
 310 272 l 1
 165 272 l 1
EndSplineSet
Validated: 3073
EndChar

StartChar: F
Encoding: 70 70 38
Width: 600
Flags: MW
LayerCount: 2
Fore
SplineSet
165 272 m 1
 165 41 l 1
 303 41 l 2
 322 41 331 34 331 21 c 0
 331 7 321 0 303 0 c 2
 70 0 l 2
 52 0 43 7 43 21 c 0
 43 34 52 41 70 41 c 2
 124 41 l 1
 124 522 l 1
 70 522 l 2
 52 522 43 529 43 543 c 0
 43 556 52 563 70 563 c 2
 520 563 l 1
 520 424 l 2
 520 406 513 397 499 397 c 0
 486 397 479 406 479 424 c 2
 479 522 l 1
 165 522 l 1
 165 313 l 1
 310 313 l 1
 310 358 l 2
 310 376 317 385 330 385 c 0
 344 385 351 376 351 358 c 2
 351 227 l 2
 351 209 344 200 330 200 c 0
 317 200 310 209 310 227 c 2
 310 272 l 1
 165 272 l 1
EndSplineSet
Validated: 3073
EndChar

StartChar: G
Encoding: 71 71 39
Width: 600
Flags: MW
LayerCount: 2
Fore
SplineSet
315 535 m 0
 138 535 104 362 104 317 c 2
 104 244 l 2
 104 108 192 25 336 25 c 0
 388 25 423 33 479 59 c 1
 479 209 l 1
 340 209 l 2
 322 209 313 216 313 230 c 0
 313 243 322 250 340 250 c 2
 534 250 l 2
 553 250 562 243 562 230 c 0
 562 216 553 209 534 209 c 2
 520 209 l 1
 520 36 l 1
 461 2 395 -16 333 -16 c 0
 169 -16 63 86 63 244 c 2
 63 318 l 2
 63 453 163 576 313 576 c 0
 379 576 434 558 479 522 c 1
 479 536 l 2
 479 554 486 563 500 563 c 0
 514 563 520 555 520 536 c 2
 520 445 l 2
 520 427 513 418 500 418 c 0
 487 418 481 426 480 443 c 0
 476 494 404 535 315 535 c 0
EndSplineSet
Validated: 3073
EndChar

StartChar: H
Encoding: 72 72 40
Width: 600
Flags: MW
LayerCount: 2
Fore
SplineSet
437 272 m 1
 167 272 l 1
 167 41 l 1
 221 41 l 2
 239 41 248 34 248 21 c 0
 248 7 239 0 221 0 c 2
 81 0 l 2
 63 0 53 7 53 21 c 0
 53 34 62 41 81 41 c 2
 126 41 l 1
 126 522 l 1
 101 522 l 2
 83 522 74 529 74 543 c 0
 74 556 83 563 101 563 c 2
 221 563 l 2
 239 563 248 556 248 543 c 0
 248 529 239 522 221 522 c 2
 167 522 l 1
 167 313 l 1
 437 313 l 1
 437 522 l 1
 383 522 l 2
 365 522 356 529 356 543 c 0
 356 556 365 563 383 563 c 2
 503 563 l 2
 521 563 530 556 530 543 c 0
 530 529 521 522 503 522 c 2
 478 522 l 1
 478 41 l 1
 524 41 l 2
 542 41 551 34 551 21 c 0
 551 7 541 0 524 0 c 2
 383 0 l 2
 365 0 356 7 356 21 c 0
 356 34 365 41 383 41 c 2
 437 41 l 1
 437 272 l 1
EndSplineSet
Validated: 3073
EndChar

StartChar: I
Encoding: 73 73 41
Width: 600
Flags: HMW
AnchorPoint: "above" 300 564 basechar 0
LayerCount: 2
Fore
SplineSet
320 522 m 1
 320 41 l 1
 459 41 l 2
 478 41 487 34 487 21 c 0
 487 7 477 0 459 0 c 2
 140 0 l 2
 122 0 113 7 113 21 c 0
 113 34 122 41 140 41 c 2
 279 41 l 1
 279 522 l 1
 140 522 l 2
 122 522 113 529 113 543 c 0
 113 556 122 563 140 563 c 2
 459 563 l 2
 478 563 487 556 487 543 c 0
 487 529 478 522 459 522 c 2
 320 522 l 1
EndSplineSet
Validated: 3073
EndChar

StartChar: J
Encoding: 74 74 42
Width: 600
Flags: MW
LayerCount: 2
Fore
SplineSet
460 522 m 1
 460 165 l 2
 460 66 375 -16 272 -16 c 0
 208 -16 156 9 84 74 c 1
 84 223 l 2
 84 241 91 250 105 250 c 0
 118 250 125 241 125 223 c 2
 125 93 l 1
 176 47 223 25 273 25 c 0
 354 25 419 87 419 165 c 2
 419 522 l 1
 260 522 l 2
 242 522 233 529 233 543 c 0
 233 556 242 563 260 563 c 2
 556 563 l 2
 574 563 583 556 583 543 c 0
 583 529 574 522 556 522 c 2
 460 522 l 1
EndSplineSet
Validated: 3073
EndChar

StartChar: K
Encoding: 75 75 43
Width: 600
Flags: MW
LayerCount: 2
Fore
SplineSet
165 221 m 1
 165 41 l 1
 240 41 l 2
 258 41 267 34 267 21 c 0
 267 7 258 0 240 0 c 2
 70 0 l 2
 52 0 43 7 43 21 c 0
 43 34 52 41 70 41 c 2
 124 41 l 1
 124 522 l 1
 70 522 l 2
 52 522 43 529 43 543 c 0
 43 556 52 563 70 563 c 2
 240 563 l 2
 258 563 267 556 267 543 c 0
 267 529 258 522 240 522 c 2
 165 522 l 1
 165 273 l 1
 445 522 l 1
 400 522 l 2
 381 522 372 529 372 543 c 0
 372 556 381 563 400 563 c 2
 518 563 l 2
 537 563 546 556 546 543 c 0
 546 529 537 522 518 522 c 2
 502 522 l 1
 280 324 l 1
 377 284 414 233 489 41 c 1
 545 41 l 2
 563 41 572 34 572 21 c 0
 572 7 563 0 545 0 c 2
 458 0 l 1
 385 203 341 263 246 294 c 1
 165 221 l 1
EndSplineSet
Validated: 3073
EndChar

StartChar: L
Encoding: 76 76 44
Width: 600
Flags: MW
LayerCount: 2
Fore
SplineSet
227 522 m 1
 227 41 l 1
 500 41 l 1
 500 201 l 2
 500 219 507 228 521 228 c 0
 534 228 541 219 541 201 c 2
 541 0 l 1
 90 0 l 2
 72 0 63 7 63 21 c 0
 63 34 72 41 90 41 c 2
 186 41 l 1
 186 522 l 1
 90 522 l 2
 72 522 63 529 63 543 c 0
 63 556 72 563 90 563 c 2
 323 563 l 2
 341 563 350 556 350 543 c 0
 350 529 341 522 323 522 c 2
 227 522 l 1
EndSplineSet
Validated: 3073
EndChar

StartChar: M
Encoding: 77 77 45
Width: 600
Flags: MW
LayerCount: 2
Fore
SplineSet
326 169 m 1
 280 169 l 1
 121 522 l 1
 113 522 l 1
 113 41 l 1
 187 41 l 2
 206 41 215 34 215 21 c 0
 215 7 205 0 187 0 c 2
 38 0 l 2
 20 0 11 7 11 21 c 0
 11 34 20 41 38 41 c 2
 72 41 l 1
 72 522 l 1
 47 522 l 2
 29 522 20 529 20 543 c 0
 20 556 29 563 47 563 c 2
 146 563 l 1
 303 215 l 1
 457 563 l 1
 557 563 l 2
 575 563 584 556 584 543 c 0
 584 529 575 522 557 522 c 2
 532 522 l 1
 532 41 l 1
 566 41 l 2
 584 41 593 34 593 21 c 0
 593 7 584 0 566 0 c 2
 417 0 l 2
 399 0 390 7 390 21 c 0
 390 34 399 41 417 41 c 2
 491 41 l 1
 491 522 l 1
 483 522 l 1
 326 169 l 1
EndSplineSet
Validated: 3073
EndChar

StartChar: N
Encoding: 78 78 46
Width: 600
Flags: MW
LayerCount: 2
Fore
SplineSet
501 0 m 1
 449 0 l 1
 144 504 l 1
 144 41 l 1
 219 41 l 2
 237 41 246 34 246 21 c 0
 246 7 236 0 219 0 c 2
 69 0 l 2
 51 0 42 7 42 21 c 0
 42 34 51 41 69 41 c 2
 103 41 l 1
 103 522 l 1
 49 522 l 2
 31 522 22 529 22 543 c 0
 22 556 31 563 49 563 c 2
 155 563 l 1
 460 59 l 1
 460 522 l 1
 386 522 l 2
 367 522 358 529 358 543 c 0
 358 556 367 563 386 563 c 2
 535 563 l 2
 553 563 562 556 562 543 c 0
 562 529 553 522 535 522 c 2
 501 522 l 1
 501 0 l 1
EndSplineSet
Validated: 3073
EndChar

StartChar: O
Encoding: 79 79 47
Width: 600
Flags: MW
AnchorPoint: "above" 302 564 basechar 0
LayerCount: 2
Fore
SplineSet
300 576 m 0
 441 576 549 446 549 276 c 0
 549 115 437 -16 300 -16 c 0
 161 -16 51 115 51 280 c 0
 51 445 161 576 300 576 c 0
300 535 m 0
 185 535 92 420 92 280 c 0
 92 140 186 25 300 25 c 0
 413 25 508 140 508 277 c 0
 508 421 416 535 300 535 c 0
EndSplineSet
Validated: 3073
EndChar

StartChar: P
Encoding: 80 80 48
Width: 600
Flags: MW
LayerCount: 2
Fore
SplineSet
165 231 m 1
 165 41 l 1
 303 41 l 2
 322 41 331 34 331 21 c 0
 331 7 321 0 303 0 c 2
 70 0 l 2
 52 0 43 7 43 21 c 0
 43 34 52 41 70 41 c 2
 124 41 l 1
 124 522 l 1
 70 522 l 2
 52 522 43 529 43 543 c 0
 43 556 52 563 70 563 c 2
 310 563 l 2
 416 563 499 491 499 398 c 0
 499 305 410 231 296 231 c 2
 165 231 l 1
165 272 m 1
 299 272 l 2
 386 272 458 329 458 398 c 0
 458 466 393 522 314 522 c 2
 165 522 l 1
 165 272 l 1
EndSplineSet
Validated: 3073
EndChar

StartChar: Q
Encoding: 81 81 49
Width: 600
Flags: MW
LayerCount: 2
Fore
SplineSet
318 -89 m 0
 236 -89 195 -114 168 -114 c 0
 157 -114 148 -105 148 -93 c 0
 148 -86 152 -80 159 -75 c 2
 249 -10 l 1
 135 15 51 139 51 280 c 0
 51 445 161 576 300 576 c 0
 439 576 549 445 549 280 c 0
 549 116 443 -12 305 -16 c 1
 251 -56 l 1
 281 -50 297 -48 318 -48 c 0
 393 -48 407 -74 445 -74 c 0
 486 -74 511 -43 526 -43 c 0
 537 -43 546 -52 546 -64 c 0
 546 -84 484 -115 442 -115 c 0
 396 -115 381 -89 318 -89 c 0
300 535 m 0
 185 535 92 420 92 280 c 0
 92 140 186 25 300 25 c 0
 413 25 508 140 508 277 c 0
 508 421 416 535 300 535 c 0
EndSplineSet
Validated: 3073
EndChar

StartChar: R
Encoding: 82 82 50
Width: 600
Flags: MW
LayerCount: 2
Fore
SplineSet
165 251 m 1
 165 41 l 1
 240 41 l 2
 258 41 267 34 267 21 c 0
 267 7 258 0 240 0 c 2
 70 0 l 2
 52 0 43 7 43 21 c 0
 43 34 52 41 70 41 c 2
 124 41 l 1
 124 522 l 1
 70 522 l 2
 52 522 43 529 43 543 c 0
 43 556 52 563 70 563 c 2
 318 563 l 2
 415 563 498 491 498 407 c 0
 498 342 452 294 359 262 c 1
 422 219 450 182 531 41 c 1
 562 41 l 2
 580 41 589 34 589 21 c 0
 589 7 580 0 562 0 c 2
 505 0 l 1
 417 162 373 216 297 251 c 1
 165 251 l 1
165 292 m 1
 279 292 l 2
 377 292 457 344 457 408 c 0
 457 468 390 522 318 522 c 2
 165 522 l 1
 165 292 l 1
EndSplineSet
Validated: 3073
EndChar

StartChar: S
Encoding: 83 83 51
Width: 600
Flags: MW
LayerCount: 2
Fore
SplineSet
464 153 m 0
 464 334 115 207 115 421 c 0
 115 509 194 576 299 576 c 0
 358 576 403 558 445 517 c 1
 445 536 l 2
 445 554 452 563 466 563 c 0
 479 563 486 554 486 536 c 2
 486 433 l 2
 486 415 479 406 466 406 c 0
 453 406 446 414 445 430 c 0
 441 490 380 535 302 535 c 0
 220 535 159 486 159 420 c 0
 159 251 508 371 508 151 c 0
 508 54 422 -16 302 -16 c 0
 233 -16 174 9 133 56 c 1
 133 27 l 2
 133 9 126 0 112 0 c 0
 99 0 92 9 92 27 c 2
 92 139 l 2
 92 157 99 166 113 166 c 0
 126 166 132 158 133 142 c 0
 136 76 210 25 301 25 c 0
 394 25 464 79 464 153 c 0
EndSplineSet
Validated: 3073
EndChar

StartChar: T
Encoding: 84 84 52
Width: 600
Flags: MW
LayerCount: 2
Fore
SplineSet
321 41 m 1
 426 41 l 2
 444 41 453 34 453 21 c 0
 453 7 444 0 426 0 c 2
 175 0 l 2
 157 0 148 7 148 21 c 0
 148 34 157 41 175 41 c 2
 280 41 l 1
 280 522 l 1
 113 522 l 1
 113 449 l 2
 113 431 106 422 92 422 c 0
 79 422 72 431 72 449 c 2
 72 563 l 1
 528 563 l 1
 528 449 l 2
 528 430 522 422 508 422 c 0
 496 422 487 433 487 449 c 2
 487 522 l 1
 321 522 l 1
 321 41 l 1
EndSplineSet
Validated: 3073
EndChar

StartChar: U
Encoding: 85 85 53
Width: 600
Flags: MW
AnchorPoint: "above" 300 564 basechar 0
LayerCount: 2
Fore
SplineSet
499 522 m 1
 499 185 l 2
 499 71 412 -16 300 -16 c 0
 187 -16 101 71 101 185 c 2
 101 522 l 1
 67 522 l 2
 49 522 40 529 40 543 c 0
 40 557 49 563 67 563 c 2
 216 563 l 2
 234 563 243 556 243 543 c 0
 243 529 234 522 216 522 c 2
 142 522 l 1
 142 185 l 2
 142 95 211 25 300 25 c 0
 388 25 458 95 458 185 c 2
 458 522 l 1
 384 522 l 2
 366 522 357 529 357 543 c 0
 357 557 365 563 384 563 c 2
 533 563 l 2
 552 563 560 557 560 543 c 0
 560 529 551 522 533 522 c 2
 499 522 l 1
EndSplineSet
Validated: 3073
EndChar

StartChar: V
Encoding: 86 86 54
Width: 600
Flags: MW
LayerCount: 2
Fore
SplineSet
267 0 m 1
 67 522 l 1
 36 522 l 2
 18 522 9 529 9 543 c 0
 9 557 18 563 36 563 c 2
 187 563 l 2
 205 563 214 557 214 543 c 0
 214 529 205 522 187 522 c 2
 110 522 l 1
 296 41 l 1
 299 41 l 1
 492 522 l 1
 414 522 l 2
 396 522 387 529 387 543 c 0
 387 556 395 563 414 563 c 2
 564 563 l 2
 582 563 591 557 591 543 c 0
 591 529 582 522 564 522 c 2
 533 522 l 1
 324 0 l 1
 267 0 l 1
EndSplineSet
Validated: 3073
EndChar

StartChar: W
Encoding: 87 87 55
Width: 600
Flags: MW
LayerCount: 2
Fore
SplineSet
122 0 m 1
 62 522 l 1
 47 522 l 2
 29 522 20 529 20 543 c 0
 20 556 29 563 47 563 c 2
 196 563 l 2
 215 563 224 556 224 543 c 0
 224 529 215 522 196 522 c 2
 103 522 l 1
 159 46 l 1
 271 438 l 1
 333 438 l 1
 442 46 l 1
 499 522 l 1
 403 522 l 2
 385 522 376 529 376 543 c 0
 376 556 385 563 403 563 c 2
 553 563 l 2
 571 563 580 556 580 543 c 0
 580 529 571 522 553 522 c 2
 538 522 l 1
 476 0 l 1
 412 0 l 1
 300 400 l 1
 185 0 l 1
 122 0 l 1
EndSplineSet
Validated: 3073
EndChar

StartChar: X
Encoding: 88 88 56
Width: 600
Flags: MW
LayerCount: 2
Fore
SplineSet
325 288 m 1
 516 41 l 1
 533 41 l 2
 551 41 560 34 560 21 c 0
 560 7 551 0 533 0 c 2
 401 0 l 2
 383 0 374 7 374 21 c 0
 374 34 383 41 401 41 c 2
 463 41 l 1
 298 255 l 1
 134 41 l 1
 198 41 l 2
 216 41 225 34 225 21 c 0
 225 7 216 0 198 0 c 2
 67 0 l 2
 49 0 40 7 40 21 c 0
 40 34 49 41 67 41 c 2
 84 41 l 1
 272 288 l 1
 93 522 l 1
 78 522 l 2
 60 522 51 529 51 543 c 0
 51 556 60 563 78 563 c 2
 188 563 l 2
 206 563 215 556 215 543 c 0
 215 529 206 522 188 522 c 2
 145 522 l 1
 300 321 l 1
 453 522 l 1
 408 522 l 2
 390 522 381 529 381 543 c 0
 381 556 390 563 408 563 c 2
 519 563 l 2
 537 563 546 557 546 543 c 0
 546 529 537 522 519 522 c 2
 504 522 l 1
 325 288 l 1
EndSplineSet
Validated: 3073
EndChar

StartChar: Y
Encoding: 89 89 57
Width: 600
Flags: MW
LayerCount: 2
Fore
SplineSet
322 254 m 1
 322 41 l 1
 427 41 l 2
 445 41 454 34 454 21 c 0
 454 7 445 0 427 0 c 2
 176 0 l 2
 158 0 149 7 149 21 c 0
 149 34 158 41 176 41 c 2
 281 41 l 1
 281 254 l 1
 102 522 l 1
 78 522 l 2
 60 522 51 529 51 543 c 0
 51 556 60 563 78 563 c 2
 189 563 l 2
 207 563 216 556 216 543 c 0
 216 529 207 522 189 522 c 2
 151 522 l 1
 303 295 l 1
 452 522 l 1
 412 522 l 2
 393 522 384 529 384 543 c 0
 384 556 393 563 412 563 c 2
 522 563 l 2
 539 563 549 555 549 543 c 0
 549 530 538 522 522 522 c 2
 498 522 l 1
 322 254 l 1
EndSplineSet
Validated: 3073
EndChar

StartChar: Z
Encoding: 90 90 58
Width: 600
Flags: MW
LayerCount: 2
Fore
SplineSet
497 0 m 1
 103 0 l 1
 103 59 l 1
 431 519 l 1
 431 522 l 1
 162 522 l 1
 162 404 l 2
 162 385 155 376 142 376 c 0
 128 376 121 385 121 404 c 2
 121 563 l 1
 470 563 l 1
 470 505 l 1
 142 45 l 1
 142 41 l 1
 456 41 l 1
 456 182 l 2
 456 200 462 209 476 209 c 0
 490 209 497 200 497 182 c 2
 497 0 l 1
EndSplineSet
Validated: 3073
EndChar

StartChar: bracketleft
Encoding: 91 91 59
Width: 600
Flags: MW
LayerCount: 2
Fore
SplineSet
321 563 m 1
 321 -83 l 1
 418 -83 l 2
 436 -83 445 -90 445 -103 c 0
 445 -117 436 -124 418 -124 c 2
 280 -124 l 1
 280 604 l 1
 418 604 l 2
 436 604 445 597 445 584 c 0
 445 570 436 563 418 563 c 2
 321 563 l 1
EndSplineSet
Validated: 3073
EndChar

StartChar: backslash
Encoding: 92 92 60
Width: 600
Flags: MW
LayerCount: 2
Fore
SplineSet
155 650 m 2
 482 -46 l 1
 486 -53 487 -58 487 -62 c 0
 487 -72 477 -81 467 -81 c 0
 457 -81 452 -77 445 -63 c 2
 118 633 l 2
 114 641 113 645 113 649 c 0
 113 659 123 668 134 668 c 0
 143 668 148 664 155 650 c 2
EndSplineSet
Validated: 3073
EndChar

StartChar: bracketright
Encoding: 93 93 61
Width: 600
Flags: MW
LayerCount: 2
Fore
SplineSet
279 -83 m 1
 279 563 l 1
 182 563 l 2
 164 563 155 570 155 583 c 0
 155 597 164 604 182 604 c 2
 320 604 l 1
 320 -124 l 1
 182 -124 l 2
 164 -124 155 -117 155 -104 c 0
 155 -90 164 -83 182 -83 c 2
 279 -83 l 1
EndSplineSet
Validated: 3073
EndChar

StartChar: asciicircum
Encoding: 94 94 62
Width: 600
Flags: MW
LayerCount: 2
Fore
SplineSet
300 615 m 1
 478 392 l 2
 484 385 487 379 487 374 c 0
 487 363 478 354 467 354 c 0
 459 354 455 357 447 367 c 0
 300 552 l 1
 153 367 l 1
 146 357 141 354 133 354 c 0
 122 354 113 363 113 374 c 0
 113 380 115 384 122 392 c 2
 300 615 l 1
EndSplineSet
Validated: 3073
EndChar

StartChar: underscore
Encoding: 95 95 63
Width: 600
Flags: HMW
LayerCount: 2
Fore
SplineSet
600 -75 m 1
 600 -125 l 1
 0 -125 l 1
 0 -75 l 1
 600 -75 l 1
EndSplineSet
Validated: 3073
EndChar

StartChar: grave
Encoding: 96 96 64
Width: 600
Flags: MW
LayerCount: 2
Fore
SplineSet
194 630 m 2
 308 530 l 1
 315 522 l 2
 320 517 320 517 320 511 c 0
 320 499 311 490 299 490 c 0
 294 490 288 493 281 499 c 2
 167 599 l 2
 158 607 155 611 155 619 c 0
 155 630 164 639 175 639 c 0
 181 639 186 636 194 630 c 2
EndSplineSet
Validated: 3073
EndChar

StartChar: a
Encoding: 97 97 65
Width: 600
Flags: MW
AnchorPoint: "above" 295 431 basechar 0
LayerCount: 2
Fore
SplineSet
125 378 m 0
 125 411 266 431 299 431 c 0
 392 431 460 379 460 308 c 2
 460 41 l 1
 514 41 l 2
 532 41 541 34 541 21 c 0
 541 7 532 0 514 0 c 2
 419 0 l 1
 419 67 l 1
 358 10 298 -16 228 -16 c 0
 135 -16 72 36 72 112 c 0
 72 199 158 258 283 258 c 0
 329 258 360 253 419 237 c 1
 419 308 l 2
 419 357 369 390 296 390 c 0
 216 390 173 358 144 358 c 0
 134 358 125 367 125 378 c 0
419 112 m 1
 419 202 l 1
 383 211 335 217 291 217 c 0
 185 217 113 174 113 111 c 0
 113 59 158 25 227 25 c 0
 298 25 352 49 419 112 c 1
EndSplineSet
Validated: 3073
EndChar

StartChar: b
Encoding: 98 98 66
Width: 600
Flags: MW
LayerCount: 2
Fore
SplineSet
144 604 m 1
 144 328 l 1
 194 399 250 431 324 431 c 0
 446 431 541 334 541 210 c 0
 541 85 444 -16 324 -16 c 0
 251 -16 191 18 144 88 c 1
 144 0 l 1
 49 0 l 2
 31 0 22 7 22 21 c 0
 22 34 31 41 49 41 c 2
 103 41 l 1
 103 563 l 1
 49 563 l 2
 31 563 22 570 22 584 c 0
 22 597 31 604 49 604 c 2
 144 604 l 1
322 390 m 0
 223 390 144 309 144 208 c 0
 144 107 223 25 322 25 c 0
 419 25 500 107 500 205 c 0
 500 309 422 390 322 390 c 0
EndSplineSet
Validated: 3073
EndChar

StartChar: c
Encoding: 99 99 67
Width: 600
Flags: HMW
AnchorPoint: "above" 314 431 basechar 0
LayerCount: 2
Fore
SplineSet
535 88 m 0
 535 67 445 -16 309 -16 c 0
 178 -16 84 76 84 204 c 0
 84 336 180 431 314 431 c 0
 375 431 429 412 470 376 c 1
 470 389 l 2
 470 408 477 417 491 417 c 0
 504 417 511 408 511 389 c 2
 511 298 l 2
 511 280 504 271 491 271 c 0
 478 271 472 278 470 295 c 0
 466 348 395 390 311 390 c 0
 201 390 125 315 125 205 c 0
 125 100 202 25 311 25 c 0
 384 25 446 49 498 97 c 0
 506 105 509 107 516 107 c 0
 526 107 535 98 535 88 c 0
EndSplineSet
Validated: 3073
EndChar

StartChar: d
Encoding: 100 100 68
Width: 600
Flags: MW
LayerCount: 2
Fore
SplineSet
502 604 m 1
 502 41 l 1
 556 41 l 2
 574 41 583 34 583 21 c 0
 583 7 574 0 556 0 c 2
 461 0 l 1
 461 89 l 1
 414 19 354 -16 279 -16 c 0
 160 -16 63 85 63 208 c 0
 63 331 160 431 279 431 c 0
 354 431 412 398 461 327 c 1
 461 563 l 1
 407 563 l 2
 389 563 380 570 380 584 c 0
 380 597 389 604 407 604 c 2
 502 604 l 1
282 390 m 0
 183 390 104 309 104 208 c 0
 104 106 183 25 283 25 c 0
 381 25 461 106 461 206 c 0
 461 310 383 390 282 390 c 0
EndSplineSet
Validated: 3073
EndChar

StartChar: e
Encoding: 101 101 69
Width: 600
Flags: MW
AnchorPoint: "above" 291 431 basechar 0
LayerCount: 2
Fore
SplineSet
520 199 m 1
 104 199 l 1
 118 94 198 25 306 25 c 0
 368 25 441 47 481 79 c 0
 488 84 492 86 497 86 c 0
 507 86 516 77 516 66 c 0
 516 31 396 -16 305 -16 c 0
 170 -16 63 87 63 217 c 0
 63 338 163 431 291 431 c 0
 424 431 520 340 520 199 c 1
104 240 m 1
 478 240 l 1
 462 331 388 390 291 390 c 0
 194 390 122 332 104 240 c 1
EndSplineSet
Validated: 3073
EndChar

StartChar: f
Encoding: 102 102 70
Width: 600
Flags: MW
LayerCount: 2
Fore
SplineSet
520 551 m 0
 511 551 439 563 382 563 c 0
 316 563 271 528 271 478 c 2
 271 417 l 1
 460 417 l 2
 478 417 487 410 487 397 c 0
 487 383 478 376 460 376 c 2
 271 376 l 1
 271 41 l 1
 449 41 l 2
 467 41 476 34 476 21 c 0
 476 7 466 0 449 0 c 2
 132 0 l 2
 114 0 105 7 105 21 c 0
 105 34 114 41 132 41 c 2
 230 41 l 1
 230 376 l 1
 142 376 l 2
 124 376 115 383 115 397 c 0
 115 410 124 417 142 417 c 2
 230 417 l 1
 230 478 l 2
 230 551 294 604 384 604 c 0
 422 604 491 597 523 591 c 0
 535 588 541 581 541 571 c 0
 541 559 532 551 520 551 c 0
EndSplineSet
Validated: 3073
EndChar

StartChar: g
Encoding: 103 103 71
Width: 600
Flags: MW
LayerCount: 2
Fore
SplineSet
440 334 m 1
 440 417 l 1
 535 417 l 2
 553 417 562 410 562 397 c 0
 562 383 553 376 535 376 c 2
 481 376 l 1
 481 -28 l 2
 481 -69 468 -100 438 -132 c 0
 403 -169 366 -186 316 -186 c 2
 202 -186 l 2
 184 -186 175 -179 175 -165 c 0
 175 -152 184 -145 202 -145 c 2
 318 -145 l 2
 386 -145 440 -90 440 -22 c 2
 440 107 l 1
 395 41 341 10 269 10 c 0
 156 10 63 105 63 221 c 0
 63 337 156 431 269 431 c 0
 342 431 395 401 440 334 c 1
272 390 m 0
 178 390 104 315 104 221 c 0
 104 126 179 51 272 51 c 0
 365 51 440 126 440 219 c 0
 440 316 367 390 272 390 c 0
EndSplineSet
Validated: 3073
EndChar

StartChar: h
Encoding: 104 104 72
Width: 600
Flags: MW
LayerCount: 2
Fore
SplineSet
437 288 m 2
 437 348 388 390 314 390 c 0
 258 390 230 373 176 309 c 2
 165 296 l 1
 165 41 l 1
 210 41 l 2
 229 41 238 34 238 21 c 0
 238 7 228 0 210 0 c 2
 78 0 l 2
 61 0 51 7 51 21 c 0
 51 34 60 41 78 41 c 2
 124 41 l 1
 124 563 l 1
 70 563 l 2
 52 563 43 570 43 584 c 0
 43 597 52 604 70 604 c 2
 165 604 l 1
 165 347 l 1
 216 408 258 431 319 431 c 0
 412 431 478 372 478 291 c 2
 478 41 l 1
 523 41 l 2
 542 41 551 34 551 21 c 0
 551 7 542 0 523 0 c 2
 392 0 l 2
 374 0 365 7 365 21 c 0
 365 34 374 41 392 41 c 2
 437 41 l 1
 437 288 l 2
EndSplineSet
Validated: 3073
EndChar

StartChar: i
Encoding: 105 105 73
Width: 600
Flags: MW
LayerCount: 2
Fore
SplineSet
320 417 m 1
 320 41 l 1
 480 41 l 2
 499 41 508 34 508 21 c 0
 508 7 498 0 480 0 c 2
 119 0 l 2
 101 0 92 7 92 21 c 0
 92 34 101 41 119 41 c 2
 279 41 l 1
 279 376 l 1
 161 376 l 2
 143 376 134 383 134 397 c 0
 134 410 143 417 161 417 c 2
 320 417 l 1
318 624 m 1
 318 520 l 1
 259 520 l 1
 259 624 l 1
 318 624 l 1
EndSplineSet
Validated: 3073
EndChar

StartChar: j
Encoding: 106 106 74
Width: 600
Flags: MW
LayerCount: 2
Fore
SplineSet
417 376 m 1
 176 376 l 2
 158 376 149 383 149 397 c 0
 149 410 158 417 176 417 c 2
 458 417 l 1
 458 -28 l 2
 458 -121 394 -186 303 -186 c 2
 174 -186 l 2
 156 -186 147 -179 147 -165 c 0
 147 -152 156 -145 174 -145 c 2
 302 -145 l 2
 368 -145 417 -96 417 -28 c 2
 417 376 l 1
414 624 m 1
 414 520 l 1
 355 520 l 1
 355 624 l 1
 414 624 l 1
EndSplineSet
Validated: 3073
EndChar

StartChar: k
Encoding: 107 107 75
Width: 600
Flags: MW
LayerCount: 2
Fore
SplineSet
185 180 m 1
 185 0 l 1
 90 0 l 2
 72 0 63 7 63 21 c 0
 63 34 72 41 90 41 c 2
 144 41 l 1
 144 563 l 1
 90 563 l 2
 72 563 63 570 63 584 c 0
 63 597 72 604 90 604 c 2
 185 604 l 1
 185 229 l 1
 358 376 l 1
 336 376 l 2
 318 376 309 383 309 397 c 0
 309 410 318 417 336 417 c 2
 466 417 l 2
 484 417 493 410 493 397 c 0
 493 383 484 376 466 376 c 2
 419 376 l 1
 262 245 l 1
 469 41 l 1
 514 41 l 2
 532 41 541 34 541 21 c 0
 541 7 532 0 514 0 c 2
 383 0 l 2
 365 0 356 7 356 21 c 0
 356 34 365 41 383 41 c 2
 411 41 l 1
 231 219 l 1
 185 180 l 1
EndSplineSet
Validated: 3073
EndChar

StartChar: l
Encoding: 108 108 76
Width: 600
Flags: MW
LayerCount: 2
Fore
SplineSet
320 604 m 1
 320 41 l 1
 480 41 l 2
 499 41 508 34 508 21 c 0
 508 7 498 0 480 0 c 2
 119 0 l 2
 101 0 92 7 92 21 c 0
 92 34 101 41 119 41 c 2
 279 41 l 1
 279 563 l 1
 162 563 l 2
 144 563 135 570 135 584 c 0
 135 597 144 604 162 604 c 2
 320 604 l 1
EndSplineSet
Validated: 3073
EndChar

StartChar: m
Encoding: 109 109 77
Width: 600
Flags: MW
LayerCount: 2
Fore
SplineSet
112 417 m 1
 112 365 l 1
 146 413 175 431 217 431 c 0
 260 431 292 408 314 360 c 1
 353 410 386 431 427 431 c 0
 485 431 532 382 532 323 c 2
 532 41 l 1
 566 41 l 2
 584 41 593 34 593 21 c 0
 593 7 584 0 566 0 c 2
 492 0 l 1
 492 319 l 2
 492 357 461 390 426 390 c 0
 390 390 360 366 322 308 c 1
 322 41 l 1
 356 41 l 2
 374 41 383 34 383 21 c 0
 383 7 374 0 356 0 c 2
 282 0 l 1
 282 316 l 2
 282 355 251 390 217 390 c 0
 182 390 150 365 112 308 c 1
 112 41 l 1
 146 41 l 2
 164 41 173 34 173 21 c 0
 173 7 163 0 146 0 c 2
 37 0 l 2
 20 0 11 7 11 21 c 0
 11 34 20 41 38 41 c 2
 72 41 l 1
 72 376 l 1
 38 376 l 2
 20 376 11 383 11 397 c 0
 11 410 20 417 38 417 c 2
 112 417 l 1
EndSplineSet
Validated: 3073
EndChar

StartChar: n
Encoding: 110 110 78
Width: 600
Flags: MW
LayerCount: 2
Fore
SplineSet
319 390 m 0
 230 390 189 322 167 294 c 1
 167 41 l 1
 212 41 l 2
 230 41 239 34 239 21 c 0
 239 7 230 0 212 0 c 2
 81 0 l 2
 62 0 53 7 53 21 c 0
 53 34 62 41 81 41 c 2
 126 41 l 1
 126 376 l 1
 92 376 l 2
 74 376 65 383 65 397 c 0
 65 410 74 417 92 417 c 2
 167 417 l 1
 167 348 l 1
 225 412 261 431 323 431 c 0
 412 431 480 372 480 295 c 2
 480 41 l 1
 514 41 l 2
 532 41 541 34 541 21 c 0
 541 7 532 0 514 0 c 2
 405 0 l 2
 387 0 378 7 378 21 c 0
 378 34 387 41 405 41 c 2
 439 41 l 1
 439 288 l 2
 439 344 394 390 319 390 c 0
EndSplineSet
Validated: 3073
EndChar

StartChar: o
Encoding: 111 111 79
Width: 600
Flags: MW
AnchorPoint: "above" 295 431 basechar 0
LayerCount: 2
Fore
SplineSet
300 431 m 0
 428 431 528 332 528 205 c 0
 528 83 426 -16 300 -16 c 0
 173 -16 72 83 72 208 c 0
 72 331 173 431 300 431 c 0
300 390 m 0
 196 390 113 309 113 208 c 0
 113 106 196 25 300 25 c 0
 403 25 487 106 487 205 c 0
 487 310 405 390 300 390 c 0
EndSplineSet
Validated: 3073
EndChar

StartChar: p
Encoding: 112 112 80
Width: 600
Flags: MW
LayerCount: 2
Fore
SplineSet
144 417 m 1
 144 335 l 1
 197 404 247 431 323 431 c 0
 447 431 541 340 541 221 c 0
 541 102 446 10 323 10 c 0
 246 10 190 40 144 106 c 1
 144 -145 l 1
 242 -145 l 2
 260 -145 269 -152 269 -165 c 0
 269 -179 260 -186 242 -186 c 2
 49 -186 l 2
 31 -186 22 -179 22 -165 c 0
 22 -152 31 -145 49 -145 c 2
 103 -145 l 1
 103 376 l 1
 49 376 l 2
 31 376 22 383 22 397 c 0
 22 410 31 417 49 417 c 2
 144 417 l 1
322 390 m 0
 223 390 144 315 144 221 c 0
 144 126 223 51 322 51 c 0
 420 51 500 126 500 219 c 0
 500 316 423 390 322 390 c 0
EndSplineSet
Validated: 3073
EndChar

StartChar: q
Encoding: 113 113 81
Width: 600
Flags: MW
LayerCount: 2
Fore
SplineSet
461 335 m 1
 461 417 l 1
 556 417 l 2
 574 417 583 410 583 397 c 0
 583 383 574 376 556 376 c 2
 502 376 l 1
 502 -145 l 1
 556 -145 l 2
 574 -145 583 -152 583 -165 c 0
 583 -179 574 -186 556 -186 c 2
 363 -186 l 2
 345 -186 336 -179 336 -165 c 0
 336 -152 345 -145 363 -145 c 2
 461 -145 l 1
 461 106 l 1
 415 40 359 10 281 10 c 0
 158 10 63 102 63 221 c 0
 63 340 158 431 282 431 c 0
 359 431 414 401 461 335 c 1
282 390 m 0
 182 390 104 316 104 221 c 0
 104 126 182 51 282 51 c 0
 381 51 461 126 461 219 c 0
 461 316 383 390 282 390 c 0
EndSplineSet
Validated: 3073
EndChar

StartChar: r
Encoding: 114 114 82
Width: 600
Flags: MW
LayerCount: 2
Fore
SplineSet
520 344 m 0
 503 344 481 386 438 386 c 0
 393 386 358 363 248 262 c 1
 248 41 l 1
 427 41 l 2
 444 41 454 33 454 20 c 0
 454 8 444 0 427 0 c 2
 111 0 l 2
 94 0 84 8 84 21 c 0
 84 33 94 41 111 41 c 2
 207 41 l 1
 207 376 l 1
 132 376 l 2
 115 376 105 384 105 397 c 0
 105 409 115 417 132 417 c 2
 248 417 l 1
 248 315 l 1
 341 399 390 427 441 427 c 0
 501 427 541 378 541 365 c 0
 541 353 532 344 520 344 c 0
EndSplineSet
Validated: 3073
EndChar

StartChar: s
Encoding: 115 115 83
Width: 600
Flags: MW
LayerCount: 2
Fore
SplineSet
452 117 m 0
 452 253 124 157 124 318 c 0
 124 383 197 431 295 431 c 0
 352 431 397 416 432 385 c 1
 432 389 l 2
 432 406 440 417 453 417 c 0
 466 417 473 408 473 389 c 2
 473 320 l 2
 473 302 466 293 453 293 c 0
 441 293 434 300 432 316 c 0
 427 361 375 390 299 390 c 0
 225 390 169 358 169 315 c 0
 169 228 352 268 447 206 c 0
 478 185 497 151 497 116 c 0
 497 40 414 -16 301 -16 c 0
 236 -16 186 1 144 38 c 1
 144 27 l 2
 144 9 137 0 124 0 c 0
 110 0 103 9 103 27 c 2
 103 110 l 2
 103 128 110 137 124 137 c 0
 136 137 144 128 144 115 c 2
 144 108 l 2
 144 62 213 25 298 25 c 0
 386 25 452 64 452 117 c 0
EndSplineSet
Validated: 3073
EndChar

StartChar: t
Encoding: 116 116 84
Width: 600
Flags: MW
LayerCount: 2
Fore
SplineSet
186 417 m 1
 406 417 l 2
 424 417 433 410 433 397 c 0
 433 383 424 376 406 376 c 2
 186 376 l 1
 186 109 l 2
 186 58 229 25 298 25 c 0
 354 25 425 42 464 65 c 0
 472 70 475 71 480 71 c 0
 490 71 499 61 499 51 c 0
 499 22 385 -16 300 -16 c 0
 206 -16 145 32 145 107 c 2
 145 376 l 1
 71 376 l 2
 52 376 43 383 43 397 c 0
 43 410 52 417 71 417 c 2
 145 417 l 1
 145 536 l 2
 145 554 152 563 166 563 c 0
 180 563 186 555 186 536 c 2
 186 417 l 1
EndSplineSet
Validated: 3073
EndChar

StartChar: u
Encoding: 117 117 85
Width: 600
Flags: MW
AnchorPoint: "above" 291 431 basechar 0
LayerCount: 2
Fore
SplineSet
439 0 m 1
 439 66 l 1
 384 12 323 -16 257 -16 c 0
 177 -16 124 36 124 115 c 2
 124 376 l 1
 70 376 l 2
 52 376 43 383 43 397 c 0
 43 410 52 417 70 417 c 2
 165 417 l 1
 165 115 l 2
 165 65 205 25 256 25 c 0
 323 25 384 55 439 115 c 1
 439 376 l 1
 365 376 l 2
 346 376 337 383 337 397 c 0
 337 410 346 417 365 417 c 2
 480 417 l 1
 480 41 l 1
 514 41 l 2
 532 41 541 34 541 21 c 0
 541 7 532 0 514 0 c 2
 439 0 l 1
EndSplineSet
Validated: 3073
EndChar

StartChar: v
Encoding: 118 118 86
Width: 600
Flags: MW
LayerCount: 2
Fore
SplineSet
336 0 m 1
 266 0 l 1
 98 376 l 1
 57 376 l 2
 39 376 30 383 30 397 c 0
 30 410 39 417 57 417 c 2
 208 417 l 2
 227 417 236 410 236 397 c 0
 236 383 227 376 208 376 c 2
 143 376 l 1
 293 41 l 1
 312 41 l 1
 459 376 l 1
 391 376 l 2
 373 376 364 383 364 397 c 0
 364 410 373 417 391 417 c 2
 543 417 l 2
 561 417 570 410 570 397 c 0
 570 383 561 376 543 376 c 2
 502 376 l 1
 336 0 l 1
EndSplineSet
Validated: 3073
EndChar

StartChar: w
Encoding: 119 119 87
Width: 600
Flags: MW
LayerCount: 2
Fore
SplineSet
441 0 m 1
 391 0 l 1
 300 259 l 1
 211 0 l 1
 160 0 l 1
 76 376 l 1
 57 376 l 2
 39 376 30 383 30 397 c 0
 30 410 39 417 57 417 c 2
 168 417 l 2
 186 417 195 410 195 397 c 0
 195 383 186 376 168 376 c 2
 115 376 l 1
 187 56 l 1
 273 311 l 1
 324 311 l 1
 413 56 l 1
 482 376 l 1
 432 376 l 2
 414 376 405 383 405 397 c 0
 405 410 414 417 432 417 c 2
 543 417 l 2
 561 417 570 410 570 397 c 0
 570 383 561 376 543 376 c 2
 524 376 l 1
 441 0 l 1
EndSplineSet
Validated: 3073
EndChar

StartChar: x
Encoding: 120 120 88
Width: 600
Flags: MW
LayerCount: 2
Fore
SplineSet
329 219 m 1
 513 41 l 1
 522 41 l 2
 540 41 549 34 549 21 c 0
 549 7 540 0 522 0 c 2
 390 0 l 2
 372 0 363 7 363 21 c 0
 363 34 372 41 390 41 c 2
 455 41 l 1
 300 190 l 1
 143 41 l 1
 211 41 l 2
 229 41 238 34 238 21 c 0
 238 7 229 0 211 0 c 2
 78 0 l 2
 60 0 51 7 51 21 c 0
 51 34 60 41 78 41 c 2
 87 41 l 1
 271 219 l 1
 108 376 l 1
 101 376 l 2
 83 376 74 383 74 397 c 0
 74 410 83 417 101 417 c 2
 212 417 l 2
 230 417 239 411 239 397 c 0
 239 383 230 376 212 376 c 2
 166 376 l 1
 300 246 l 1
 437 376 l 1
 389 376 l 2
 371 376 362 383 362 397 c 0
 362 410 371 417 389 417 c 2
 499 417 l 2
 517 417 526 410 526 397 c 0
 526 383 517 376 499 376 c 2
 492 376 l 1
 329 219 l 1
EndSplineSet
Validated: 3073
EndChar

StartChar: y
Encoding: 121 121 89
Width: 600
Flags: MW
LayerCount: 2
Fore
SplineSet
282 0 m 1
 94 376 l 1
 78 376 l 2
 60 376 51 383 51 397 c 0
 51 410 60 417 78 417 c 2
 193 417 l 2
 211 417 220 410 220 397 c 0
 220 383 211 376 193 376 c 2
 141 376 l 1
 305 45 l 1
 466 376 l 1
 412 376 l 2
 394 376 385 383 385 397 c 0
 385 410 394 417 412 417 c 2
 522 417 l 2
 540 417 549 410 549 397 c 0
 549 383 540 376 522 376 c 2
 508 376 l 1
 252 -145 l 1
 317 -145 l 2
 335 -145 344 -152 344 -165 c 0
 344 -179 335 -186 317 -186 c 2
 84 -186 l 2
 66 -186 57 -179 57 -165 c 0
 57 -152 66 -145 84 -145 c 2
 211 -145 l 1
 282 0 l 1
EndSplineSet
Validated: 3073
EndChar

StartChar: z
Encoding: 122 122 90
Width: 600
Flags: MW
LayerCount: 2
Fore
SplineSet
474 417 m 1
 474 381 l 1
 171 41 l 1
 448 41 l 1
 448 97 l 2
 448 115 455 124 469 124 c 0
 482 124 489 115 489 97 c 2
 489 0 l 1
 115 0 l 1
 115 36 l 1
 416 376 l 1
 165 376 l 1
 165 321 l 2
 165 303 158 294 145 294 c 0
 131 294 124 303 124 321 c 2
 124 417 l 1
 474 417 l 1
EndSplineSet
Validated: 3073
EndChar

StartChar: braceleft
Encoding: 123 123 91
Width: 600
Flags: MW
LayerCount: 2
Fore
SplineSet
403 584 m 0
 403 550 322 579 322 499 c 2
 322 326 l 2
 322 285 311 264 278 240 c 1
 311 216 322 195 322 154 c 2
 322 -19 l 2
 322 -100 403 -69 403 -104 c 0
 403 -116 394 -124 379 -124 c 0
 324 -124 281 -78 281 -19 c 2
 281 154 l 2
 281 236 197 204 197 240 c 0
 197 275 281 245 281 326 c 2
 281 499 l 2
 281 558 324 604 379 604 c 0
 394 604 403 596 403 584 c 0
EndSplineSet
Validated: 3073
EndChar

StartChar: bar
Encoding: 124 124 92
Width: 600
Flags: MW
LayerCount: 2
Fore
SplineSet
320 577 m 2
 320 -97 l 2
 320 -115 313 -124 300 -124 c 0
 287 -124 280 -115 280 -97 c 2
 280 577 l 2
 280 595 287 604 300 604 c 0
 313 604 320 595 320 577 c 2
EndSplineSet
Validated: 3073
EndChar

StartChar: braceright
Encoding: 125 125 93
Width: 600
Flags: MW
LayerCount: 2
Fore
SplineSet
197 -104 m 0
 197 -70 278 -99 278 -19 c 2
 278 154 l 2
 278 195 289 216 322 240 c 1
 289 264 278 285 278 326 c 2
 278 499 l 2
 278 580 197 549 197 584 c 0
 197 596 206 604 221 604 c 0
 276 604 319 558 319 499 c 2
 319 326 l 2
 319 244 403 276 403 240 c 0
 403 205 319 235 319 154 c 2
 319 -19 l 2
 319 -78 276 -124 221 -124 c 0
 206 -124 197 -116 197 -104 c 0
EndSplineSet
Validated: 3073
EndChar

StartChar: asciitilde
Encoding: 126 126 94
Width: 600
Flags: MW
LayerCount: 2
Fore
SplineSet
386 253 m 0
 438 253 466 330 488 330 c 0
 499 330 508 321 508 311 c 0
 508 292 444 212 389 212 c 0
 318 212 266 307 212 307 c 0
 155 307 143 230 111 230 c 0
 101 230 92 239 92 249 c 0
 92 261 144 348 212 348 c 0
 282 348 345 253 386 253 c 0
EndSplineSet
Validated: 3073
EndChar

StartChar: exclamdown
Encoding: 161 161 96
Width: 600
Flags: MW
LayerCount: 2
Fore
SplineSet
262 -110 m 0
 280 216 l 1
 281 236 287 244 301 244 c 0
 314 244 320 235 321 216 c 2
 339 -110 l 1
 340 -117 340 -122 340 -126 c 0
 340 -148 323 -165 300 -165 c 0
 278 -165 261 -148 261 -126 c 0
 261 -124 262 -118 262 -110 c 0
307 368 m 2
 294 368 l 2
 264 368 240 390 240 418 c 0
 240 446 264 468 294 468 c 2
 307 468 l 2
 337 468 360 446 360 418 c 0
 360 390 337 368 307 368 c 2
EndSplineSet
Validated: 3073
EndChar

StartChar: cent
Encoding: 162 162 97
Width: 600
Flags: MW
LayerCount: 2
Fore
SplineSet
113 311 m 0
 113 348 132 464 280 496 c 1
 280 603 l 2
 280 621 287 630 301 630 c 0
 314 630 321 621 321 603 c 2
 321 497 l 1
 359 497 400 483 425 461 c 1
 428 472 435 478 445 478 c 0
 458 478 466 469 466 453 c 2
 466 392 l 2
 466 373 459 364 446 364 c 0
 434 364 428 371 426 387 c 0
 420 430 375 458 311 458 c 0
 220 458 154 397 154 311 c 0
 154 227 219 165 307 165 c 0
 407 165 423 215 450 215 c 0
 461 215 469 207 469 195 c 0
 469 168 388 130 321 127 c 1
 321 14 l 2
 321 -4 314 -13 301 -13 c 0
 287 -13 280 -4 280 14 c 2
 280 127 l 1
 183 138 113 216 113 311 c 0
EndSplineSet
Validated: 3073
EndChar

StartChar: sterling
Encoding: 163 163 98
Width: 600
Flags: MW
LayerCount: 2
Fore
SplineSet
198 435 m 0
 198 411 200 403 225 314 c 1
 324 314 l 2
 342 314 351 307 351 293 c 0
 351 280 342 273 324 273 c 2
 234 273 l 1
 237 252 239 234 239 216 c 0
 239 148 219 87 182 41 c 1
 434 41 l 2
 489 41 469 115 500 115 c 0
 512 115 520 106 520 93 c 0
 520 42 482 0 436 0 c 2
 113 0 l 2
 95 0 86 7 86 21 c 0
 86 32 94 40 108 40 c 0
 155 42 198 128 198 220 c 0
 198 237 196 260 194 273 c 1
 90 273 l 2
 72 273 63 280 63 294 c 0
 63 307 72 314 90 314 c 2
 184 314 l 1
 163 380 157 409 157 435 c 0
 157 514 220 578 298 578 c 0
 375 578 427 513 427 495 c 0
 427 486 416 476 407 476 c 0
 387 476 368 537 299 537 c 0
 245 537 198 490 198 435 c 0
EndSplineSet
Validated: 3073
EndChar

StartChar: currency
Encoding: 164 164 99
Width: 600
Flags: MW
LayerCount: 2
Fore
SplineSet
199 162 m 1
 142 106 l 1
 134 97 130 95 124 95 c 0
 112 95 103 104 103 115 c 0
 103 122 106 127 114 135 c 2
 170 191 l 1
 146 223 135 256 135 292 c 0
 135 329 147 366 169 394 c 1
 114 450 l 1
 105 458 103 462 103 469 c 0
 103 480 112 489 123 489 c 0
 130 489 134 486 142 478 c 2
 198 423 l 1
 227 446 263 458 300 458 c 0
 337 458 374 445 402 423 c 1
 457 478 l 2
 466 487 470 489 477 489 c 0
 488 489 497 480 497 468 c 0
 497 461 496 459 487 450 c 2
 432 394 l 1
 455 362 466 329 466 293 c 0
 466 256 454 220 431 191 c 1
 486 135 l 2
 492 129 496 121 496 115 c 0
 496 104 487 95 476 95 c 0
 470 95 464 98 457 106 c 2
 401 162 l 1
 369 138 337 127 300 127 c 0
 263 127 229 139 199 162 c 1
300 417 m 0
 232 417 176 361 176 293 c 0
 176 224 232 168 300 168 c 0
 367 168 424 224 424 291 c 0
 424 361 369 417 300 417 c 0
EndSplineSet
Validated: 3073
EndChar

StartChar: yen
Encoding: 165 165 100
Width: 600
Flags: MW
LayerCount: 2
Fore
SplineSet
321 238 m 1
 321 178 l 1
 452 178 l 2
 467 178 473 173 473 160 c 0
 473 146 467 141 452 141 c 2
 321 141 l 1
 321 41 l 1
 407 41 l 2
 425 41 434 34 434 21 c 0
 434 7 425 0 407 0 c 2
 194 0 l 2
 176 0 167 7 167 21 c 0
 167 34 176 41 194 41 c 2
 280 41 l 1
 280 141 l 1
 150 141 l 2
 134 141 128 146 128 160 c 0
 128 173 134 178 150 178 c 2
 280 178 l 1
 280 238 l 1
 150 238 l 2
 134 238 128 243 128 257 c 0
 128 270 133 275 150 275 c 2
 266 275 l 1
 102 522 l 1
 78 522 l 2
 60 522 51 529 51 543 c 0
 51 556 60 563 78 563 c 2
 188 563 l 2
 206 563 215 556 215 543 c 0
 215 529 206 522 188 522 c 2
 149 522 l 1
 300 295 l 1
 451 522 l 1
 412 522 l 2
 394 522 385 529 385 543 c 0
 385 556 394 563 412 563 c 2
 522 563 l 2
 540 563 549 556 549 543 c 0
 549 529 540 522 522 522 c 2
 498 522 l 1
 334 275 l 1
 452 275 l 2
 468 275 473 270 473 257 c 0
 473 243 468 238 452 238 c 2
 321 238 l 1
EndSplineSet
Validated: 3073
EndChar

StartChar: brokenbar
Encoding: 166 166 101
Width: 600
Flags: MW
LayerCount: 2
Fore
SplineSet
320 577 m 2
 320 310 l 2
 320 292 313 283 300 283 c 0
 287 283 280 292 280 310 c 2
 280 577 l 2
 280 595 287 604 300 604 c 0
 313 604 320 595 320 577 c 2
320 170 m 2
 320 -97 l 2
 320 -115 313 -124 300 -124 c 0
 287 -124 280 -115 280 -97 c 2
 280 170 l 2
 280 188 287 197 300 197 c 0
 313 197 320 188 320 170 c 2
EndSplineSet
Validated: 3073
EndChar

StartChar: section
Encoding: 167 167 102
Width: 600
Flags: MW
LayerCount: 2
Fore
SplineSet
534 185 m 0
 534 138 498 109 432 101 c 1
 441 86 445 71 445 52 c 0
 445 -13 388 -62 312 -62 c 2
 105 -62 l 1
 105 49 l 2
 105 64 112 73 126 73 c 0
 139 73 146 64 146 49 c 2
 146 -22 l 1
 311 -22 l 2
 364 -22 404 11 404 53 c 0
 404 88 369 121 273 175 c 2
 208 211 l 2
 110 266 66 312 66 358 c 0
 66 403 107 436 169 441 c 1
 160 456 156 469 156 487 c 0
 156 550 215 603 284 603 c 2
 496 603 l 1
 496 494 l 2
 496 479 489 470 476 470 c 0
 463 470 455 479 455 494 c 2
 455 563 l 1
 287 563 l 2
 238 563 196 528 196 487 c 0
 196 450 226 424 345 358 c 2
 401 327 l 2
 495 276 534 234 534 185 c 0
400 139 m 1
 417 148 491 142 491 184 c 0
 491 213 449 255 384 290 c 2
 320 326 l 2
 256 361 228 379 201 403 c 1
 195 402 195 402 183 402 c 0
 141 402 109 383 109 357 c 0
 109 328 151 290 234 243 c 2
 296 208 l 2
 351 177 382 157 400 139 c 1
EndSplineSet
Validated: 3073
EndChar

StartChar: dieresis
Encoding: 168 168 103
Width: 600
Flags: MW
LayerCount: 2
Fore
SplineSet
190 611 m 0
 218 611 240 588 240 560 c 0
 240 534 217 511 190 511 c 0
 163 511 140 534 140 561 c 0
 140 588 163 611 190 611 c 0
411 611 m 0
 439 611 461 588 461 560 c 0
 461 534 438 511 411 511 c 0
 384 511 361 534 361 561 c 0
 361 588 384 611 411 611 c 0
EndSplineSet
Validated: 3073
EndChar

StartChar: copyright
Encoding: 169 169 104
Width: 600
Flags: MW
LayerCount: 2
Fore
SplineSet
425 185 m 0
 425 170 376 111 302 111 c 0
 223 111 153 181 153 260 c 2
 153 305 l 2
 153 385 216 450 292 450 c 0
 324 450 346 443 381 421 c 1
 381 435 388 443 399 443 c 0
 410 443 417 435 417 423 c 2
 417 358 l 2
 417 346 410 338 399 338 c 0
 389 338 383 345 381 357 c 0
 378 388 338 414 293 414 c 0
 235 414 189 364 189 302 c 2
 189 263 l 2
 189 200 240 147 302 147 c 0
 374 147 385 202 408 202 c 0
 417 202 425 194 425 185 c 0
300 578 m 0
 463 578 596 445 596 282 c 0
 596 116 464 -15 296 -15 c 0
 136 -15 3 120 3 282 c 0
 3 445 136 578 300 578 c 0
300 537 m 0
 159 537 44 423 44 282 c 0
 44 142 159 26 296 26 c 0
 441 26 555 139 555 282 c 0
 555 422 440 537 300 537 c 0
EndSplineSet
Validated: 3073
EndChar

StartChar: ordfeminine
Encoding: 170 170 105
Width: 600
Flags: MW
LayerCount: 2
Fore
SplineSet
189 533 m 0
 189 561 280 574 298 574 c 0
 356 574 398 539 398 490 c 2
 398 319 l 1
 424 319 l 2
 439 319 447 312 447 300 c 0
 447 289 438 282 424 282 c 2
 361 282 l 1
 361 308 l 1
 320 286 293 279 254 279 c 0
 195 279 155 311 155 358 c 0
 155 415 211 455 288 455 c 0
 311 455 331 452 361 446 c 1
 361 490 l 2
 361 518 335 537 296 537 c 0
 260 537 216 514 206 514 c 0
 197 514 189 523 189 533 c 0
361 350 m 1
 361 409 l 1
 345 415 313 420 290 420 c 0
 233 420 192 393 192 356 c 0
 192 332 217 316 254 316 c 0
 292 316 326 327 361 350 c 1
EndSplineSet
Validated: 3073
EndChar

StartChar: guillemotleft
Encoding: 171 171 106
Width: 600
Flags: MW
LayerCount: 2
Fore
SplineSet
63 209 m 1
 271 406 l 2
 279 414 285 417 292 417 c 0
 303 417 312 408 312 397 c 0
 312 390 311 388 301 377 c 2
 158 209 l 1
 301 40 l 2
 311 29 312 27 312 20 c 0
 312 9 303 0 292 0 c 0
 286 0 279 4 271 11 c 2
 63 209 l 1
292 209 m 1
 500 406 l 2
 508 414 514 417 521 417 c 0
 532 417 541 408 541 397 c 0
 541 390 540 388 530 377 c 2
 387 209 l 1
 530 40 l 2
 540 29 541 27 541 20 c 0
 541 9 532 0 521 0 c 0
 515 0 508 4 500 11 c 2
 292 209 l 1
EndSplineSet
Validated: 3073
EndChar

StartChar: logicalnot
Encoding: 172 172 107
Width: 600
Flags: MW
LayerCount: 2
Fore
SplineSet
487 397 m 1
 99 397 l 2
 81 397 72 404 72 418 c 0
 72 431 81 438 99 438 c 2
 528 438 l 1
 528 195 l 2
 528 177 521 168 507 168 c 0
 494 168 487 177 487 195 c 2
 487 397 l 1
EndSplineSet
Validated: 3073
EndChar

StartChar: registered
Encoding: 174 174 109
Width: 600
Flags: MW
LayerCount: 2
Fore
SplineSet
233 258 m 1
 233 156 l 1
 269 156 l 2
 281 156 289 149 289 138 c 0
 289 127 281 120 269 120 c 2
 173 120 l 2
 160 120 152 127 152 138 c 0
 152 149 160 156 173 156 c 2
 197 156 l 1
 197 407 l 1
 173 407 l 2
 160 407 152 414 152 425 c 0
 152 436 160 443 173 443 c 2
 311 443 l 2
 372 443 416 404 416 350 c 0
 416 312 389 281 346 269 c 1
 379 243 390 228 431 156 c 1
 446 156 l 2
 458 156 466 149 466 138 c 0
 466 127 458 120 446 120 c 2
 407 120 l 1
 370 198 331 246 296 258 c 1
 233 258 l 1
233 294 m 1
 289 294 l 2
 345 294 380 316 380 352 c 0
 380 384 351 407 310 407 c 2
 233 407 l 1
 233 294 l 1
300 578 m 0
 463 578 596 445 596 282 c 0
 596 116 464 -15 296 -15 c 0
 136 -15 3 120 3 282 c 0
 3 445 136 578 300 578 c 0
300 537 m 0
 159 537 44 423 44 282 c 0
 44 142 159 26 296 26 c 0
 441 26 555 139 555 282 c 0
 555 422 440 537 300 537 c 0
EndSplineSet
Validated: 3073
EndChar

StartChar: macron
Encoding: 175 175 110
Width: 600
Flags: MW
LayerCount: 2
Fore
SplineSet
418 536 m 2
 182 536 l 2
 164 536 155 543 155 556 c 0
 155 569 164 576 182 576 c 2
 418 576 l 2
 436 576 445 569 445 556 c 0
 445 543 436 536 418 536 c 2
EndSplineSet
Validated: 3073
EndChar

StartChar: degree
Encoding: 176 176 111
Width: 600
Flags: MW
LayerCount: 2
Fore
SplineSet
300 636 m 0
 380 636 445 571 445 491 c 0
 445 411 380 346 300 346 c 0
 219 346 155 411 155 493 c 0
 155 571 221 636 300 636 c 0
300 595 m 0
 243 595 196 548 196 492 c 0
 196 434 242 387 300 387 c 0
 357 387 404 434 404 491 c 0
 404 548 357 595 300 595 c 0
EndSplineSet
Validated: 3073
EndChar

StartChar: plusminus
Encoding: 177 177 112
Width: 600
Flags: MW
LayerCount: 2
Fore
SplineSet
320 301 m 1
 320 139 l 2
 320 121 313 112 300 112 c 0
 286 112 279 121 279 139 c 2
 279 301 l 1
 99 301 l 2
 81 301 72 308 72 321 c 0
 72 334 81 341 99 341 c 2
 279 341 l 1
 279 502 l 2
 279 520 286 529 300 529 c 0
 313 529 320 520 320 502 c 2
 320 341 l 1
 500 341 l 2
 519 341 528 335 528 321 c 0
 528 308 519 301 500 301 c 2
 320 301 l 1
99 40 m 2
 501 40 l 2
 519 40 528 33 528 20 c 0
 528 7 519 0 501 0 c 2
 99 0 l 2
 81 0 72 7 72 20 c 0
 72 33 81 40 99 40 c 2
EndSplineSet
Validated: 3073
EndChar

StartChar: twosuperior
Encoding: 178 178 113
Width: 600
Flags: MW
LayerCount: 2
Fore
SplineSet
186 525 m 0
 186 555 230 612 295 612 c 0
 353 612 403 565 403 511 c 0
 403 468 386 448 219 295 c 1
 369 295 l 1
 369 298 l 2
 369 310 376 318 387 318 c 0
 398 318 405 310 405 298 c 2
 405 259 l 1
 175 259 l 1
 175 302 l 1
 307 425 l 1
 357 475 367 489 367 511 c 0
 367 546 333 576 295 576 c 0
 261 576 230 555 221 524 c 0
 218 513 212 508 203 508 c 0
 194 508 186 516 186 525 c 0
EndSplineSet
Validated: 3073
EndChar

StartChar: threesuperior
Encoding: 179 179 114
Width: 600
Flags: MW
LayerCount: 2
Fore
SplineSet
300 576 m 0
 237 576 233 539 215 539 c 0
 205 539 197 547 197 556 c 0
 197 581 254 612 300 612 c 0
 359 612 404 572 404 520 c 0
 404 490 391 468 358 446 c 1
 397 422 416 394 416 358 c 0
 416 299 361 251 295 251 c 0
 245 251 181 281 181 304 c 0
 181 313 189 321 198 321 c 0
 215 321 234 287 295 287 c 0
 341 287 380 320 380 358 c 0
 380 398 341 430 288 431 c 0
 275 432 267 438 267 449 c 0
 267 464 277 467 304 467 c 0
 341 467 368 490 368 520 c 0
 368 552 339 576 300 576 c 0
EndSplineSet
Validated: 3073
EndChar

StartChar: acute
Encoding: 180 180 115
Width: 600
Flags: HMW
LayerCount: 2
Fore
SplineSet
433 599 m 2
 319 499 l 2
 310 492 306 490 300 490 c 0
 289 490 280 499 280 511 c 0
 280 518 282 521 292 530 c 2
 406 630 l 2
 415 637 419 639 425 639 c 0
 436 639 445 630 445 618 c 0
 445 611 442 607 433 599 c 2
EndSplineSet
Validated: 3073
EndChar

StartChar: micro
Encoding: 181 181 116
Width: 600
Flags: MW
LayerCount: 2
Fore
SplineSet
165 16 m 1
 165 -173 l 2
 165 -191 158 -200 144 -200 c 0
 131 -200 124 -191 124 -173 c 2
 124 377 l 1
 70 377 l 2
 52 377 43 384 43 397 c 0
 43 411 52 417 70 417 c 2
 165 417 l 1
 165 115 l 2
 165 61 202 24 256 24 c 0
 324 24 384 54 439 115 c 1
 439 377 l 1
 365 377 l 2
 346 377 337 384 337 397 c 0
 337 411 346 417 365 417 c 2
 480 417 l 1
 480 40 l 1
 514 40 l 2
 532 40 541 34 541 20 c 0
 541 7 532 0 514 0 c 2
 439 0 l 1
 439 59 l 1
 387 10 323 -16 258 -16 c 0
 217 -16 192 -8 165 16 c 1
EndSplineSet
Validated: 3073
EndChar

StartChar: paragraph
Encoding: 182 182 117
Width: 600
Flags: MW
LayerCount: 2
Fore
SplineSet
284 260 m 1
 162 268 79 325 79 406 c 2
 79 453 l 2
 79 543 168 604 298 604 c 2
 498 604 l 2
 514 604 523 596 523 584 c 0
 523 571 514 563 498 563 c 2
 437 563 l 1
 437 -21 l 1
 499 -21 l 2
 516 -21 525 -28 525 -41 c 0
 525 -55 516 -62 499 -62 c 2
 401 -62 l 2
 386 -62 376 -54 376 -41 c 0
 376 -30 384 -22 397 -21 c 1
 397 563 l 1
 325 563 l 1
 325 -21 l 1
 338 -22 346 -30 346 -41 c 0
 346 -55 337 -62 321 -62 c 2
 187 -62 l 2
 171 -62 161 -54 161 -41 c 0
 161 -28 170 -21 187 -21 c 2
 284 -21 l 1
 284 260 l 1
284 307 m 1
 284 558 l 1
 207 550 149 504 149 451 c 2
 149 414 l 2
 149 361 207 315 284 307 c 1
EndSplineSet
Validated: 3073
EndChar

StartChar: middot
Encoding: 183 183 118
Width: 600
Flags: HMW
LayerCount: 2
Fore
SplineSet
300 280 m 0
 328 280 350 257 350 229 c 0
 350 203 327 180 300 180 c 0
 273 180 250 203 250 230 c 0
 250 257 273 280 300 280 c 0
EndSplineSet
Validated: 3073
EndChar

StartChar: cedilla
Encoding: 184 184 119
Width: 600
Flags: MW
LayerCount: 2
Fore
SplineSet
230 -114 m 0
 242 -114 265 -135 296 -135 c 0
 322 -135 340 -123 340 -106 c 0
 340 -89 325 -81 294 -81 c 2
 274 -81 l 1
 274 0 l 1
 312 0 l 1
 312 -47 l 1
 353 -48 377 -70 377 -108 c 0
 377 -147 345 -173 298 -173 c 0
 270 -173 210 -158 210 -133 c 0
 210 -122 219 -114 230 -114 c 0
EndSplineSet
Validated: 3073
EndChar

StartChar: onesuperior
Encoding: 185 185 120
Width: 600
Flags: HMW
LayerCount: 2
Fore
SplineSet
319 608 m 1
 319 291 l 1
 390 291 l 2
 402 291 410 284 410 273 c 0
 410 262 402 255 390 255 c 2
 212 255 l 2
 199 255 191 262 191 273 c 0
 191 286 201 292 222 292 c 0
 230 292 261 292 283 291 c 1
 283 559 l 1
 218 538 l 2
 214 537 211 536 209 536 c 0
 201 536 192 545 192 554 c 0
 192 569 192 569 319 608 c 1
EndSplineSet
Validated: 3073
EndChar

StartChar: ordmasculine
Encoding: 186 186 121
Width: 600
Flags: MW
LayerCount: 2
Fore
SplineSet
301 577 m 0
 383 577 448 512 448 429 c 0
 448 350 381 284 301 284 c 0
 220 284 154 350 154 431 c 0
 154 511 220 577 301 577 c 0
301 540 m 0
 240 540 191 491 191 431 c 0
 191 370 241 321 301 321 c 0
 361 321 411 370 411 429 c 0
 411 491 363 540 301 540 c 0
EndSplineSet
Validated: 3073
EndChar

StartChar: guillemotright
Encoding: 187 187 122
Width: 600
Flags: MW
LayerCount: 2
Fore
SplineSet
311 208 m 1
 104 11 l 2
 96 3 90 0 83 0 c 0
 72 0 63 9 63 20 c 0
 63 27 64 29 74 40 c 2
 216 208 l 1
 74 377 l 2
 64 388 63 390 63 397 c 0
 63 408 72 417 83 417 c 0
 89 417 96 413 104 406 c 2
 311 208 l 1
541 208 m 1
 334 11 l 2
 326 3 320 0 313 0 c 0
 302 0 293 9 293 20 c 0
 293 27 294 29 304 40 c 2
 446 208 l 1
 304 377 l 2
 294 388 293 390 293 397 c 0
 293 408 302 417 313 417 c 0
 319 417 326 413 334 406 c 2
 541 208 l 1
EndSplineSet
Validated: 3073
EndChar

StartChar: onequarter
Encoding: 188 188 123
Width: 600
Flags: MW
LayerCount: 2
Fore
SplineSet
144 612 m 1
 144 295 l 1
 215 295 l 2
 228 295 236 288 236 277 c 0
 236 266 227 259 215 259 c 2
 37 259 l 2
 24 259 16 266 16 277 c 0
 16 290 26 296 47 296 c 0
 55 296 86 296 108 295 c 1
 108 563 l 1
 43 542 l 2
 39 541 36 540 34 540 c 0
 26 540 17 549 17 558 c 0
 17 573 17 573 144 612 c 1
492 477 m 0
 141 63 l 2
 133 53 129 51 123 51 c 0
 112 51 103 60 103 71 c 0
 103 75 106 81 112 88 c 2
 462 502 l 2
 471 512 474 514 480 514 c 0
 491 514 500 505 500 494 c 0
 500 490 497 483 492 477 c 0
453 18 m 0
 453 35 465 36 499 36 c 2
 510 36 l 1
 510 93 l 1
 361 93 l 1
 361 127 l 1
 489 345 l 1
 546 345 l 1
 546 129 l 1
 559 129 l 2
 572 129 580 122 580 111 c 0
 580 99 571 93 555 93 c 2
 546 93 l 1
 546 36 l 1
 559 36 l 2
 572 36 580 29 580 18 c 0
 580 7 572 0 559 0 c 2
 474 0 l 2
 461 0 453 7 453 18 c 0
510 129 m 1
 510 309 l 1
 508 309 l 1
 401 129 l 1
 510 129 l 1
EndSplineSet
Validated: 3073
EndChar

StartChar: onehalf
Encoding: 189 189 124
Width: 600
Flags: MW
LayerCount: 2
Fore
SplineSet
485 477 m 0
 134 63 l 2
 126 53 122 51 116 51 c 0
 105 51 96 60 96 71 c 0
 96 75 99 81 105 88 c 2
 455 502 l 2
 464 512 467 514 473 514 c 0
 484 514 493 505 493 494 c 0
 493 490 490 483 485 477 c 0
151 612 m 1
 151 295 l 1
 222 295 l 2
 234 295 242 288 242 277 c 0
 242 266 234 259 222 259 c 2
 44 259 l 2
 31 259 23 266 23 277 c 0
 23 290 33 296 54 296 c 0
 62 296 93 296 115 295 c 1
 115 563 l 1
 50 542 l 2
 46 541 43 540 41 540 c 0
 33 540 24 549 24 558 c 0
 24 573 24 573 151 612 c 1
354 266 m 0
 354 296 398 353 463 353 c 0
 521 353 571 306 571 252 c 0
 571 209 554 189 387 36 c 1
 537 36 l 1
 537 39 l 2
 537 51 544 59 555 59 c 0
 566 59 573 51 573 39 c 2
 573 0 l 1
 343 0 l 1
 343 43 l 1
 475 166 l 1
 525 216 535 230 535 252 c 0
 535 287 501 317 463 317 c 0
 429 317 398 296 389 265 c 0
 386 254 380 249 371 249 c 0
 362 249 354 257 354 266 c 0
EndSplineSet
Validated: 3073
EndChar

StartChar: threequarters
Encoding: 190 190 125
Width: 600
Flags: MW
LayerCount: 2
Fore
SplineSet
125 576 m 0
 62 576 58 539 40 539 c 0
 30 539 22 547 22 556 c 0
 22 581 79 612 125 612 c 0
 184 612 229 572 229 520 c 0
 229 490 216 468 183 446 c 1
 222 422 241 394 241 358 c 0
 241 299 186 251 120 251 c 0
 70 251 6 281 6 304 c 0
 6 313 14 321 23 321 c 0
 40 321 59 287 120 287 c 0
 166 287 205 320 205 358 c 0
 205 398 166 430 113 431 c 0
 100 432 92 438 92 449 c 0
 92 464 102 467 129 467 c 0
 166 467 193 490 193 520 c 0
 193 552 164 576 125 576 c 0
491 477 m 0
 140 63 l 2
 132 53 128 51 122 51 c 0
 111 51 102 60 102 71 c 0
 102 76 104 80 111 88 c 2
 461 502 l 2
 470 512 473 514 479 514 c 0
 490 514 499 505 499 494 c 0
 499 490 496 483 491 477 c 0
453 18 m 0
 453 35 465 36 499 36 c 2
 510 36 l 1
 510 93 l 1
 361 93 l 1
 361 127 l 1
 489 345 l 1
 546 345 l 1
 546 129 l 1
 559 129 l 2
 572 129 580 122 580 111 c 0
 580 99 571 93 555 93 c 2
 546 93 l 1
 546 36 l 1
 559 36 l 2
 572 36 580 29 580 18 c 0
 580 7 572 0 559 0 c 2
 474 0 l 2
 461 0 453 7 453 18 c 0
510 129 m 1
 510 309 l 1
 508 309 l 1
 401 129 l 1
 510 129 l 1
EndSplineSet
Validated: 3073
EndChar

StartChar: questiondown
Encoding: 191 191 126
Width: 600
Flags: MW
LayerCount: 2
Fore
SplineSet
466 -126 m 1
 369 -174 321 -175 291 -175 c 0
 185 -175 113 -113 113 -21 c 0
 113 53 153 96 278 155 c 1
 278 196 l 2
 278 214 285 223 298 223 c 0
 312 223 319 214 319 196 c 2
 319 128 l 1
 203 80 154 36 154 -21 c 0
 154 -87 213 -134 296 -134 c 0
 341 -134 372 -126 425 -100 c 1
 425 -59 l 2
 425 -41 432 -32 445 -32 c 0
 459 -32 466 -41 466 -59 c 2
 466 -126 l 1
313 317 m 2
 286 317 l 2
 252 317 229 338 229 367 c 0
 229 396 252 417 286 417 c 2
 313 417 l 2
 347 417 370 397 370 367 c 0
 370 337 347 317 313 317 c 2
EndSplineSet
Validated: 3073
EndChar

StartChar: AE
Encoding: 198 198 133
Width: 600
Flags: MW
LayerCount: 2
Fore
SplineSet
297 189 m 1
 156 189 l 1
 115 41 l 1
 141 41 l 2
 159 41 168 34 168 21 c 0
 168 7 159 0 141 0 c 2
 37 0 l 2
 19 0 10 7 10 21 c 0
 10 34 19 41 37 41 c 2
 74 41 l 1
 207 522 l 1
 144 522 l 2
 126 522 117 529 117 543 c 0
 117 556 126 563 144 563 c 2
 570 563 l 1
 570 411 l 2
 570 393 563 384 549 384 c 0
 536 384 529 393 529 411 c 2
 529 522 l 1
 338 522 l 1
 338 314 l 1
 416 314 l 1
 416 342 l 2
 416 360 423 369 436 369 c 0
 450 369 456 360 456 342 c 2
 456 246 l 2
 456 228 449 219 436 219 c 0
 423 219 416 229 416 246 c 2
 416 273 l 1
 338 273 l 1
 338 41 l 1
 549 41 l 1
 549 134 l 2
 549 153 555 160 569 160 c 0
 582 160 590 149 590 134 c 2
 590 0 l 1
 245 0 l 2
 227 0 218 7 218 21 c 0
 218 34 227 41 245 41 c 2
 297 41 l 1
 297 189 l 1
297 230 m 1
 297 522 l 1
 247 522 l 1
 167 230 l 1
 297 230 l 1
EndSplineSet
Validated: 3073
EndChar

StartChar: Ccedilla
Encoding: 199 199 134
Width: 600
Flags: MW
LayerCount: 2
Fore
SplineSet
63 325 m 2
 63 378 105 576 305 576 c 0
 371 576 431 552 478 507 c 1
 478 536 l 2
 478 554 485 563 499 563 c 0
 512 563 519 554 519 536 c 2
 519 424 l 2
 519 406 512 397 498 397 c 0
 486 397 479 405 478 421 c 0
 474 482 394 535 305 535 c 0
 194 535 104 438 104 319 c 2
 104 248 l 2
 104 128 204 25 322 25 c 0
 391 25 442 51 496 115 c 0
 503 123 507 125 514 125 c 0
 526 125 534 117 534 106 c 0
 534 96 522 79 496 55 c 0
 450 12 385 -16 330 -16 c 2
 317 -16 l 1
 317 -47 l 1
 358 -48 382 -70 382 -108 c 0
 382 -147 350 -173 303 -173 c 0
 275 -173 215 -158 215 -133 c 0
 215 -122 224 -114 235 -114 c 0
 247 -114 270 -135 301 -135 c 0
 327 -135 345 -123 345 -106 c 0
 345 -89 330 -81 299 -81 c 2
 279 -81 l 1
 279 -12 l 1
 121 27 63 155 63 242 c 2
 63 325 l 2
EndSplineSet
Validated: 3073
EndChar

StartChar: Eth
Encoding: 208 208 143
Width: 600
Flags: MW
LayerCount: 2
Fore
SplineSet
104 272 m 1
 27 272 l 2
 9 272 0 279 0 293 c 0
 0 306 9 313 27 313 c 2
 104 313 l 1
 104 522 l 1
 70 522 l 2
 52 522 43 529 43 543 c 0
 43 556 52 563 70 563 c 2
 290 563 l 2
 416 563 520 448 520 310 c 2
 520 254 l 2
 520 115 416 0 290 0 c 2
 70 0 l 2
 52 0 43 7 43 21 c 0
 43 34 52 41 70 41 c 2
 104 41 l 1
 104 272 l 1
479 319 m 2
 479 360 441 522 288 522 c 2
 145 522 l 1
 145 313 l 1
 307 313 l 2
 325 313 334 306 334 293 c 0
 334 279 325 272 307 272 c 2
 145 272 l 1
 145 41 l 1
 295 41 l 2
 389 41 479 140 479 245 c 2
 479 319 l 2
EndSplineSet
Validated: 3073
EndChar

StartChar: multiply
Encoding: 215 215 150
Width: 600
Flags: MW
LayerCount: 2
Fore
SplineSet
300 311 m 1
 442 453 l 2
 451 462 455 464 461 464 c 0
 472 464 482 455 482 443 c 0
 482 437 479 432 471 424 c 2
 329 282 l 1
 471 139 l 1
 480 131 482 127 482 120 c 0
 482 109 473 100 461 100 c 0
 455 100 450 102 442 110 c 2
 300 253 l 1
 158 110 l 1
 150 103 145 100 139 100 c 0
 127 100 118 109 118 120 c 0
 118 127 121 132 128 139 c 2
 271 282 l 1
 128 424 l 1
 121 432 118 437 118 443 c 0
 118 455 127 464 139 464 c 0
 145 464 149 461 157 453 c 2
 300 311 l 1
EndSplineSet
Validated: 3073
EndChar

StartChar: Oslash
Encoding: 216 216 151
Width: 600
Flags: MW
LayerCount: 2
Fore
SplineSet
141 51 m 1
 76 -31 l 2
 69 -40 64 -43 58 -43 c 0
 48 -43 40 -35 40 -25 c 0
 40 -21 41 -18 48 -9 c 2
 117 78 l 1
 72 138 51 204 51 280 c 0
 51 446 161 576 300 576 c 0
 360 576 409 555 458 510 c 1
 524 593 l 2
 531 602 535 605 542 605 c 0
 552 605 560 597 560 587 c 0
 560 582 558 579 552 571 c 2
 482 483 l 1
 525 430 549 356 549 280 c 0
 549 115 439 -16 300 -16 c 0
 240 -16 186 7 141 51 c 1
144 112 m 1
 432 476 l 1
 392 516 349 535 300 535 c 0
 185 535 92 420 92 280 c 0
 92 218 109 164 144 112 c 1
456 449 m 1
 167 84 l 1
 206 45 251 25 300 25 c 0
 414 25 508 140 508 280 c 0
 508 343 490 400 456 449 c 1
EndSplineSet
Validated: 3073
EndChar

StartChar: Thorn
Encoding: 222 222 157
Width: 600
Flags: HMW
LayerCount: 2
Fore
SplineSet
165 111 m 1
 165 41 l 1
 303 41 l 2
 322 41 331 34 331 21 c 0
 331 7 321 0 303 0 c 2
 70 0 l 2
 52 0 43 7 43 21 c 0
 43 34 52 41 70 41 c 2
 124 41 l 1
 124 522 l 1
 70 522 l 2
 52 522 43 529 43 543 c 0
 43 556 52 563 70 563 c 2
 303 563 l 2
 322 563 331 556 331 543 c 0
 331 529 322 522 303 522 c 2
 165 522 l 1
 165 443 l 1
 310 443 l 2
 416 443 499 371 499 278 c 0
 499 185 410 111 296 111 c 2
 165 111 l 1
165 152 m 1
 299 152 l 2
 386 152 458 209 458 278 c 0
 458 346 393 402 314 402 c 2
 165 402 l 1
 165 152 l 1
EndSplineSet
Validated: 3073
EndChar

StartChar: germandbls
Encoding: 223 223 158
Width: 600
Flags: MW
LayerCount: 2
Fore
SplineSet
458 162 m 0
 458 299 320 334 279 334 c 2
 274 334 l 2
 256 334 247 341 247 355 c 0
 247 367 256 375 270 375 c 2
 275 375 l 2
 326 375 371 415 371 459 c 0
 371 516 324 563 266 563 c 0
 210 563 165 525 165 476 c 2
 165 41 l 1
 180 41 l 2
 198 41 207 34 207 21 c 0
 207 7 198 0 180 0 c 2
 70 0 l 2
 52 0 43 7 43 21 c 0
 43 34 52 41 70 41 c 2
 124 41 l 1
 124 476 l 2
 124 547 188 604 266 604 c 0
 347 604 412 539 412 458 c 0
 412 417 394 386 354 359 c 1
 450 320 499 253 499 161 c 0
 499 60 441 -16 365 -16 c 0
 305 -16 259 35 259 101 c 0
 259 115 267 124 279 124 c 0
 314 124 285 25 365 25 c 0
 417 25 458 85 458 162 c 0
EndSplineSet
Validated: 3073
EndChar

StartChar: ae
Encoding: 230 230 165
Width: 600
Flags: MW
LayerCount: 2
Fore
SplineSet
71 378 m 0
 71 410 170 431 199 431 c 0
 248 431 293 398 312 347 c 1
 336 399 382 431 430 431 c 0
 533 431 574 332 577 199 c 1
 319 199 l 1
 326 97 379 25 446 25 c 0
 503 25 536 87 558 87 c 0
 569 87 578 77 578 67 c 0
 578 48 504 -16 444 -16 c 0
 398 -16 352 12 320 61 c 1
 320 27 l 2
 320 9 313 0 300 0 c 0
 287 0 280 9 280 27 c 2
 280 52 l 1
 241 5 204 -16 160 -16 c 0
 75 -16 12 47 12 132 c 0
 12 205 95 257 195 257 c 0
 223 257 251 253 280 245 c 1
 280 305 l 2
 280 352 241 390 192 390 c 0
 131 390 109 358 90 358 c 0
 81 358 71 369 71 378 c 0
280 110 m 1
 280 203 l 1
 253 211 224 216 201 216 c 0
 158 216 100 197 78 176 c 0
 64 162 57 145 57 121 c 0
 57 65 101 25 162 25 c 0
 199 25 233 50 280 110 c 1
535 240 m 1
 528 296 514 390 429 390 c 0
 369 390 333 340 320 240 c 1
 535 240 l 1
EndSplineSet
Validated: 3073
EndChar

StartChar: ccedilla
Encoding: 231 231 166
Width: 600
Flags: MW
LayerCount: 2
Fore
SplineSet
535 88 m 0
 535 67 465 -8 315 -16 c 1
 315 -47 l 1
 356 -48 380 -70 380 -108 c 0
 380 -147 348 -173 301 -173 c 0
 271 -173 213 -156 213 -134 c 0
 213 -123 222 -114 233 -114 c 0
 246 -114 268 -135 299 -135 c 0
 325 -135 343 -123 343 -106 c 0
 343 -89 328 -81 298 -81 c 2
 277 -81 l 1
 277 -14 l 1
 101 11 84 158 84 204 c 0
 84 336 180 431 314 431 c 0
 376 431 429 412 470 376 c 1
 470 389 l 2
 470 408 477 417 491 417 c 0
 504 417 511 408 511 389 c 2
 511 298 l 2
 511 280 504 271 491 271 c 0
 478 271 471 278 470 295 c 0
 465 348 395 390 311 390 c 0
 201 390 125 315 125 205 c 0
 125 100 202 25 311 25 c 0
 384 25 446 49 498 97 c 0
 506 105 509 107 516 107 c 0
 526 107 535 98 535 88 c 0
EndSplineSet
Validated: 3073
EndChar

StartChar: eth
Encoding: 240 240 175
Width: 600
Flags: MW
LayerCount: 2
Fore
SplineSet
277 549 m 1
 183 589 159 575 159 598 c 0
 159 611 168 620 180 620 c 0
 207 620 269 600 328 572 c 1
 423 614 l 1
 430 615 l 2
 440 615 449 606 449 594 c 0
 449 586 445 579 440 577 c 2
 365 543 l 1
 465 457 528 331 528 221 c 0
 528 72 424 -17 300 -17 c 0
 173 -17 72 82 72 207 c 0
 72 330 173 430 298 430 c 0
 353 430 390 416 444 377 c 1
 410 441 365 495 323 525 c 1
 232 483 l 2
 230 482 228 482 225 482 c 0
 215 482 205 493 205 505 c 0
 205 512 208 519 214 521 c 2
 277 549 l 1
301 390 m 0
 197 390 114 309 114 208 c 0
 114 106 197 25 301 25 c 0
 404 25 488 106 488 205 c 0
 488 310 406 390 301 390 c 0
EndSplineSet
Validated: 3073
EndChar

StartChar: divide
Encoding: 247 247 182
Width: 600
Flags: MW
LayerCount: 2
Fore
SplineSet
501 262 m 2
 99 262 l 2
 81 262 72 269 72 282 c 0
 72 295 81 302 99 302 c 2
 501 302 l 2
 519 302 528 295 528 282 c 0
 528 269 519 262 501 262 c 2
300 124 m 0
 328 124 350 102 350 74 c 0
 350 47 327 25 300 25 c 0
 273 25 251 47 251 75 c 0
 251 101 273 124 300 124 c 0
300 540 m 0
 328 540 350 518 350 490 c 0
 350 463 327 441 300 441 c 0
 273 441 251 463 251 491 c 0
 251 517 273 540 300 540 c 0
EndSplineSet
Validated: 3073
EndChar

StartChar: oslash
Encoding: 248 248 183
Width: 600
Flags: MW
LayerCount: 2
Fore
SplineSet
154 35 m 1
 88 -33 l 2
 80 -41 76 -43 71 -43 c 0
 61 -43 53 -35 53 -25 c 0
 53 -20 55 -16 63 -8 c 2
 129 59 l 1
 92 102 72 153 72 208 c 0
 72 332 173 431 300 431 c 0
 354 431 402 415 444 382 c 1
 508 448 l 1
 517 456 520 458 526 458 c 0
 535 458 543 450 543 440 c 0
 543 435 541 431 533 423 c 2
 469 358 l 1
 508 315 528 264 528 207 c 0
 528 83 427 -16 300 -16 c 0
 245 -16 198 1 154 35 c 1
441 329 m 1
 183 65 l 1
 216 39 256 25 300 25 c 0
 404 25 487 106 487 207 c 0
 487 253 471 294 441 329 c 1
158 89 m 1
 415 352 l 1
 382 377 343 390 300 390 c 0
 196 390 113 309 113 208 c 0
 113 164 129 122 158 89 c 1
EndSplineSet
Validated: 3073
EndChar

StartChar: thorn
Encoding: 254 254 189
Width: 600
Flags: MW
LayerCount: 2
Fore
SplineSet
144 590 m 1
 144 335 l 1
 197 404 247 431 323 431 c 0
 447 431 541 340 541 221 c 0
 541 102 446 10 323 10 c 0
 246 10 190 40 144 106 c 1
 144 -145 l 1
 242 -145 l 2
 260 -145 269 -152 269 -165 c 0
 269 -179 260 -186 242 -186 c 2
 49 -186 l 2
 31 -186 22 -179 22 -165 c 0
 22 -152 31 -145 49 -145 c 2
 103 -145 l 1
 103 549 l 1
 49 549 l 2
 31 549 22 556 22 570 c 0
 22 583 31 590 49 590 c 2
 144 590 l 1
322 390 m 0
 223 390 144 315 144 221 c 0
 144 126 223 51 322 51 c 0
 420 51 500 126 500 219 c 0
 500 316 423 390 322 390 c 0
EndSplineSet
Validated: 3073
EndChar

StartChar: Aogonek
Encoding: 260 260 195
Width: 600
Flags: MW
LayerCount: 2
Fore
SplineSet
530 -123 m 0
 567 -123 575 -104 587 -104 c 0
 594 -104 601 -111 601 -119 c 0
 601 -136 562 -155 524 -155 c 0
 476 -155 448 -132 448 -94 c 0
 448 -53 470 -26 525 0 c 1
 408 0 l 2
 390 0 381 7 381 21 c 0
 381 34 390 41 408 41 c 2
 484 41 l 1
 428 188 l 1
 162 188 l 1
 108 41 l 1
 187 41 l 2
 205 41 214 34 214 21 c 0
 214 7 205 0 187 0 c 2
 36 0 l 2
 18 0 9 7 9 21 c 0
 9 34 18 41 36 41 c 2
 67 41 l 1
 246 522 l 1
 126 522 l 2
 108 522 99 529 99 543 c 0
 99 556 108 563 126 563 c 2
 330 563 l 1
 527 41 l 1
 564 41 l 2
 582 41 591 34 591 21 c 0
 591 7 582 0 564 0 c 1
 572 0 l 1
 545 -15 l 2
 508 -36 487 -62 487 -89 c 0
 487 -112 501 -123 530 -123 c 0
413 229 m 1
 301 522 l 1
 286 522 l 1
 178 229 l 1
 413 229 l 1
EndSplineSet
Validated: 3073
EndChar

StartChar: aogonek
Encoding: 261 261 196
Width: 600
Flags: MW
LayerCount: 2
Fore
SplineSet
125 378 m 0
 125 411 266 431 299 431 c 0
 392 431 460 379 460 308 c 2
 460 41 l 1
 514 41 l 2
 532 41 541 34 541 21 c 0
 541 -6 442 -27 442 -89 c 0
 442 -112 457 -123 485 -123 c 0
 522 -123 530 -104 542 -104 c 0
 549 -104 556 -111 556 -119 c 0
 556 -136 517 -155 479 -155 c 0
 431 -155 403 -132 403 -94 c 0
 403 -52 424 -27 480 0 c 1
 419 0 l 1
 419 67 l 1
 358 10 298 -16 228 -16 c 0
 135 -16 72 36 72 112 c 0
 72 199 158 258 283 258 c 0
 329 258 360 253 419 237 c 1
 419 308 l 2
 419 357 369 390 296 390 c 0
 216 390 173 358 144 358 c 0
 134 358 125 367 125 378 c 0
419 112 m 1
 419 202 l 1
 383 211 335 217 291 217 c 0
 185 217 113 174 113 111 c 0
 113 59 158 25 227 25 c 0
 298 25 352 49 419 112 c 1
EndSplineSet
Validated: 3073
EndChar

StartChar: dcroat
Encoding: 273 273 208
Width: 600
Flags: MW
LayerCount: 2
Fore
SplineSet
502 520 m 1
 556 520 l 2
 574 520 583 513 583 500 c 0
 583 486 574 479 556 479 c 2
 502 479 l 1
 502 41 l 1
 556 41 l 2
 574 41 583 34 583 21 c 0
 583 7 574 0 556 0 c 2
 461 0 l 1
 461 81 l 1
 414 16 354 -16 280 -16 c 0
 160 -16 63 84 63 208 c 0
 63 331 160 431 280 431 c 0
 354 431 412 400 461 335 c 1
 461 479 l 1
 323 479 l 2
 305 479 296 486 296 500 c 0
 296 513 305 520 323 520 c 2
 461 520 l 1
 461 563 l 1
 407 563 l 2
 389 563 380 570 380 584 c 0
 380 597 389 604 407 604 c 2
 502 604 l 1
 502 520 l 1
282 390 m 0
 183 390 104 309 104 208 c 0
 104 106 183 25 283 25 c 0
 381 25 461 106 461 205 c 0
 461 310 383 390 282 390 c 0
EndSplineSet
Validated: 3073
EndChar

StartChar: Eogonek
Encoding: 280 280 215
Width: 600
Flags: MW
LayerCount: 2
Fore
SplineSet
477 -123 m 0
 514 -123 522 -104 534 -104 c 0
 541 -104 548 -111 548 -119 c 0
 548 -136 509 -155 471 -155 c 0
 423 -155 395 -132 395 -94 c 0
 395 -53 417 -26 472 0 c 1
 70 0 l 2
 52 0 43 7 43 21 c 0
 43 34 52 41 70 41 c 2
 124 41 l 1
 124 522 l 1
 70 522 l 2
 52 522 43 529 43 543 c 0
 43 556 52 563 70 563 c 2
 499 563 l 1
 499 424 l 2
 499 406 492 397 478 397 c 0
 465 397 458 406 458 424 c 2
 458 522 l 1
 165 522 l 1
 165 313 l 1
 310 313 l 1
 310 358 l 2
 310 376 317 385 331 385 c 0
 344 385 351 376 351 358 c 2
 351 227 l 2
 351 209 344 200 331 200 c 0
 317 200 310 209 310 227 c 2
 310 272 l 1
 165 272 l 1
 165 41 l 1
 479 41 l 1
 479 160 l 2
 479 178 486 187 500 187 c 0
 513 187 520 178 520 160 c 2
 520 0 l 1
 492 -15 l 2
 454.499 -35.0898 434 -62 434 -89 c 0
 434 -112 448 -123 477 -123 c 0
EndSplineSet
Validated: 3073
EndChar

StartChar: eogonek
Encoding: 281 281 216
Width: 600
Flags: MW
LayerCount: 2
Fore
SplineSet
389 -123 m 0
 426 -123 434 -104 446 -104 c 0
 453 -104 460 -111 460 -119 c 0
 460 -136 421 -155 383 -155 c 0
 335 -155 307 -132 307 -94 c 0
 307 -60 325 -33 361 -11 c 1
 337 -15 323 -16 306 -16 c 0
 170 -16 63 86 63 217 c 0
 63 338 163 431 291 431 c 0
 424 431 520 340 520 199 c 1
 104 199 l 1
 118 94 198 25 306 25 c 0
 368 25 441 47 481 79 c 0
 488 84 492 86 497 86 c 0
 507 86 516 77 516 66 c 0
 516 30 346 -20 346 -89 c 0
 346 -112 360 -123 389 -123 c 0
104 240 m 1
 478 240 l 1
 462 331 388 390 291 390 c 0
 194 390 122 332 104 240 c 1
EndSplineSet
Validated: 3073
EndChar

StartChar: Hbar
Encoding: 294 294 229
Width: 600
Flags: MW
LayerCount: 2
Fore
SplineSet
478 421 m 1
 503 421 l 2
 521 421 530 414 530 401 c 0
 530 388 521 381 503 381 c 2
 478 381 l 1
 478 41 l 1
 524 41 l 2
 542 41 551 34 551 21 c 0
 551 7 541 0 524 0 c 2
 383 0 l 2
 365 0 356 7 356 21 c 0
 356 34 365 41 383 41 c 2
 437 41 l 1
 437 272 l 1
 167 272 l 1
 167 41 l 1
 221 41 l 2
 239 41 248 34 248 21 c 0
 248 7 239 0 221 0 c 2
 81 0 l 2
 63 0 53 7 53 21 c 0
 53 34 62 41 81 41 c 2
 126 41 l 1
 126 381 l 1
 101 381 l 2
 83 381 74 388 74 401 c 0
 74 414 83 421 101 421 c 2
 126 421 l 1
 126 522 l 1
 101 522 l 2
 83 522 74 529 74 543 c 0
 74 556 83 563 101 563 c 2
 221 563 l 2
 239 563 248 556 248 543 c 0
 248 529 239 522 221 522 c 2
 167 522 l 1
 167 421 l 1
 437 421 l 1
 437 522 l 1
 383 522 l 2
 365 522 356 529 356 543 c 0
 356 556 365 563 383 563 c 2
 503 563 l 2
 521 563 530 556 530 543 c 0
 530 529 521 522 503 522 c 2
 478 522 l 1
 478 421 l 1
437 381 m 1
 167 381 l 1
 167 313 l 1
 437 313 l 1
 437 381 l 1
EndSplineSet
Validated: 3073
EndChar

StartChar: hbar
Encoding: 295 295 230
Width: 600
Flags: MW
LayerCount: 2
Fore
SplineSet
437 288 m 2
 437 348 388 390 314 390 c 0
 258 390 230 373 176 309 c 2
 165 296 l 1
 165 41 l 1
 210 41 l 2
 229 41 238 34 238 21 c 0
 238 7 228 0 210 0 c 2
 78 0 l 2
 61 0 51 7 51 21 c 0
 51 34 60 41 78 41 c 2
 124 41 l 1
 124 469 l 1
 70 469 l 2
 52 469 43 476 43 489 c 0
 43 502 52 509 70 509 c 2
 124 509 l 1
 124 563 l 1
 70 563 l 2
 52 563 43 570 43 584 c 0
 43 597 52 604 70 604 c 2
 165 604 l 1
 165 509 l 1
 306 509 l 2
 324 509 333 502 333 489 c 0
 333 476 324 469 306 469 c 2
 165 469 l 1
 165 347 l 1
 216 408 258 431 319 431 c 0
 412 431 478 372 478 291 c 2
 478 41 l 1
 523 41 l 2
 542 41 551 34 551 21 c 0
 551 7 542 0 523 0 c 2
 392 0 l 2
 374 0 365 7 365 21 c 0
 365 34 374 41 392 41 c 2
 437 41 l 1
 437 288 l 2
EndSplineSet
Validated: 3073
EndChar

StartChar: Iogonek
Encoding: 302 302 237
Width: 600
Flags: MW
LayerCount: 2
Fore
SplineSet
429 -123 m 0
 466 -123 474 -104 486 -104 c 0
 493 -104 500 -111 500 -119 c 0
 500 -136 461 -155 423 -155 c 0
 375 -155 347 -132 347 -94 c 0
 347 -52 368 -27 424 0 c 1
 140 0 l 2
 122 0 113 7 113 21 c 0
 113 34 122 41 140 41 c 2
 279 41 l 1
 279 522 l 1
 140 522 l 2
 122 522 113 529 113 543 c 0
 113 556 122 563 140 563 c 2
 459 563 l 2
 478 563 487 556 487 543 c 0
 487 529 478 522 459 522 c 2
 320 522 l 1
 320 41 l 1
 459 41 l 2
 478 41 487 34 487 21 c 0
 487 -6 386 -25 386 -89 c 0
 386 -112 400 -123 429 -123 c 0
EndSplineSet
Validated: 3073
EndChar

StartChar: iogonek
Encoding: 303 303 238
Width: 600
Flags: MW
LayerCount: 2
Fore
SplineSet
449 -123 m 0
 486 -123 494 -104 506 -104 c 0
 513 -104 520 -111 520 -119 c 0
 520 -136 481 -155 443 -155 c 0
 395 -155 367 -132 367 -94 c 0
 367 -52 388 -27 444 0 c 1
 119 0 l 2
 101 0 92 7 92 21 c 0
 92 34 101 41 119 41 c 2
 279 41 l 1
 279 376 l 1
 161 376 l 2
 143 376 134 383 134 397 c 0
 134 410 143 417 161 417 c 2
 320 417 l 1
 320 41 l 1
 480 41 l 2
 499 41 508 34 508 21 c 0
 508 -9 406 -22 406 -89 c 0
 406 -112 420 -123 449 -123 c 0
318 624 m 1
 318 520 l 1
 259 520 l 1
 259 624 l 1
 318 624 l 1
EndSplineSet
Validated: 3073
EndChar

StartChar: dotlessi
Encoding: 305 305 240
Width: 600
Flags: MW
AnchorPoint: "above" 294 431 basechar 0
LayerCount: 2
Fore
SplineSet
320 417 m 5
 320 41 l 5
 480 41 l 6
 499 41 508 34 508 21 c 4
 508 7 498 0 480 0 c 6
 119 0 l 6
 101 0 92 7 92 21 c 4
 92 34 101 41 119 41 c 6
 279 41 l 5
 279 376 l 5
 161 376 l 6
 143 376 134 383 134 397 c 4
 134 410 143 417 161 417 c 6
 320 417 l 5
EndSplineSet
Validated: 3073
EndChar

StartChar: IJ
Encoding: 306 306 241
Width: 600
Flags: MW
LayerCount: 2
Fore
SplineSet
494 522 m 1
 494 165 l 2
 494 66 454 -16 351 -16 c 0
 287 -16 251 12 210 74 c 1
 210 223 l 2
 210 241 217 250 231 250 c 0
 244 250 251 241 251 223 c 2
 251 93 l 1
 283 38 302 25 352 25 c 0
 433 25 453 87 453 165 c 2
 453 522 l 1
 358 522 l 2
 340 522 331 529 331 543 c 0
 331 556 340 563 358 563 c 2
 544 563 l 2
 562 563 571 556 571 543 c 0
 571 529 562 522 544 522 c 2
 494 522 l 1
141 522 m 1
 141 41 l 1
 185 41 l 2
 204 41 213 34 213 21 c 0
 213 7 203 0 185 0 c 2
 56 0 l 2
 38 0 29 7 29 21 c 0
 29 34 38 41 56 41 c 2
 100 41 l 1
 100 522 l 1
 56 522 l 2
 38 522 29 529 29 543 c 0
 29 556 38 563 56 563 c 2
 185 563 l 2
 204 563 213 556 213 543 c 0
 213 529 204 522 185 522 c 2
 141 522 l 1
EndSplineSet
Validated: 3073
EndChar

StartChar: ij
Encoding: 307 307 242
Width: 600
Flags: MW
LayerCount: 2
Fore
SplineSet
435 376 m 1
 354 376 l 2
 336 376 327 383 327 397 c 0
 327 410 336 417 354 417 c 2
 476 417 l 1
 476 -28 l 2
 476 -121 412 -186 321 -186 c 2
 192 -186 l 2
 174 -186 165 -179 165 -165 c 0
 165 -152 174 -145 192 -145 c 2
 320 -145 l 2
 386 -145 435 -96 435 -28 c 2
 435 376 l 1
483 624 m 1
 483 520 l 1
 424 520 l 1
 424 624 l 1
 483 624 l 1
258 417 m 1
 258 41 l 1
 322 41 l 2
 341 41 350 34 350 21 c 0
 350 7 340 0 322 0 c 2
 151 0 l 2
 133 0 124 7 124 21 c 0
 124 34 133 41 151 41 c 2
 217 41 l 1
 217 376 l 1
 161 376 l 2
 143 376 134 383 134 397 c 0
 134 410 143 417 161 417 c 2
 258 417 l 1
269 624 m 1
 269 520 l 1
 210 520 l 1
 210 624 l 1
 269 624 l 1
EndSplineSet
Validated: 3073
EndChar

StartChar: kgreenlandic
Encoding: 312 312 247
Width: 600
Flags: HMW
LayerCount: 2
Fore
SplineSet
192 0 m 1
 97 0 l 2
 79 0 70 7 70 21 c 0
 70 34 79 41 97 41 c 2
 151 41 l 1
 151 376 l 1
 97 376 l 2
 79 376 70 383 70 397 c 0
 70 410 79 417 97 417 c 2
 192 417 l 1
 192 240 l 1
 365 376 l 1
 343 376 l 2
 325 376 316 383 316 397 c 0
 316 410 325 417 343 417 c 2
 473 417 l 2
 491 417 500 410 500 397 c 0
 500 383 491 376 473 376 c 2
 426 376 l 1
 223 217 l 1
 458 41 l 1
 503 41 l 2
 521 41 530 34 530 21 c 0
 530 7 521 0 503 0 c 2
 372 0 l 2
 354 0 345 7 345 21 c 0
 345 34 354 41 372 41 c 2
 400 41 l 1
 192 191 l 1
 192 0 l 1
EndSplineSet
Validated: 32769
EndChar

StartChar: Lslash
Encoding: 321 321 256
Width: 600
Flags: MW
LayerCount: 2
Fore
SplineSet
226 522 m 1
 226 310 l 1
 360 390 l 2
 365 392 373 395 377 395 c 0
 388 395 397 385 397 375 c 0
 397 366 393 362 380 355 c 2
 226 263 l 1
 226 41 l 1
 500 41 l 1
 500 202 l 2
 500 220 507 229 521 229 c 0
 534 229 541 220 541 202 c 2
 541 0 l 1
 89 0 l 2
 71 0 62 7 62 21 c 0
 62 34 71 41 89 41 c 2
 185 41 l 1
 185 246 l 1
 79 184 l 2
 73 180 66 178 62 178 c 0
 53 178 43 188 43 199 c 0
 43 207 47 212 59 219 c 2
 185 293 l 1
 185 522 l 1
 89 522 l 2
 71 522 62 529 62 543 c 0
 62 556 71 563 89 563 c 2
 322 563 l 2
 340 563 349 556 349 543 c 0
 349 529 340 522 322 522 c 2
 226 522 l 1
EndSplineSet
Validated: 3073
EndChar

StartChar: lslash
Encoding: 322 322 257
Width: 600
Flags: MW
LayerCount: 2
Fore
SplineSet
319 604 m 1
 319 343 l 1
 407 394 l 2
 414 398 419 400 424 400 c 0
 434 400 443 391 443 380 c 0
 443 370 439 366 427 359 c 2
 319 297 l 1
 319 41 l 1
 481 41 l 2
 499 41 508 34 508 21 c 0
 508 7 499 0 481 0 c 2
 119 0 l 2
 101 0 92 7 92 21 c 0
 92 34 101 41 119 41 c 2
 278 41 l 1
 278 280 l 1
 191 230 l 2
 182 225 180 224 174 224 c 0
 164 224 155 234 155 245 c 0
 155 254 159 259 171 266 c 2
 278 327 l 1
 278 563 l 1
 161 563 l 2
 143 563 134 570 134 584 c 0
 134 597 143 604 161 604 c 2
 319 604 l 1
EndSplineSet
Validated: 3073
EndChar

StartChar: Eng
Encoding: 330 330 265
Width: 600
Flags: MW
LayerCount: 2
Fore
SplineSet
285 -145 m 0
 298 -145 318 -158 355 -158 c 0
 416 -158 460 -110 460 -42 c 2
 460 0 l 1
 449 0 l 1
 144 504 l 1
 144 41 l 1
 219 41 l 2
 237 41 246 34 246 21 c 0
 246 7 236 0 219 0 c 2
 69 0 l 2
 51 0 42 7 42 21 c 0
 42 34 51 41 69 41 c 2
 103 41 l 1
 103 522 l 1
 49 522 l 2
 31 522 22 529 22 543 c 0
 22 556 31 563 49 563 c 2
 155 563 l 1
 460 59 l 1
 460 522 l 1
 386 522 l 2
 367 522 358 529 358 543 c 0
 358 556 367 563 386 563 c 2
 535 563 l 2
 553 563 562 556 562 543 c 0
 562 529 553 522 535 522 c 2
 501 522 l 1
 501 -48 l 1
 501 -132 436 -199 354 -199 c 0
 335 -199 267 -192 267 -165 c 0
 267 -154 275 -145 285 -145 c 0
EndSplineSet
Validated: 3073
EndChar

StartChar: eng
Encoding: 331 331 266
Width: 600
Flags: MW
LayerCount: 2
Fore
SplineSet
264 -145 m 0
 277 -145 297 -158 334 -158 c 0
 395 -158 439 -110 439 -42 c 0
 439 288 l 2
 439 344 394 390 319 390 c 0
 230 390 189 322 167 294 c 1
 167 41 l 1
 212 41 l 2
 230 41 239 34 239 21 c 0
 239 7 230 0 212 0 c 2
 81 0 l 2
 62 0 53 7 53 21 c 0
 53 34 62 41 81 41 c 2
 126 41 l 1
 126 376 l 1
 92 376 l 2
 74 376 65 383 65 397 c 0
 65 410 74 417 92 417 c 2
 167 417 l 1
 167 348 l 1
 225 412 261 431 323 431 c 0
 412 431 480 372 480 295 c 0
 480 -48 l 1
 480 -132 415 -199 333 -199 c 0
 314 -199 246 -192 246 -165 c 0
 246 -154 254 -145 264 -145 c 0
EndSplineSet
Validated: 3073
EndChar

StartChar: OE
Encoding: 338 338 273
Width: 600
Flags: MW
LayerCount: 2
Fore
SplineSet
338 272 m 1
 338 41 l 1
 549 41 l 1
 549 133 l 2
 549 153 555 160 569 160 c 0
 582 160 590 149 590 133 c 2
 590 0 l 1
 263 0 l 2
 111 0 10 112 10 282 c 0
 10 449 109 563 255 563 c 2
 570 563 l 1
 570 409 l 2
 570 391 563 382 550 382 c 0
 536 382 529 391 529 409 c 2
 529 522 l 1
 338 522 l 1
 338 313 l 1
 416 313 l 1
 416 340 l 2
 416 358 423 367 437 367 c 0
 450 367 457 358 457 340 c 2
 457 244 l 2
 457 226 450 217 437 217 c 0
 423 217 416 226 416 244 c 2
 416 272 l 1
 338 272 l 1
51 281 m 0
 51 182 94 41 265 41 c 2
 297 41 l 1
 297 522 l 1
 265 522 l 2
 94 522 51 382 51 281 c 0
EndSplineSet
Validated: 3073
EndChar

StartChar: oe
Encoding: 339 339 274
Width: 600
Flags: MW
LayerCount: 2
Fore
SplineSet
299 317 m 1
 332 401 378 431 431 431 c 0
 489 431 577 385 577 199 c 1
 319 199 l 1
 327 100 382 25 446 25 c 0
 503 25 536 87 558 87 c 0
 568 87 578 77 578 67 c 0
 578 48 504 -16 444 -16 c 0
 384 -16 329 30 299 103 c 1
 270 27 222 -16 166 -16 c 0
 83 -16 12 89 12 212 c 0
 12 330 82 431 165 431 c 0
 219 431 271 387 299 317 c 1
536 240 m 1
 529 295 515 390 429 390 c 0
 370 390 333 340 320 240 c 1
 536 240 l 1
166 390 m 0
 106 390 53 305 53 208 c 0
 53 111 106 25 167 25 c 0
 226 25 280 111 280 206 c 0
 280 305 228 390 166 390 c 0
EndSplineSet
Validated: 3073
EndChar

StartChar: Scedilla
Encoding: 350 350 285
Width: 600
Flags: MW
LayerCount: 2
Fore
SplineSet
159 420 m 0
 159 251 508 371 508 151 c 0
 508 57 429 -10 312 -16 c 1
 312 -47 l 1
 353 -48 377 -70 377 -108 c 0
 377 -147 345 -173 298 -173 c 0
 270 -173 210 -158 210 -133 c 0
 210 -122 219 -114 230 -114 c 0
 243 -114 265 -135 297 -135 c 0
 323 -135 341 -123 341 -106 c 0
 341 -89 326 -81 294 -81 c 2
 274 -81 l 1
 274 -15 l 1
 215 -8 164 18 133 56 c 1
 133 27 l 2
 133 9 126 0 112 0 c 0
 99 0 92 9 92 27 c 2
 92 139 l 2
 92 157 99 166 113 166 c 0
 126 166 132 158 133 142 c 0
 136 76 210 25 301 25 c 0
 395 25 464 79 464 153 c 0
 464 334 115 207 115 421 c 0
 115 509 194 576 299 576 c 0
 358 576 404 557 445 517 c 1
 445 536 l 2
 445 554 452 563 466 563 c 0
 479 563 486 554 486 536 c 2
 486 433 l 2
 486 415 479 406 466 406 c 0
 453 406 446 414 445 430 c 0
 441 490 380 535 302 535 c 0
 220 535 159 486 159 420 c 0
EndSplineSet
Validated: 3073
EndChar

StartChar: scedilla
Encoding: 351 351 286
Width: 600
Flags: MW
LayerCount: 2
Fore
SplineSet
452 117 m 0
 452 253 124 157 124 318 c 0
 124 383 197 431 294 431 c 0
 352 431 397 416 432 385 c 1
 432 389 l 2
 432 406 440 417 453 417 c 0
 466 417 473 408 473 389 c 2
 473 320 l 2
 473 302 466 293 453 293 c 0
 440 293 434 300 432 316 c 0
 428 360 374 390 299 390 c 0
 224 390 169 358 169 315 c 0
 169 228 352 268 447 206 c 0
 478 185 497 151 497 116 c 0
 497 42 423 -11 312 -16 c 1
 312 -47 l 1
 353 -48 377 -70 377 -108 c 0
 377 -147 345 -173 298 -173 c 0
 270 -173 210 -158 210 -133 c 0
 210 -122 219 -114 229 -114 c 0
 243 -114 264 -135 296 -135 c 0
 322 -135 340 -123 340 -106 c 0
 340 -89 325 -81 294 -81 c 2
 274 -81 l 1
 274 -15 l 1
 216 -9 176 7 144 38 c 1
 144 27 l 2
 144 9 137 0 124 0 c 0
 110 0 103 9 103 27 c 2
 103 110 l 2
 103 128 110 137 124 137 c 0
 136 137 144 128 144 115 c 2
 144 108 l 2
 144 62 213 25 298 25 c 0
 386 25 452 64 452 117 c 0
EndSplineSet
Validated: 3073
EndChar

StartChar: uni0162
Encoding: 354 354 289
Width: 600
Flags: M
LayerCount: 2
Fore
SplineSet
236 -114 m 0
 248 -114 271 -135 302 -135 c 0
 328 -135 346 -123 346 -106 c 0
 346 -89 331 -81 300 -81 c 2
 280 -81 l 1
 280 0 l 1
 175 0 l 2
 157 0 148 7 148 21 c 0
 148 34 157 41 175 41 c 2
 280 41 l 1
 280 522 l 1
 113 522 l 1
 113 449 l 2
 113 431 106 422 92 422 c 0
 79 422 72 431 72 449 c 2
 72 563 l 1
 528 563 l 1
 528 449 l 2
 528 430 522 422 508 422 c 0
 496 422 487 433 487 449 c 2
 487 522 l 1
 321 522 l 1
 321 41 l 1
 426 41 l 2
 444 41 453 34 453 21 c 0
 453 7 444 0 426 0 c 2
 318 0 l 1
 318 -47 l 1
 359 -48 383 -70 383 -108 c 0
 383 -147 351 -173 304 -173 c 0
 276 -173 216 -158 216 -133 c 0
 216 -122 225 -114 236 -114 c 0
EndSplineSet
Validated: 3073
EndChar

StartChar: Tbar
Encoding: 358 358 293
Width: 600
Flags: MW
LayerCount: 2
Fore
SplineSet
321 337 m 1
 420 337 l 2
 438 337 447 330 447 317 c 0
 447 304 438 297 420 297 c 2
 321 297 l 1
 321 41 l 1
 426 41 l 2
 444 41 453 34 453 21 c 0
 453 7 444 0 426 0 c 2
 175 0 l 2
 157 0 148 7 148 21 c 0
 148 34 157 41 175 41 c 2
 280 41 l 1
 280 297 l 1
 184 297 l 2
 166 297 157 304 157 317 c 0
 157 330 166 337 184 337 c 2
 280 337 l 1
 280 522 l 1
 113 522 l 1
 113 449 l 2
 113 431 106 422 92 422 c 0
 79 422 72 431 72 449 c 2
 72 563 l 1
 528 563 l 1
 528 449 l 2
 528 430 522 422 508 422 c 0
 496 422 487 433 487 449 c 2
 487 522 l 1
 321 522 l 1
 321 337 l 1
EndSplineSet
Validated: 3073
EndChar

StartChar: tbar
Encoding: 359 359 294
Width: 600
Flags: MW
LayerCount: 2
Fore
SplineSet
145 275 m 1
 145 376 l 1
 71 376 l 2
 52 376 43 383 43 397 c 0
 43 410 52 417 71 417 c 2
 145 417 l 1
 145 536 l 2
 145 554 152 563 166 563 c 0
 180 563 186 555 186 536 c 2
 186 417 l 1
 406 417 l 2
 424 417 433 410 433 397 c 0
 433 383 424 376 406 376 c 2
 186 376 l 1
 186 275 l 1
 406 275 l 2
 424 275 433 268 433 255 c 0
 433 242 424 235 406 235 c 2
 186 235 l 1
 186 109 l 2
 186 58 229 25 298 25 c 0
 354 25 425 42 464 65 c 0
 472 70 475 71 480 71 c 0
 490 71 499 61 499 51 c 0
 499 22 385 -16 300 -16 c 0
 206 -16 145 32 145 107 c 2
 145 235 l 1
 70 235 l 2
 52 235 43 242 43 255 c 0
 43 268 52 275 70 275 c 2
 145 275 l 1
EndSplineSet
Validated: 3073
EndChar

StartChar: Uogonek
Encoding: 370 370 305
Width: 600
Flags: MW
LayerCount: 2
Fore
SplineSet
383 -123 m 0
 418 -123 428 -104 439 -104 c 0
 446 -104 453 -111 453 -119 c 0
 453 -136 414 -155 376 -155 c 0
 329 -155 300 -132 300 -94 c 0
 300 -58 317 -34 360 -8 c 1
 331 -14 318 -16 299 -16 c 0
 187 -16 101 71 101 185 c 2
 101 522 l 1
 67 522 l 2
 49 522 40 529 40 543 c 0
 40 557 49 563 67 563 c 2
 216 563 l 2
 234 563 243 556 243 543 c 0
 243 529 234 522 216 522 c 2
 142 522 l 1
 142 185 l 2
 142 95 211 25 300 25 c 0
 388 25 458 95 458 185 c 2
 458 522 l 1
 384 522 l 2
 366 522 357 529 357 543 c 0
 357 557 365 563 384 563 c 2
 533 563 l 2
 552 563 560 557 560 543 c 0
 560 529 551 522 533 522 c 2
 499 522 l 1
 499 185 l 2
 499 21 339 0 339 -89 c 0
 339 -112 354 -123 383 -123 c 0
EndSplineSet
Validated: 3073
EndChar

StartChar: uogonek
Encoding: 371 371 306
Width: 600
Flags: MW
LayerCount: 2
Fore
SplineSet
485 -123 m 0
 522 -123 530 -104 542 -104 c 0
 549 -104 556 -111 556 -119 c 0
 556 -136 517 -155 479 -155 c 0
 431 -155 403 -132 403 -94 c 0
 403 -52 424 -27 480 0 c 1
 439 0 l 1
 439 66 l 1
 384 12 323 -16 257 -16 c 0
 177 -16 124 36 124 115 c 2
 124 376 l 1
 70 376 l 2
 52 376 43 383 43 397 c 0
 43 410 52 417 70 417 c 2
 165 417 l 1
 165 115 l 2
 165 65 205 25 256 25 c 0
 323 25 384 55 439 115 c 1
 439 376 l 1
 365 376 l 2
 346 376 337 383 337 397 c 0
 337 410 346 417 365 417 c 2
 480 417 l 1
 480 41 l 1
 514 41 l 2
 532 41 541 34 541 21 c 0
 541 -6 442 -26 442 -89 c 0
 442 -112 457 -123 485 -123 c 0
EndSplineSet
Validated: 3073
EndChar

StartChar: longs
Encoding: 383 383 318
Width: 600
Flags: MW
LayerCount: 2
Fore
SplineSet
520 551 m 0
 511 551 439 563 382 563 c 0
 316 563 271 528 271 478 c 2
 271 41 l 1
 449 41 l 2
 467 41 476 34 476 21 c 0
 476 7 466 0 449 0 c 2
 132 0 l 2
 114 0 105 7 105 21 c 0
 105 34 114 41 132 41 c 2
 230 41 l 1
 230 376 l 1
 142 376 l 2
 124 376 115 383 115 397 c 0
 115 410 124 417 142 417 c 2
 230 417 l 1
 230 478 l 2
 230 551 294 604 384 604 c 0
 422 604 491 597 523 591 c 0
 535 588 541 581 541 571 c 0
 541 559 532 551 520 551 c 0
EndSplineSet
Validated: 3073
EndChar

StartChar: uni0180
Encoding: 384 384 319
Width: 600
Flags: MW
LayerCount: 2
Fore
SplineSet
322 390 m 0
 223 390 144 309 144 208 c 0
 144 107 223 25 322 25 c 0
 419 25 500 107 500 205 c 0
 500 309 422 390 322 390 c 0
103 520 m 1
 103 563 l 1
 49 563 l 2
 31 563 22 570 22 584 c 0
 22 597 31 604 49 604 c 2
 144 604 l 1
 144 520 l 1
 282 520 l 1
 300 520 309 513 309 500 c 0
 309 486 300 479 282 479 c 0
 144 479 l 1
 144 328 l 1
 194 399 250 431 324 431 c 0
 446 431 541 334 541 210 c 0
 541 85 444 -16 324 -16 c 0
 251 -16 191 18 144 88 c 1
 144 0 l 1
 49 0 l 2
 31 0 22 7 22 21 c 0
 22 34 31 41 49 41 c 2
 103 41 l 1
 103 479 l 1
 49 479 l 1
 31 479 22 486 22 500 c 0
 22 513 31 520 49 520 c 0
 103 520 l 1
EndSplineSet
Validated: 3073
EndChar

StartChar: uni0181
Encoding: 385 385 320
Width: 600
Flags: MW
LayerCount: 2
Fore
SplineSet
165 313 m 1
 312 313 l 2
 397 313 458 357 458 419 c 0
 458 477 402 522 329 522 c 2
 165 522 l 1
 165 313 l 1
500 153 m 0
 500 202 465 272 314 272 c 2
 165 272 l 1
 165 41 l 1
 373 41 l 2
 444 41 500 91 500 153 c 0
70 563 m 2
 328 563 l 2
 425 563 499 500 499 418 c 0
 499 367 473 330 414 298 c 1
 498 268 541 220 541 153 c 0
 541 69 467 0 376 0 c 2
 70 0 l 2
 52 0 43 7 43 21 c 0
 43 34 52 41 70 41 c 2
 124 41 l 1
 124 522 l 1
 70 522 l 2
 47 522 15 497 15 470 c 2
 15 468 l 2
 15 437 42 415 68 415 c 0
 80 415 89 406 89 394 c 0
 89 383 80 374 68 374 c 0
 20 374 -26 414 -26 470 c 0
 -26 527 25 563 70 563 c 2
EndSplineSet
Validated: 3073
EndChar

StartChar: uni0182
Encoding: 386 386 321
Width: 600
Flags: HMW
LayerCount: 2
Fore
SplineSet
313 323 m 2
 497 323 542 225 542 158 c 0
 542 74 468 0 377 0 c 2
 71 0 l 2
 53 0 44 7 44 21 c 0
 44 34 53 41 71 41 c 2
 125 41 l 1
 125 522 l 1
 71 522 l 2
 53 522 44 529 44 543 c 0
 44 556 53 563 71 563 c 2
 511 563 l 1
 511 424 l 2
 511 406 504 397 490 397 c 0
 477 397 470 406 470 424 c 2
 470 522 l 1
 166 522 l 1
 166 323 l 1
 313 323 l 2
501 158 m 0
 501 206 473 282 315 282 c 2
 166 282 l 1
 166 41 l 1
 374 41 l 2
 445 41 501 96 501 158 c 0
EndSplineSet
Validated: 32769
EndChar

StartChar: uni0183
Encoding: 387 387 322
Width: 600
Flags: MW
LayerCount: 2
Fore
SplineSet
322 390 m 0
 223 390 144 309 144 208 c 0
 144 107 223 25 322 25 c 0
 419 25 500 107 500 205 c 0
 500 309 422 390 322 390 c 0
144 563 m 1
 144 328 l 1
 194 399 250 431 324 431 c 0
 446 431 541 334 541 210 c 0
 541 85 444 -16 324 -16 c 0
 251 -16 191 18 144 88 c 1
 144 0 l 1
 49 0 l 2
 31 0 22 7 22 21 c 0
 22 34 31 41 49 41 c 2
 103 41 l 1
 103 563 l 1
 49 563 l 1
 31 563 22 570 22 584 c 0
 22 597 31 604 49 604 c 0
 473 604 l 1
 491 604 500 597 500 584 c 0
 500 570 491 563 473 563 c 0
 144 563 l 1
EndSplineSet
Validated: 3073
EndChar

StartChar: uni0184
Encoding: 388 388 323
Width: 600
Flags: MW
LayerCount: 2
Fore
SplineSet
508 153 m 0
 508 202 473 272 322 272 c 2
 173 272 l 1
 173 41 l 1
 381 41 l 2
 452 41 508 91 508 153 c 0
173 476 m 1
 173 313 l 1
 320 313 l 2
 504 313 549 220 549 153 c 0
 549 69 475 0 384 0 c 2
 78 0 l 2
 60 0 51 7 51 21 c 0
 51 34 60 41 78 41 c 2
 132 41 l 1
 132 448 l 1
 82 413 l 2
 82 413 71 407 65 407 c 0
 55 407 46 417 46 428 c 0
 46 437 50 442 62 449 c 2
 132 497 l 1
 132 563 l 1
 132 581 139 590 152 590 c 0
 166 590 173 581 173 563 c 0
 173 526 l 1
 247 577 l 2
 247 577 259 583 264 583 c 0
 274 583 283 574 283 563 c 0
 283 553 279 549 267 542 c 2
 173 476 l 1
EndSplineSet
Validated: 3073
EndChar

StartChar: uni0185
Encoding: 389 389 324
Width: 600
Flags: MW
LayerCount: 2
Fore
SplineSet
144 208 m 0
 144 107 223 25 322 25 c 0
 419 25 500 107 500 205 c 0
 500 309 422 390 322 390 c 0
 223 390 144 309 144 208 c 0
144 475 m 1
 144 328 l 1
 194 399 250 431 324 431 c 0
 446 431 541 334 541 210 c 0
 541 85 444 -16 324 -16 c 0
 251 -16 191 18 144 88 c 1
 144 0 l 1
 49 0 l 2
 31 0 22 7 22 21 c 0
 22 34 31 41 49 41 c 2
 103 41 l 1
 103 446 l 1
 58 415 l 2
 58 415 47 409 41 409 c 0
 31 409 22 419 22 430 c 0
 22 439 26 444 38 451 c 2
 103 496 l 1
 103 563 l 1
 103 581 110 590 123 590 c 0
 137 590 144 581 144 563 c 2
 144 524 l 1
 223 579 l 2
 223 579 235 585 240 585 c 0
 250 585 259 576 259 565 c 0
 259 555 255 551 243 544 c 2
 144 475 l 1
EndSplineSet
Validated: 3073
EndChar

StartChar: uni0186
Encoding: 390 390 325
Width: 600
Flags: MW
LayerCount: 2
Fore
SplineSet
83 125 m 0
 113 125 141 25 275 25 c 0
 393 25 493 128 493 248 c 2
 493 319 l 2
 493 438 403 535 292 535 c 0
 203 535 123 482 119 421 c 0
 118 405 111 397 99 397 c 0
 85 397 78 406 78 424 c 2
 78 536 l 2
 78 554 85 563 98 563 c 0
 112 563 119 554 119 536 c 2
 119 507 l 1
 166 552 226 576 292 576 c 0
 486 576 534 384 534 325 c 2
 534 242 l 2
 534 107 411 -16 275 -16 c 0
 153 -16 63 81 63 106 c 0
 63 117 71 125 83 125 c 0
EndSplineSet
Validated: 3073
EndChar

StartChar: uni0187
Encoding: 391 391 326
Width: 600
Flags: MW
LayerCount: 2
Fore
SplineSet
63 325 m 2
 63 378 105 576 305 576 c 0
 371 576 431 552 478 507 c 1
 478 536 l 2
 478 582 514 632 571 632 c 0
 627 632 667 587 667 538 c 0
 667 527 658 518 647 518 c 0
 635 518 626 527 626 538 c 0
 626 564 603 592 570 592 c 0
 544 591 519 560 519 536 c 2
 519 424 l 1
 519 406 512 397 498 397 c 0
 486 397 479 405 478 421 c 0
 474 482 394 535 305 535 c 0
 194 535 104 438 104 319 c 2
 104 248 l 2
 104 128 204 25 322 25 c 0
 391 25 442 51 496 115 c 0
 503 123 507 125 514 125 c 0
 526 125 534 117 534 106 c 0
 534 86 449 -16 322 -16 c 0
 186 -16 63 107 63 242 c 2
 63 325 l 2
EndSplineSet
Validated: 3073
EndChar

StartChar: uni0188
Encoding: 392 392 327
Width: 600
Flags: MW
LayerCount: 2
Fore
SplineSet
535 88 m 0
 535 67 445 -16 309 -16 c 0
 178 -16 84 76 84 204 c 0
 84 336 180 431 314 431 c 0
 375 431 429 412 470 376 c 1
 470 389 l 2
 470 435 506 485 563 485 c 0
 619 485 659 440 659 391 c 0
 659 380 650 371 639 371 c 0
 627 371 618 380 618 391 c 0
 618 417 595 445 562 445 c 0
 536 444 511 413 511 389 c 2
 511 298 l 2
 511 280 504 271 491 271 c 0
 478 271 472 278 470 295 c 0
 466 348 395 390 311 390 c 0
 201 390 125 315 125 205 c 0
 125 100 202 25 311 25 c 0
 384 25 446 49 498 97 c 0
 506 105 509 107 516 107 c 0
 526 107 535 98 535 88 c 0
EndSplineSet
Validated: 3073
EndChar

StartChar: uni018A
Encoding: 394 394 329
Width: 600
Flags: MW
LayerCount: 2
Fore
SplineSet
479 318 m 2
 479 359 441 522 288 522 c 2
 145 522 l 1
 145 41 l 1
 295 41 l 2
 391 41 479 139 479 245 c 2
 479 318 l 2
34 563 m 2
 290 563 l 2
 419 563 520 451 520 310 c 2
 520 254 l 2
 520 112 419 0 290 0 c 2
 70 0 l 2
 52 0 43 7 43 21 c 0
 43 34 52 41 70 41 c 2
 104 41 l 1
 104 522 l 1
 34 522 l 2
 10 522 -21 497 -22 471 c 0
 -22 438 6 415 32 415 c 0
 43 415 52 406 52 394 c 0
 52 383 43 374 32 374 c 0
 -17 374 -62 414 -62 470 c 0
 -62 527 -11 563 34 563 c 2
EndSplineSet
Validated: 3073
EndChar

StartChar: uni018B
Encoding: 395 395 330
Width: 600
Flags: MW
LayerCount: 2
Fore
SplineSet
287 323 m 2
 434 323 l 1
 434 522 l 1
 130 522 l 1
 130 424 l 2
 130 406 123 397 110 397 c 0
 96 397 89 406 89 424 c 2
 89 563 l 1
 529 563 l 2
 547 563 556 556 556 543 c 0
 556 529 547 522 529 522 c 2
 475 522 l 1
 475 41 l 1
 529 41 l 2
 547 41 556 34 556 21 c 0
 556 7 547 0 529 0 c 2
 223 0 l 2
 132 0 58 74 58 158 c 0
 58 225 103 323 287 323 c 2
99 158 m 0
 99 96 155 41 226 41 c 2
 434 41 l 1
 434 282 l 1
 285 282 l 2
 127 282 99 206 99 158 c 0
EndSplineSet
Validated: 3073
EndChar

StartChar: uni018C
Encoding: 396 396 331
Width: 600
Flags: MW
LayerCount: 2
Fore
SplineSet
241 390 m 0
 141 390 63 309 63 205 c 0
 63 107 144 25 241 25 c 0
 340 25 419 107 419 208 c 0
 419 309 340 390 241 390 c 0
419 563 m 1
 90 563 l 1
 72 563 63 570 63 584 c 0
 63 597 72 604 90 604 c 0
 514 604 l 1
 532 604 541 597 541 584 c 0
 541 570 532 563 514 563 c 0
 460 563 l 1
 460 41 l 1
 514 41 l 2
 532 41 541 34 541 21 c 0
 541 7 532 0 514 0 c 2
 419 0 l 1
 419 88 l 1
 372 18 312 -16 239 -16 c 0
 119 -16 22 85 22 210 c 0
 22 334 117 431 239 431 c 0
 313 431 369 399 419 328 c 1
 419 563 l 1
EndSplineSet
Validated: 3073
EndChar

StartChar: uni018E
Encoding: 398 398 333
Width: 600
Flags: MW
LayerCount: 2
Fore
SplineSet
398 272 m 1
 253 272 l 1
 253 227 l 2
 253 209 246 200 232 200 c 0
 219 200 212 209 212 227 c 2
 212 358 l 2
 212 376 219 385 232 385 c 0
 246 385 253 376 253 358 c 2
 253 313 l 1
 398 313 l 1
 398 522 l 1
 105 522 l 1
 105 424 l 2
 105 406 98 397 85 397 c 0
 71 397 64 406 64 424 c 2
 64 563 l 1
 493 563 l 2
 511 563 520 556 520 543 c 0
 520 529 511 522 493 522 c 2
 439 522 l 1
 439 41 l 1
 493 41 l 2
 511 41 520 34 520 21 c 0
 520 7 511 0 493 0 c 2
 43 0 l 1
 43 160 l 2
 43 178 50 187 63 187 c 0
 77 187 84 178 84 160 c 2
 84 41 l 1
 398 41 l 1
 398 272 l 1
EndSplineSet
Validated: 3073
EndChar

StartChar: uni018F
Encoding: 399 399 334
Width: 600
Flags: HMW
LayerCount: 2
Fore
SplineSet
493 253 m 1
 91 252 l 9
 91 241 l 2
 91 122 181 25 292 25 c 0
 403 25 493 122 493 241 c 2
 493 253 l 1
292 -16 m 0
 98 -16 50 176 50 235 c 2
 50 293 l 17
 493 293 l 1
 493 312 l 2
 493 432 393 535 275 535 c 0
 206 535 155 509 101 445 c 0
 94 437 90 435 83 435 c 0
 71 435 63 443 63 454 c 0
 63 474 148 576 275 576 c 0
 411 576 534 453 534 318 c 2
 534 235 l 2
 534 182 492 -16 292 -16 c 0
EndSplineSet
Validated: 32769
EndChar

StartChar: uni0190
Encoding: 400 400 335
Width: 600
Flags: MW
LayerCount: 2
Fore
SplineSet
297 270 m 2
 200 270 136 223 136 153 c 0
 136 79 206 25 299 25 c 0
 390 25 464 76 467 142 c 0
 468 158 474 166 487 166 c 0
 501 166 508 157 508 139 c 2
 508 27 l 2
 508 9 501 0 488 0 c 0
 474 0 467 9 467 27 c 2
 467 56 l 1
 426 9 367 -16 298 -16 c 0
 178 -16 92 54 92 151 c 0
 92 224 138 272 202 291 c 1
 202 298 l 1
 151 316 114 361 114 421 c 0
 114 509 193 576 298 576 c 0
 357 576 402 558 444 517 c 1
 444 536 l 2
 444 554 451 563 465 563 c 0
 478 563 485 554 485 536 c 2
 485 433 l 2
 485 415 478 406 465 406 c 0
 452 406 445 414 444 430 c 0
 440 490 379 535 301 535 c 0
 219 535 158 486 158 420 c 0
 158 353 225 311 310 311 c 2
 358 311 l 2
 376 311 385 304 385 291 c 0
 385 277 376 270 358 270 c 2
 297 270 l 2
EndSplineSet
Validated: 3073
EndChar

StartChar: uni0191
Encoding: 401 401 336
Width: 600
Flags: MW
LayerCount: 2
Fore
SplineSet
26 -39 m 0
 39 -39 59 -52 96 -52 c 0
 140 -52 169 -4 169 64 c 2
 169 522 l 1
 115 522 l 2
 97 522 88 529 88 543 c 0
 88 556 97 563 115 563 c 2
 565 563 l 1
 565 424 l 2
 565 406 558 397 544 397 c 0
 531 397 524 406 524 424 c 2
 524 522 l 1
 210 522 l 1
 210 313 l 1
 355 313 l 1
 355 358 l 2
 355 376 362 385 375 385 c 0
 389 385 396 376 396 358 c 2
 396 227 l 2
 396 209 389 200 375 200 c 0
 362 200 355 209 355 227 c 2
 355 272 l 1
 210 272 l 1
 210 41 l 2
 202 -35 162 -92 95 -93 c 0
 76 -93 8 -86 8 -59 c 0
 8 -48 16 -39 26 -39 c 0
EndSplineSet
Validated: 3073
EndChar

StartChar: florin
Encoding: 402 402 337
Width: 600
Flags: MW
LayerCount: 2
Fore
SplineSet
499 566 m 0
 488 566 471 577 435 577 c 0
 367 577 321 530 321 462 c 2
 321 375 l 1
 417 375 l 2
 435 375 444 368 444 355 c 0
 444 341 435 334 417 334 c 2
 321 334 l 1
 321 58 l 2
 321 -26 256 -93 174 -93 c 0
 155 -93 87 -86 87 -59 c 0
 87 -48 95 -39 105 -39 c 0
 118 -39 138 -52 175 -52 c 0
 236 -52 280 -4 280 64 c 2
 280 334 l 1
 184 334 l 2
 166 334 157 341 157 355 c 0
 157 368 166 375 184 375 c 2
 280 375 l 1
 280 462 l 2
 280 549 346 618 431 618 c 0
 449 618 518 613 518 586 c 0
 518 575 509 566 499 566 c 0
EndSplineSet
Validated: 3073
EndChar

StartChar: uni0193
Encoding: 403 403 338
Width: 600
Flags: MW
LayerCount: 2
Fore
SplineSet
63 318 m 2
 63 453 163 576 313 576 c 0
 379 576 434 558 479 522 c 1
 479 536 l 2
 479 582 515 632 572 632 c 0
 628 632 668 587 668 538 c 0
 668 527 659 518 648 518 c 0
 636 518 627 527 627 538 c 0
 627 564 604 592 571 592 c 0
 545 591 520 560 520 536 c 0
 520 445 l 1
 520 427 513 418 500 418 c 0
 487 418 481 426 480 443 c 0
 476 494 404 535 315 535 c 0
 138 535 104 362 104 317 c 2
 104 244 l 2
 104 108 192 25 336 25 c 0
 388 25 423 33 479 59 c 1
 479 209 l 1
 340 209 l 2
 322 209 313 216 313 230 c 0
 313 243 322 250 340 250 c 2
 534 250 l 2
 553 250 562 243 562 230 c 0
 562 216 553 209 534 209 c 2
 520 209 l 1
 520 36 l 1
 461 2 395 -16 333 -16 c 0
 169 -16 63 86 63 244 c 2
 63 318 l 2
EndSplineSet
Validated: 3073
EndChar

StartChar: uni0194
Encoding: 404 404 339
Width: 600
Flags: MW
LayerCount: 2
Fore
SplineSet
300 227 m 1
 270 181 240 157 240 106 c 2
 240 104 l 2
 240 64 252 14 300 14 c 0
 354 14 360 68 360 104 c 0
 359 146 332 179 300 227 c 1
277 261 m 1
 99 522 l 1
 75 522 l 2
 57 522 48 529 48 543 c 0
 48 556 57 563 75 563 c 2
 186 563 l 2
 204 563 213 556 213 543 c 0
 213 529 204 522 186 522 c 2
 148 522 l 1
 300 295 l 1
 449 522 l 1
 409 522 l 2
 390 522 381 529 381 543 c 0
 381 556 390 563 409 563 c 2
 519 563 l 2
 536 563 546 555 546 543 c 0
 546 530 535 522 519 522 c 2
 495 522 l 1
 323 262 l 1
 344 234 401 170 401 104 c 0
 401 30 366 -27 300 -27 c 16
 234 -27 199 38 199 104 c 16
 199 183 255 232 277 261 c 1
EndSplineSet
Validated: 3073
EndChar

StartChar: uni0195
Encoding: 405 405 340
Width: 600
Flags: MW
LayerCount: 2
Fore
SplineSet
581 116 m 2
 580 44 531 -16 450 -16 c 0
 401 -16 371 3 340 41 c 8
 321 65 321 115 321 115 c 2
 321 297 l 2
 321 376 281 390 253 390 c 2
 230 390 l 2
 174 390 141 330 136 316 c 2
 129 296 l 1
 129 41 l 1
 174 41 l 2
 193 41 202 34 202 21 c 0
 202 7 192 0 174 0 c 2
 42 0 l 2
 25 0 15 7 15 21 c 0
 15 34 24 41 42 41 c 2
 88 41 l 1
 88 563 l 1
 34 563 l 2
 16 563 7 570 7 584 c 0
 7 597 16 604 34 604 c 2
 129 604 l 1
 128 360 l 1
 150 405 173 431 232 431 c 0
 329 431 362 374 362 291 c 2
 362 115 l 2
 362 65 402 25 453 25 c 0
 520 25 539 85 539 118 c 2
 539 376 l 1
 465 376 l 2
 446 376 437 383 437 397 c 0
 437 410 446 417 465 417 c 2
 580 417 l 1
 581 116 l 2
EndSplineSet
Validated: 3073
EndChar

StartChar: uni0196
Encoding: 406 406 341
Width: 600
Flags: MW
LayerCount: 2
Fore
SplineSet
502 68 m 0
 502 53 452 -8 370 -8 c 0
 302 -8 261 46 261 120 c 10
 261 523 l 1
 200 523 l 2
 185 523 173 530 173 543 c 0
 173 559 183 563 200 563 c 2
 302 563 l 1
 302 120 l 18
 302 58 328 33 370 33 c 0
 445 33 462 88 482 88 c 0
 487 88 502 84 502 68 c 0
EndSplineSet
Validated: 3073
EndChar

StartChar: uni0197
Encoding: 407 407 342
Width: 600
Flags: MW
LayerCount: 2
Fore
SplineSet
279 321 m 1
 279 522 l 1
 140 522 l 2
 122 522 113 529 113 543 c 0
 113 556 122 563 140 563 c 2
 459 563 l 2
 478 563 487 556 487 543 c 0
 487 529 478 522 459 522 c 2
 320 522 l 1
 320 321 l 1
 420 321 l 1
 438 321 447 314 447 301 c 0
 447 288 438 281 420 281 c 0
 320 281 l 1
 320 41 l 1
 459 41 l 2
 478 41 487 34 487 21 c 0
 487 7 477 0 459 0 c 2
 140 0 l 2
 122 0 113 7 113 21 c 0
 113 34 122 41 140 41 c 2
 279 41 l 1
 279 281 l 1
 184 281 l 1
 166 281 157 288 157 301 c 0
 157 314 166 321 184 321 c 0
 279 321 l 1
EndSplineSet
Validated: 3073
EndChar

StartChar: uni0198
Encoding: 408 408 343
Width: 600
Flags: MW
LayerCount: 2
Fore
SplineSet
502 522 m 1
 280 324 l 1
 377 284 414 233 489 41 c 1
 545 41 l 2
 563 41 572 34 572 21 c 0
 572 7 563 0 545 0 c 2
 458 0 l 1
 385 203 341 263 246 294 c 1
 165 221 l 1
 165 41 l 1
 240 41 l 2
 258 41 267 34 267 21 c 0
 267 7 258 0 240 0 c 2
 70 0 l 2
 52 0 43 7 43 21 c 0
 43 34 52 41 70 41 c 2
 124 41 l 1
 124 522 l 1
 70 522 l 2
 52 522 43 529 43 543 c 0
 43 556 52 563 70 563 c 2
 240 563 l 2
 258 563 267 556 267 543 c 0
 267 529 258 522 240 522 c 2
 165 522 l 1
 165 273 l 1
 445 522 l 1
 400 522 l 1
 381 522 372 529 372 543 c 0
 372 556 381 563 400 563 c 0
 518 563 l 1
 563 563 614 527 614 470 c 0
 614 414 569 374 520 374 c 0
 509 374 500 383 500 394 c 0
 500 406 509 415 520 415 c 0
 546 415 574 438 574 471 c 0
 573 497 542 522 518 522 c 2
 502 522 l 1
EndSplineSet
Validated: 3073
EndChar

StartChar: uni0199
Encoding: 409 409 344
Width: 600
Flags: MW
LayerCount: 2
Fore
SplineSet
363 566 m 0
 352 566 335 577 299 577 c 0
 231 577 185 530 185 462 c 0
 185 229 l 1
 358 376 l 1
 336 376 l 2
 318 376 309 383 309 397 c 0
 309 410 318 417 336 417 c 2
 466 417 l 2
 484 417 493 410 493 397 c 0
 493 383 484 376 466 376 c 2
 419 376 l 1
 262 245 l 1
 469 41 l 1
 514 41 l 2
 532 41 541 34 541 21 c 0
 541 7 532 0 514 0 c 2
 383 0 l 2
 365 0 356 7 356 21 c 0
 356 34 365 41 383 41 c 2
 411 41 l 1
 231 219 l 1
 185 180 l 1
 185 0 l 1
 90 0 l 2
 72 0 63 7 63 21 c 0
 63 34 72 41 90 41 c 2
 144 41 l 1
 144 462 l 1
 144 549 210 618 295 618 c 0
 313 618 382 613 382 586 c 0
 382 575 373 566 363 566 c 0
EndSplineSet
Validated: 3073
EndChar

StartChar: uni019A
Encoding: 410 410 345
Width: 600
Flags: MW
LayerCount: 2
Fore
SplineSet
445 297 m 0
 445 292 440 274 418 274 c 2
 320 274 l 1
 320 41 l 1
 480 41 l 2
 499 41 508 34 508 21 c 0
 508 7 498 0 480 0 c 2
 119 0 l 2
 101 0 92 7 92 21 c 0
 92 34 101 41 119 41 c 2
 279 41 l 1
 279 274 l 1
 182 274 l 1
 164 274 155 281 155 294 c 0
 155 307 164 314 182 314 c 0
 279 314 l 1
 279 563 l 1
 162 563 l 2
 144 563 135 570 135 584 c 0
 135 597 144 604 162 604 c 2
 320 604 l 1
 320 314 l 1
 418 314 l 1
 435 314 445 308 445 297 c 0
EndSplineSet
Validated: 3073
EndChar

StartChar: uni019B
Encoding: 411 411 346
Width: 600
Flags: MW
LayerCount: 2
Fore
SplineSet
203 614 m 2
 245 614 256 580 256 573 c 1
 271 541 l 1
 343 590 l 2
 343 590 355 596 360 596 c 0
 370 596 379 587 379 576 c 0
 379 566 375 562 363 555 c 2
 289 503 l 1
 510 39 l 1
 527 39 l 2
 537 39 544 38 546 31 c 0
 550 18 l 1
 550 3 539 -2 522 -2 c 2
 412 -2 l 2
 397 -2 387 3 387 18 c 0
 387 32 397 39 412 39 c 2
 468 39 l 1
 305 379 l 1
 142 39 l 1
 195 39 l 2
 211 39 222 33 222 18 c 0
 222 3 211 -2 195 -2 c 2
 85 -2 l 2
 78 -2 73 -1 70 0 c 0
 64 0 58 13 58 18 c 0
 58 32 70 39 85 39 c 2
 97 39 l 1
 283 424 l 1
 256 480 l 1
 178 426 l 2
 178 426 167 420 161 420 c 0
 151 420 142 430 142 441 c 0
 142 450 146 455 158 462 c 2
 238 518 l 1
 212 573 l 1
 118 573 l 2
 103 573 91 579 91 594 c 0
 91 609 102 614 118 614 c 2
 203 614 l 2
EndSplineSet
Validated: 3073
EndChar

StartChar: uni019C
Encoding: 412 412 347
Width: 600
Flags: MW
LayerCount: 2
Fore
SplineSet
492 0 m 1
 492 52 l 1
 458 4 429 -14 387 -14 c 0
 344 -14 312 9 290 57 c 1
 251 7 218 -14 177 -14 c 0
 119 -14 72 35 72 94 c 2
 72 522 l 1
 38 522 l 2
 20 522 11 529 11 542 c 0
 11 556 20 563 38 563 c 2
 112 563 l 1
 112 98 l 2
 112 60 143 27 178 27 c 0
 214 27 244 51 282 109 c 1
 282 522 l 1
 248 522 l 2
 230 522 221 529 221 542 c 0
 221 556 230 563 248 563 c 2
 322 563 l 1
 322 101 l 2
 322 62 353 27 387 27 c 0
 422 27 454 52 492 109 c 1
 492 522 l 1
 458 522 l 2
 440 522 431 529 431 542 c 0
 431 556 441 563 458 563 c 2
 567 563 l 2
 584 563 593 556 593 542 c 0
 593 529 584 522 566 522 c 2
 532 522 l 1
 532 41 l 1
 566 41 l 2
 584 41 593 34 593 20 c 0
 593 7 584 0 566 0 c 2
 492 0 l 1
EndSplineSet
Validated: 3073
EndChar

StartChar: uni019D
Encoding: 413 413 348
Width: 600
Flags: MW
LayerCount: 2
Fore
SplineSet
210 58 m 2
 210 -26 166 -92 95 -93 c 0
 76 -93 8 -86 8 -59 c 0
 8 -48 16 -39 26 -39 c 0
 39 -39 59 -52 96 -52 c 0
 140 -52 169 -4 169 64 c 0
 169 522 l 1
 115 522 l 2
 97 522 88 529 88 543 c 0
 88 556 97 563 115 563 c 2
 221 563 l 1
 494 59 l 1
 494 522 l 1
 420 522 l 2
 401 522 392 529 392 543 c 0
 392 556 401 563 420 563 c 2
 569 563 l 2
 587 563 596 556 596 543 c 0
 596 529 587 522 569 522 c 2
 535 522 l 1
 535 0 l 1
 483 0 l 1
 210 504 l 1
 210 58 l 2
EndSplineSet
Validated: 3073
EndChar

StartChar: uni019E
Encoding: 414 414 349
Width: 600
Flags: MW
LayerCount: 2
Fore
SplineSet
319 390 m 0
 230 390 189 322 167 294 c 1
 167 41 l 1
 212 41 l 2
 230 41 239 34 239 21 c 0
 239 7 230 0 212 0 c 2
 81 0 l 2
 62 0 53 7 53 21 c 0
 53 34 62 41 81 41 c 2
 126 41 l 1
 126 376 l 1
 92 376 l 2
 74 376 65 383 65 397 c 0
 65 410 74 417 92 417 c 2
 167 417 l 1
 167 348 l 1
 225 412 261 431 323 431 c 0
 412 431 480 372 480 295 c 2
 480 -143 l 1
 514 -143 l 2
 532 -143 541 -150 541 -163 c 0
 541 -177 532 -184 514 -184 c 2
 405 -184 l 2
 387 -184 378 -177 378 -163 c 0
 378 -150 387 -143 405 -143 c 2
 439 -143 l 1
 439 288 l 2
 439 344 394 390 319 390 c 0
EndSplineSet
Validated: 3073
EndChar

StartChar: uni019F
Encoding: 415 415 350
Width: 600
Flags: HMW
LayerCount: 2
Fore
SplineSet
300 576 m 0
 441 576 549 446 549 276 c 0
 549 115 437 -16 300 -16 c 0
 161 -16 51 115 51 280 c 0
 51 445 161 576 300 576 c 0
507 300 m 1
 498 433 410 535 300 535 c 0
 191 535 101 431 93 300 c 1
 507 300 l 1
508 260 m 1
 93 260 l 1
 101 129 191 25 300 25 c 0
 408 25 500 131 508 260 c 1
EndSplineSet
Validated: 32769
EndChar

StartChar: Ohorn
Encoding: 416 416 351
Width: 600
Flags: MW
LayerCount: 2
Fore
SplineSet
300 535 m 0
 185 535 92 420 92 280 c 0
 92 140 186 25 300 25 c 0
 413 25 508 140 508 277 c 0
 508 421 416 535 300 535 c 0
443 524 m 1
 501 524 l 2
 525 524 556 549 557 575 c 0
 557 608 529 631 503 631 c 0
 492 631 483 640 483 652 c 0
 483 663 492 672 503 672 c 0
 552 672 597 632 597 576 c 0
 597 519 547 483 501 483 c 2
 483 483 l 1
 524 430 549 357 549 276 c 0
 549 115 437 -16 300 -16 c 0
 161 -16 51 115 51 280 c 0
 51 445 161 576 300 576 c 0
 354 576 403 557 443 524 c 1
EndSplineSet
Validated: 3073
EndChar

StartChar: ohorn
Encoding: 417 417 352
Width: 600
Flags: MW
LayerCount: 2
Fore
SplineSet
300 390 m 0
 196 390 113 309 113 208 c 0
 113 106 196 25 300 25 c 0
 403 25 487 106 487 205 c 0
 487 310 405 390 300 390 c 0
431 391 m 1
 494 391 l 2
 518 391 549 416 550 442 c 0
 550 475 522 498 496 498 c 0
 485 498 476 507 476 519 c 0
 476 530 485 539 496 539 c 0
 545 539 590 499 590 443 c 0
 590 386 540 350 494 350 c 2
 476 350 l 1
 509 311 528 261 528 205 c 0
 528 83 426 -16 300 -16 c 0
 173 -16 72 83 72 208 c 0
 72 331 173 431 300 431 c 0
 349 431 394 416 431 391 c 1
EndSplineSet
Validated: 3073
EndChar

StartChar: uni01A2
Encoding: 418 418 353
Width: 600
Flags: MW
LayerCount: 2
Fore
SplineSet
217 535 m 0
 101 535 44 421 44 277 c 0
 44 140 104 25 217 25 c 0
 331 25 390 140 390 280 c 0
 390 420 332 535 217 535 c 0
281 565 m 1
 306 609 354 638 424 638 c 0
 518 638 545 566 545 522 c 2
 545 41 l 1
 566 41 l 2
 585 41 594 34 594 21 c 0
 594 7 584 0 566 0 c 2
 479 0 l 2
 461 0 452 7 452 21 c 0
 452 34 461 41 479 41 c 2
 504 41 l 1
 504 522 l 2
 504 546 494 594 410 594 c 0
 367 594 344 584 317 546 c 1
 387 500 428 406 429 313 c 8
 429 297 430 272 430 272 c 1
 427 111 354 -16 217 -16 c 0
 80 -16 3 115 3 276 c 0
 3 446 76 576 217 576 c 0
 240 576 261 572 281 565 c 1
EndSplineSet
Validated: 3073
EndChar

StartChar: uni01A3
Encoding: 419 419 354
Width: 600
Flags: MW
LayerCount: 2
Fore
SplineSet
200 390 m 0
 122 390 68 307 68 202 c 0
 68 103 124 25 200 25 c 0
 278 25 334 106 334 208 c 0
 334 309 278 390 200 390 c 0
280 408 m 1
 317 452 361 468 424 468 c 16
 477 468 522 428 522 360 c 2
 522 41 l 1
 568 41 l 2
 586 41 596 34 596 21 c 0
 596 7 586 0 568 0 c 2
 436 0 l 2
 418 0 410 7 410 21 c 0
 410 34 418 41 436 41 c 2
 482 41 l 1
 482 360 l 2
 482 404 458 432 414 432 c 8
 368 432 339 418 308 386 c 1
 346 350 371 294 371 225 c 8
 371 209 370 184 370 184 c 1
 370 182 l 2
 370 73 288 -16 200 -16 c 0
 106 -16 29 83 29 205 c 0
 29 332 104 431 200 431 c 0
 228 431 256 423 280 408 c 1
EndSplineSet
Validated: 3073
EndChar

StartChar: uni01A4
Encoding: 420 420 355
Width: 600
Flags: MW
LayerCount: 2
Fore
SplineSet
165 522 m 1
 165 272 l 1
 299 272 l 2
 386 272 458 329 458 398 c 0
 458 466 393 522 314 522 c 2
 165 522 l 1
124 522 m 1
 70 522 l 2
 46 522 15 497 14 471 c 0
 14 438 42 415 68 415 c 0
 79 415 88 406 88 394 c 0
 88 383 79 374 68 374 c 0
 19 374 -26 414 -26 470 c 0
 -26 527 25 563 70 563 c 0
 310 563 l 2
 416 563 499 491 499 398 c 0
 499 305 410 231 296 231 c 2
 165 231 l 1
 165 41 l 1
 303 41 l 2
 322 41 331 34 331 21 c 0
 331 7 321 0 303 0 c 2
 70 0 l 2
 52 0 43 7 43 21 c 0
 43 34 52 41 70 41 c 2
 124 41 l 1
 124 522 l 1
EndSplineSet
Validated: 3073
EndChar

StartChar: uni01A5
Encoding: 421 421 356
Width: 600
Flags: MW
LayerCount: 2
Fore
SplineSet
144 221 m 0
 144 126 223 51 322 51 c 0
 420 51 500 126 500 219 c 0
 500 316 423 390 322 390 c 0
 223 390 144 315 144 221 c 0
322 566 m 0
 311 566 294 577 258 577 c 0
 190 577 144 530 144 462 c 2
 144 335 l 1
 197 404 247 431 323 431 c 0
 447 431 541 340 541 221 c 0
 541 102 446 10 323 10 c 0
 246 10 190 40 144 106 c 1
 144 -145 l 1
 242 -145 l 2
 260 -145 269 -152 269 -165 c 0
 269 -179 260 -186 242 -186 c 2
 49 -186 l 2
 31 -186 22 -179 22 -165 c 0
 22 -152 31 -145 49 -145 c 2
 103 -145 l 1
 103 462 l 2
 103 549 169 618 254 618 c 0
 272 618 341 613 341 586 c 0
 341 575 332 566 322 566 c 0
EndSplineSet
Validated: 3073
EndChar

StartChar: uni01A6
Encoding: 422 422 357
Width: 600
Flags: MW
LayerCount: 2
Fore
SplineSet
170 221 m 1
 267 221 l 2
 348 221 419 255 419 302 c 0
 419 344 358 374 302 374 c 2
 170 374 l 1
 170 221 l 1
170 417 m 1
 301 417 l 2
 390 417 460 368 460 301 c 0
 460 246 424 212 338 194 c 1
 436 140 428 -50 489 -145 c 1
 516 -145 l 2
 532 -145 540 -156 540 -165 c 0
 540 -176 532 -186 516 -186 c 2
 466 -186 l 1
 390 -90 398 146 283 181 c 1
 170 181 l 1
 170 41 l 1
 233 41 l 2
 249 41 257 30 257 21 c 0
 257 10 249 0 233 0 c 2
 84 0 l 2
 68 0 60 10 60 21 c 0
 60 30 68 41 84 41 c 2
 129 41 l 1
 129 522 l 1
 84 522 l 2
 68 522 60 533 60 542 c 0
 60 553 68 563 84 563 c 2
 233 563 l 2
 249 563 257 553 257 542 c 0
 257 533 249 522 233 522 c 2
 170 522 l 1
 170 417 l 1
EndSplineSet
Validated: 3073
EndChar

StartChar: uni01A7
Encoding: 423 423 358
Width: 600
Flags: MW
LayerCount: 2
Fore
SplineSet
92 151 m 0
 92 371 441 251 441 420 c 0
 441 486 380 535 298 535 c 0
 220 535 159 490 155 430 c 0
 154 414 147 406 134 406 c 0
 121 406 114 415 114 433 c 2
 114 536 l 2
 114 554 121 563 134 563 c 0
 148 563 155 554 155 536 c 2
 155 517 l 1
 197 558 242 576 301 576 c 0
 406 576 485 509 485 421 c 0
 485 207 136 334 136 153 c 0
 136 79 206 25 299 25 c 0
 390 25 464 76 467 142 c 0
 468 158 474 166 487 166 c 0
 501 166 508 157 508 139 c 2
 508 27 l 2
 508 9 501 0 488 0 c 0
 474 0 467 9 467 27 c 2
 467 56 l 1
 426 9 367 -16 298 -16 c 0
 178 -16 92 54 92 151 c 0
EndSplineSet
Validated: 3073
EndChar

StartChar: uni01A8
Encoding: 424 424 359
Width: 600
Flags: MW
LayerCount: 2
Fore
SplineSet
476 318 m 0
 476 155 148 255 148 117 c 0
 148 64 214 25 302 25 c 0
 387 25 456 62 456 108 c 2
 456 115 l 2
 456 128 464 137 476 137 c 0
 490 137 497 128 497 110 c 2
 497 27 l 2
 497 9 490 0 476 0 c 0
 463 0 456 9 456 27 c 2
 456 38 l 1
 414 1 364 -16 299 -16 c 0
 186 -16 103 40 103 116 c 0
 103 265 340 232 399 270 c 0
 420 282 431 299 431 315 c 0
 431 358 375 390 301 390 c 0
 225 390 173 361 168 316 c 0
 166 300 159 293 147 293 c 0
 134 293 127 302 127 320 c 2
 127 389 l 2
 127 408 134 417 147 417 c 0
 160 417 168 406 168 389 c 2
 168 385 l 1
 203 416 248 431 305 431 c 0
 403 431 476 383 476 318 c 0
EndSplineSet
Validated: 3073
EndChar

StartChar: uni01AA
Encoding: 426 426 361
Width: 600
Flags: MW
LayerCount: 2
Fore
SplineSet
174 585 m 0
 141 585 114 559 114 528 c 0
 114 496 141 470 174 470 c 0
 207 470 234 496 234 527 c 0
 234 559 207 585 174 585 c 0
518 -59 m 0
 518 -86 451 -93 431 -93 c 0
 349 -93 284 -26 284 58 c 2
 284 462 l 2
 284 487 278 511 267 532 c 1
 267 526 l 0
 267 478 225 437 174 437 c 0
 123 437 81 478 81 528 c 0
 81 577 123 618 174 618 c 0
 259 618 325 549 325 462 c 2
 325 64 l 2
 325 -4 369 -52 430 -52 c 0
 467 -52 487 -39 500 -39 c 0
 510 -39 518 -48 518 -59 c 0
EndSplineSet
Validated: 3073
EndChar

StartChar: uni01AB
Encoding: 427 427 362
Width: 600
Flags: MW
LayerCount: 2
Fore
SplineSet
283 -145 m 0
 296 -145 316 -158 353 -158 c 0
 414 -158 458 -110 458 -42 c 2
 458 17 l 1
 417 -1 353 -16 300 -16 c 0
 206 -16 145 32 145 107 c 2
 145 376 l 1
 71 376 l 2
 52 376 43 383 43 397 c 0
 43 410 52 417 71 417 c 2
 145 417 l 1
 145 536 l 2
 145 554 152 563 166 563 c 0
 180 563 186 555 186 536 c 2
 186 417 l 1
 406 417 l 2
 424 417 433 410 433 397 c 0
 433 383 424 376 406 376 c 2
 186 376 l 1
 186 109 l 2
 186 58 229 25 298 25 c 0
 354 25 425 42 464 65 c 0
 472 70 475 71 480 71 c 0
 490 71 499 61 499 51 c 2
 499 -48 l 2
 499 -132 434 -199 352 -199 c 0
 333 -199 265 -192 265 -165 c 0
 265 -154 273 -145 283 -145 c 0
EndSplineSet
Validated: 3073
EndChar

StartChar: uni01AC
Encoding: 428 428 363
Width: 600
Flags: MW
LayerCount: 2
Fore
SplineSet
113 522 m 1
 89 522 58 497 57 471 c 0
 57 438 85 415 111 415 c 0
 122 415 131 406 131 394 c 0
 131 383 122 374 111 374 c 0
 62 374 17 414 17 470 c 0
 17 527 68 563 113 563 c 0
 528 563 l 1
 528 449 l 2
 528 430 522 422 508 422 c 0
 496 422 487 433 487 449 c 2
 487 522 l 1
 321 522 l 1
 321 41 l 1
 426 41 l 2
 444 41 453 34 453 21 c 0
 453 7 444 0 426 0 c 2
 175 0 l 2
 157 0 148 7 148 21 c 0
 148 34 157 41 175 41 c 2
 280 41 l 1
 280 522 l 1
 113 522 l 1
EndSplineSet
Validated: 3073
EndChar

StartChar: uni01AD
Encoding: 429 429 364
Width: 600
Flags: MW
LayerCount: 2
Fore
SplineSet
364 566 m 0
 353 566 336 577 300 577 c 0
 232 577 186 530 186 462 c 1
 186 417 l 1
 406 417 l 2
 424 417 433 410 433 397 c 0
 433 383 424 376 406 376 c 2
 186 376 l 1
 186 109 l 1
 186 58 229 25 298 25 c 0
 354 25 425 42 464 65 c 0
 472 70 475 71 480 71 c 0
 490 71 499 61 499 51 c 0
 499 22 385 -16 300 -16 c 0
 206 -16 145 32 145 107 c 0
 145 376 l 1
 71 376 l 2
 52 376 43 383 43 397 c 0
 43 410 52 417 71 417 c 2
 145 417 l 1
 145 462 l 1
 145 549 211 618 296 618 c 0
 314 618 383 613 383 586 c 0
 383 575 374 566 364 566 c 0
EndSplineSet
Validated: 3073
EndChar

StartChar: uni01AE
Encoding: 430 430 365
Width: 600
Flags: MW
LayerCount: 2
Fore
SplineSet
514 -165 m 0
 514 -192 447 -199 427 -199 c 0
 345 -199 280 -132 280 -48 c 0
 280 522 l 1
 113 522 l 1
 113 449 l 2
 113 431 106 422 92 422 c 0
 79 422 72 431 72 449 c 2
 72 563 l 1
 528 563 l 1
 528 449 l 2
 528 430 522 422 508 422 c 0
 496 422 487 433 487 449 c 2
 487 522 l 1
 321 522 l 1
 321 -42 l 1
 321 -110 365 -158 426 -158 c 0
 463 -158 483 -145 496 -145 c 0
 506 -145 514 -154 514 -165 c 0
EndSplineSet
Validated: 3073
EndChar

StartChar: Uhorn
Encoding: 431 431 366
Width: 600
Flags: MW
LayerCount: 2
Fore
SplineSet
499 522 m 1
 499 185 l 2
 499 71 412 -16 300 -16 c 0
 187 -16 101 71 101 185 c 2
 101 522 l 1
 67 522 l 2
 49 522 40 529 40 543 c 0
 40 557 49 563 67 563 c 2
 216 563 l 2
 234 563 243 556 243 543 c 0
 243 529 234 522 216 522 c 2
 142 522 l 1
 142 185 l 2
 142 95 211 25 300 25 c 0
 388 25 458 95 458 185 c 2
 458 522 l 1
 384 522 l 2
 366 522 357 529 357 543 c 0
 357 557 365 563 384 563 c 2
 533 563 l 2
 557 563 588 588 589 614 c 0
 589 647 561 670 535 670 c 0
 524 670 515 679 515 691 c 0
 515 702 524 711 535 711 c 0
 584 711 629 671 629 615 c 0
 629 558 579 522 533 522 c 2
 499 522 l 1
EndSplineSet
Validated: 3073
EndChar

StartChar: uhorn
Encoding: 432 432 367
Width: 600
Flags: MW
LayerCount: 2
Fore
SplineSet
480 376 m 1
 480 41 l 1
 514 41 l 2
 532 41 541 34 541 21 c 0
 541 7 532 0 514 0 c 2
 439 0 l 1
 439 66 l 1
 384 12 323 -16 257 -16 c 0
 177 -16 124 36 124 115 c 2
 124 376 l 1
 70 376 l 2
 52 376 43 383 43 397 c 0
 43 410 52 417 70 417 c 2
 165 417 l 1
 165 115 l 2
 165 65 205 25 256 25 c 0
 323 25 384 55 439 115 c 1
 439 376 l 1
 365 376 l 2
 346 376 337 383 337 397 c 0
 337 410 346 417 365 417 c 2
 480 417 l 2
 504 417 533 443 534 468 c 0
 534 501 506 524 480 524 c 0
 469 524 460 533 460 545 c 0
 460 556 469 565 480 565 c 0
 529 565 574 525 574 469 c 0
 574 413 525 377 480 376 c 1
EndSplineSet
Validated: 3073
EndChar

StartChar: uni01B1
Encoding: 433 433 368
Width: 600
Flags: MW
LayerCount: 2
Fore
SplineSet
87 214 m 0
 87 384 209 428 243 431 c 1
 243 528 l 1
 118 528 l 1
 118 427 l 2
 118 413 113 400 99 400 c 0
 83 400 78 412 78 427 c 2
 78 571 l 1
 285 571 l 1
 285 396 l 1
 180 386 126 317 126 216 c 0
 126 104 201 44 258 38 c 2
 350 38 l 2
 474 52 489 182 489 216 c 0
 489 286 454 370 356 392 c 2
 328 396 l 1
 328 571 l 1
 540 571 l 1
 540 427 l 2
 540 413 532 400 518 400 c 0
 504 400 499 413 499 427 c 2
 499 528 l 1
 370 528 l 1
 370 431 l 1
 452 414 530 335 530 221 c 0
 530 34 387 -2 350 -2 c 2
 260 -2 l 2
 215 4 87 41 87 214 c 0
EndSplineSet
Validated: 3073
EndChar

StartChar: uni01B2
Encoding: 434 434 369
Width: 600
Flags: MW
LayerCount: 2
Fore
SplineSet
300 29 m 0
 352 29 431 46 431 144 c 2
 431 563 l 1
 525 563 l 2
 541 563 553 557 553 541 c 0
 553 525 545 522 525 522 c 2
 473 522 l 1
 473 144 l 2
 473 40 416 -12 302 -12 c 0
 192 -12 124 37 124 146 c 2
 124 522 l 1
 71 522 l 2
 56 522 43 529 43 543 c 0
 43 559 53 563 71 563 c 2
 212 563 l 2
 228 563 243 557 243 543 c 0
 243 526 231 522 214 522 c 2
 165 522 l 1
 165 148 l 2
 165 67 228 29 300 29 c 0
EndSplineSet
Validated: 3073
EndChar

StartChar: uni01B3
Encoding: 435 435 370
Width: 600
Flags: MW
LayerCount: 2
Fore
SplineSet
151 522 m 1
 303 295 l 1
 452 522 l 1
 412 522 l 2
 393 522 384 529 384 543 c 0
 384 556 393 563 412 563 c 2
 522 563 l 2
 539 563 549 555 549 543 c 0
 549 530 538 522 522 522 c 2
 498 522 l 1
 322 254 l 1
 322 41 l 1
 427 41 l 2
 445 41 454 34 454 21 c 0
 454 7 445 0 427 0 c 2
 176 0 l 2
 158 0 149 7 149 21 c 0
 149 34 158 41 176 41 c 2
 281 41 l 1
 281 254 l 1
 102 522 l 1
 78 522 l 2
 54 522 23 497 22 471 c 0
 22 438 50 415 76 415 c 0
 87 415 96 406 96 394 c 0
 96 383 87 374 76 374 c 0
 27 374 -18 414 -18 470 c 0
 -18 527 33 563 78 563 c 2
 189 563 l 2
 207 563 216 556 216 543 c 0
 216 529 207 522 189 522 c 0
 151 522 l 1
EndSplineSet
Validated: 3073
EndChar

StartChar: uni01B4
Encoding: 436 436 371
Width: 600
Flags: MW
LayerCount: 2
Fore
SplineSet
508 376 m 1
 252 -145 l 1
 317 -145 l 2
 335 -145 344 -152 344 -165 c 0
 344 -179 335 -186 317 -186 c 2
 84 -186 l 2
 66 -186 57 -179 57 -165 c 0
 57 -152 66 -145 84 -145 c 2
 211 -145 l 1
 282 0 l 1
 94 376 l 1
 78 376 l 2
 60 376 51 383 51 397 c 0
 51 410 60 417 78 417 c 2
 193 417 l 2
 211 417 220 410 220 397 c 0
 220 383 211 376 193 376 c 2
 141 376 l 1
 305 45 l 1
 466 376 l 1
 412 376 l 1
 394 376 385 383 385 397 c 0
 385 410 394 417 412 417 c 2
 522 417 l 2
 546 417 577 442 578 468 c 0
 578 501 550 524 524 524 c 0
 513 524 504 533 504 545 c 0
 504 556 513 565 524 565 c 0
 573 565 618 525 618 469 c 0
 618 412 568 376 522 376 c 2
 508 376 l 1
EndSplineSet
Validated: 3073
EndChar

StartChar: uni01B5
Encoding: 437 437 372
Width: 600
Flags: MW
LayerCount: 2
Fore
SplineSet
310 281 m 1
 142 45 l 1
 142 41 l 1
 456 41 l 1
 456 182 l 2
 456 200 462 209 476 209 c 0
 490 209 497 200 497 182 c 2
 497 0 l 1
 103 0 l 1
 103 59 l 1
 261 281 l 1
 184 281 l 2
 166 281 157 288 157 301 c 0
 157 314 166 321 184 321 c 0
 290 321 l 1
 431 519 l 1
 431 522 l 1
 162 522 l 1
 162 404 l 2
 162 385 155 376 142 376 c 0
 128 376 121 385 121 404 c 2
 121 563 l 1
 470 563 l 1
 470 505 l 1
 339 321 l 1
 420 321 l 2
 438 321 447 314 447 301 c 0
 447 288 438 281 420 281 c 0
 310 281 l 1
EndSplineSet
Validated: 3073
EndChar

StartChar: uni01B6
Encoding: 438 438 373
Width: 600
Flags: MW
LayerCount: 2
Fore
SplineSet
296 241 m 1
 416 376 l 1
 165 376 l 1
 165 321 l 2
 165 303 158 294 145 294 c 0
 131 294 124 303 124 321 c 2
 124 417 l 1
 474 417 l 1
 474 381 l 1
 349 241 l 1
 420 241 l 1
 438 241 447 234 447 221 c 0
 447 208 438 201 420 201 c 0
 314 201 l 1
 171 41 l 1
 448 41 l 1
 448 97 l 2
 448 115 455 124 469 124 c 0
 482 124 489 115 489 97 c 2
 489 0 l 1
 115 0 l 1
 115 36 l 1
 261 201 l 1
 184 201 l 1
 166 201 157 208 157 221 c 0
 157 234 166 241 184 241 c 0
 296 241 l 1
EndSplineSet
Validated: 3073
EndChar

StartChar: uni01B7
Encoding: 439 439 374
Width: 600
Flags: MW
LayerCount: 2
Fore
SplineSet
168 314 m 0
 153 314 149 329 149 334 c 0
 149 339 152 345 156 349 c 2
 336 522 l 1
 153 522 l 1
 153 467 l 2
 153 449 146 440 133 440 c 0
 119 440 112 449 112 467 c 2
 112 563 l 1
 431 563 l 2
 450 563 459 556 459 543 c 0
 459 529 450 522 431 522 c 2
 393 522 l 1
 249 383 l 1
 276 394 303 395 322 395 c 0
 424 395 499 313 499 201 c 0
 499 75 414 -15 295 -15 c 0
 185 -15 96 61 96 82 c 0
 96 93 105 102 116 102 c 0
 138 102 179 26 293 26 c 0
 391 26 458 98 458 203 c 0
 458 292 400 354 316 354 c 0
 229 354 191 314 168 314 c 0
EndSplineSet
Validated: 3073
EndChar

StartChar: uni01B8
Encoding: 440 440 375
Width: 600
Flags: MW
LayerCount: 2
Fore
SplineSet
411 314 m 0
 388 314 350 354 263 354 c 0
 179 354 121 292 121 203 c 0
 121 98 188 26 286 26 c 0
 400 26 441 102 463 102 c 0
 474 102 483 93 483 82 c 0
 483 61 394 -15 284 -15 c 0
 165 -15 80 75 80 201 c 0
 80 313 155 395 257 395 c 0
 276 395 303 394 330 383 c 1
 186 522 l 1
 148 522 l 2
 129 522 120 529 120 543 c 0
 120 556 129 563 148 563 c 2
 467 563 l 1
 467 467 l 2
 467 449 460 440 446 440 c 0
 433 440 426 449 426 467 c 2
 426 522 l 1
 243 522 l 1
 423 349 l 2
 427 345 430 339 430 334 c 0
 430 329 426 314 411 314 c 0
EndSplineSet
Validated: 3073
EndChar

StartChar: uni01B9
Encoding: 441 441 376
Width: 600
Flags: MW
LayerCount: 2
Fore
SplineSet
364 169 m 0
 324 169 339 210 260 210 c 0
 197 210 148 140 148 58 c 0
 148 -33 204 -118 272 -118 c 0
 354 -118 389 -44 418 -44 c 0
 425 -44 437 -51 437 -64 c 0
 437 -69 434 -75 430 -79 c 0
 396 -111 346 -158 272 -158 c 0
 168 -158 108 -47 108 58 c 0
 108 154 164 250 260 250 c 2
 273 250 l 25
 139 376 l 1
 123 376 l 2
 104 376 95 383 95 397 c 0
 95 410 104 417 123 417 c 2
 396 417 l 2
 412 417 420 407 420 396 c 0
 420 387 412 376 396 376 c 2
 196 376 l 1
 376 203 l 2
 380 199 383 193 383 188 c 0
 383 177 375 169 364 169 c 0
EndSplineSet
Validated: 3073
EndChar

StartChar: yoghtail
Encoding: 442 442 377
Width: 600
Flags: MW
LayerCount: 2
Fore
SplineSet
436 -104 m 0
 436 -163 333 -200 263 -200 c 0
 178 -200 89 -186 88 -94 c 0
 89.0112 -7.03632 172.545 20 250 20 c 0
 302.333 20 384 37 384 136 c 0
 384 202 335 210 272 210 c 0
 192 210 208 169 168 169 c 0
 157 169 149 177 149 188 c 0
 149 193 152 199 156 203 c 2
 336 376 l 1
 136 376 l 2
 120 376 112 387 112 396 c 0
 112 407 120 417 136 417 c 2
 409 417 l 2
 428 417 437 410 437 397 c 0
 437 383 428 376 409 376 c 2
 393 376 l 1
 259 250 l 17
 354 250 424 236.997 424 136 c 0
 424 75.775 390.541 -20 250 -20 c 0
 185.333 -20 128 -40 128 -93 c 0
 128 -126 135.892 -160 272 -160 c 0
 337 -160 394 -119 397 -99 c 0
 398 -91 406 -84 416 -84 c 0
 429 -84 436 -94 436 -104 c 0
EndSplineSet
Validated: 3073
EndChar

StartChar: uni01BB
Encoding: 443 443 378
Width: 600
Flags: MW
LayerCount: 2
Fore
SplineSet
474 284 m 0
 474 279 469 261 447 261 c 2
 354 261 l 1
 277 184 176 87 123 44 c 1
 123 41 l 1
 437 41 l 1
 437 77 l 2
 437 95 444 104 458 104 c 0
 471 104 478 95 478 77 c 2
 478 0 l 1
 84 0 l 1
 84 60 l 1
 298 261 l 1
 211 261 l 1
 193 261 184 268 184 281 c 0
 184 294 193 301 211 301 c 0
 339 301 l 1
 417 378 433 405 433 447 c 0
 433 516 366 577 290 577 c 0
 222 577 160 532 144 472 c 0
 140 458 134 452 123 452 c 0
 113 452 104 461 104 470 c 0
 104 521 178 618 290 618 c 0
 388 618 474 537 474 446 c 0
 474 399 461 371 394 301 c 1
 447 301 l 1
 464 301 474 295 474 284 c 0
EndSplineSet
Validated: 3073
EndChar

StartChar: uni01BC
Encoding: 444 444 379
Width: 600
Flags: MW
LayerCount: 2
Fore
SplineSet
316 354 m 0
 227 354 194 313 168 313 c 0
 157 313 149 322 149 335 c 2
 149 522 l 1
 104 522 l 2
 88 522 80 533 80 542 c 0
 80 553 88 563 104 563 c 0
 431 563 l 1
 450 563 459 556 459 543 c 0
 459 529 450 522 431 522 c 0
 190 522 l 1
 190 365 l 1
 241 386 278 395 322 395 c 0
 424 395 499 313 499 201 c 0
 499 75 414 -15 295 -15 c 0
 185 -15 96 61 96 82 c 0
 96 93 105 102 116 102 c 0
 138 102 179 26 293 26 c 0
 391 26 458 98 458 203 c 0
 458 292 400 354 316 354 c 0
EndSplineSet
Validated: 3073
EndChar

StartChar: uni01BD
Encoding: 445 445 380
Width: 600
Flags: MW
LayerCount: 2
Fore
SplineSet
136 201 m 0
 131 201 122 205 122 226 c 2
 122 376 l 1
 104 376 95 383 95 397 c 0
 95 410 104 417 123 417 c 2
 396 417 l 2
 412 417 420 407 420 396 c 0
 420 387 412 376 396 376 c 0
 163 376 l 1
 163 255 l 1
 188 266 206 268 230 268 c 2
 246 268 l 2
 351 268 418 218 418 126 c 0
 418 44 364 -20 266 -20 c 0
 176 -20 115 26 115 54 c 0
 115 67 128 75 136 75 c 0
 157 75 164 20 266 20 c 0
 345 20 378 64 378 126 c 0
 378 198 341 228 246 228 c 0
 173 227 150 201 136 201 c 0
EndSplineSet
Validated: 3073
EndChar

StartChar: uni01BE
Encoding: 446 446 381
Width: 600
Flags: MW
LayerCount: 2
Fore
SplineSet
134 34 m 1
 134 102 l 2
 134 120 141 129 155 129 c 0
 168 129 175 120 175 102 c 2
 175 61 l 1
 227 35 259 27 304 27 c 0
 387 27 446 74 446 140 c 0
 446 197 397 240 281 289 c 1
 281 370 l 1
 176 370 l 2
 158 370 149 377 149 390 c 0
 149 404 158 411 176 411 c 1
 281 411 l 1
 281 522 l 1
 236 522 l 2
 218 522 209 529 209 542 c 0
 209 556 218 563 236 563 c 1
 367 563 l 0
 385 563 395 556 395 542 c 0
 395 529 386 522 367 522 c 2
 322 522 l 1
 322 411 l 1
 427 411 l 2
 445 411 455 404 455 390 c 0
 455 377 446 370 427 370 c 2
 322 370 l 1
 322 316 l 1
 447 257 487 214 487 140 c 0
 487 48 415 -14 309 -14 c 0
 220 -14 177 20 134 34 c 1
EndSplineSet
Validated: 3073
EndChar

StartChar: uni01BF
Encoding: 447 447 382
Width: 600
Flags: MW
LayerCount: 2
Fore
SplineSet
144 -21 m 1
 421 206 l 2
 464 241 494 284 494 336 c 0
 494 396 452 404 397 404 c 0
 342 404 284 403 221 354 c 2
 144 294 l 1
 144 -21 l 1
144 -74 m 1
 144 -145 l 1
 242 -145 l 2
 260 -145 269 -152 269 -165 c 0
 269 -179 260 -186 242 -186 c 2
 49 -186 l 2
 31 -186 22 -179 22 -165 c 0
 22 -152 31 -145 49 -145 c 2
 103 -145 l 1
 103 376 l 1
 49 376 l 2
 31 376 22 383 22 397 c 0
 22 410 31 417 49 417 c 2
 144 417 l 1
 144 346 l 1
 195 386 l 2
 270 444 343 444 395 444 c 0
 468 444 534 424 534 336 c 0
 534 268 494 212 447 174 c 2
 144 -74 l 1
EndSplineSet
Validated: 3073
EndChar

StartChar: uni01C0
Encoding: 448 448 383
Width: 600
Flags: MW
LayerCount: 2
Fore
SplineSet
320 577 m 6
 320 -97 l 6
 320 -115 313 -124 300 -124 c 4
 287 -124 280 -115 280 -97 c 6
 280 577 l 6
 280 595 287 604 300 604 c 4
 313 604 320 595 320 577 c 6
EndSplineSet
Validated: 3073
EndChar

StartChar: uni01C1
Encoding: 449 449 384
Width: 600
Flags: MW
LayerCount: 2
Fore
SplineSet
384 577 m 2
 384 -97 l 2
 384 -115 377 -124 364 -124 c 0
 351 -124 344 -115 344 -97 c 2
 344 577 l 2
 344 595 351 604 364 604 c 0
 377 604 384 595 384 577 c 2
256 577 m 2
 256 -97 l 2
 256 -115 249 -124 236 -124 c 0
 223 -124 216 -115 216 -97 c 2
 216 577 l 2
 216 595 223 604 236 604 c 0
 249 604 256 595 256 577 c 2
EndSplineSet
Validated: 3073
EndChar

StartChar: uni01C2
Encoding: 450 450 385
Width: 600
Flags: MW
LayerCount: 2
Fore
SplineSet
320 375 m 1
 522 375 l 2
 540 375 549 368 549 355 c 0
 549 341 540 334 522 334 c 2
 320 334 l 1
 320 231 l 1
 522 231 l 2
 540 231 549 224 549 211 c 0
 549 197 540 190 522 190 c 2
 320 190 l 1
 320 -97 l 2
 320 -115 313 -124 300 -124 c 0
 287 -124 280 -115 280 -97 c 2
 280 190 l 1
 78 190 l 2
 60 190 51 197 51 211 c 0
 51 224 60 231 78 231 c 2
 280 231 l 1
 280 334 l 1
 78 334 l 2
 60 334 51 341 51 355 c 0
 51 368 60 375 78 375 c 2
 280 375 l 1
 280 577 l 2
 280 595 287 604 300 604 c 0
 313 604 320 595 320 577 c 2
 320 375 l 1
EndSplineSet
Validated: 3073
EndChar

StartChar: uni01C7
Encoding: 455 455 390
Width: 600
Flags: MW
LayerCount: 2
Fore
SplineSet
113 522 m 1
 113 41 l 1
 202 41 l 1
 202 201 l 2
 202 219 209 228 223 228 c 0
 236 228 243 219 243 201 c 2
 243 0 l 1
 32 0 l 2
 14 0 5 7 5 21 c 0
 5 34 14 41 32 41 c 2
 72 41 l 1
 72 522 l 1
 32 522 l 2
 14 522 5 529 5 543 c 0
 5 556 14 563 32 563 c 2
 169 563 l 2
 187 563 196 556 196 543 c 0
 196 529 187 522 169 522 c 2
 113 522 l 1
327 93 m 1
 350 53 358 25 402 25 c 0
 472 25 473 88 473 165 c 2
 473 522 l 1
 378 522 l 2
 360 522 351 529 351 543 c 0
 351 556 360 563 378 563 c 2
 564 563 l 2
 582 563 591 556 591 543 c 0
 591 529 582 522 564 522 c 2
 514 522 l 1
 514 165 l 2
 514 66 488 -16 399 -16 c 0
 336 -16 327 12 286 74 c 1
 286 223 l 2
 286 241 293 250 307 250 c 0
 320 250 327 241 327 223 c 2
 327 93 l 1
EndSplineSet
Validated: 3073
EndChar

StartChar: uni01C8
Encoding: 456 456 391
Width: 600
Flags: MW
LayerCount: 2
Fore
SplineSet
187 522 m 1
 187 41 l 1
 360 41 l 1
 360 201 l 2
 360 219 367 228 381 228 c 0
 394 228 401 219 401 201 c 2
 401 0 l 1
 50 0 l 2
 32 0 23 7 23 21 c 0
 23 34 32 41 50 41 c 2
 146 41 l 1
 146 522 l 1
 50 522 l 2
 32 522 23 529 23 543 c 0
 23 556 32 563 50 563 c 2
 283 563 l 2
 301 563 310 556 310 543 c 0
 310 529 301 522 283 522 c 2
 187 522 l 1
535 376 m 1
 454 376 l 2
 436 376 427 383 427 397 c 0
 427 410 436 417 454 417 c 2
 576 417 l 1
 576 -28 l 2
 576 -121 512 -186 421 -186 c 2
 292 -186 l 2
 274 -186 265 -179 265 -165 c 0
 265 -152 274 -145 292 -145 c 2
 420 -145 l 2
 486 -145 535 -96 535 -28 c 2
 535 376 l 1
583 624 m 1
 583 520 l 1
 524 520 l 1
 524 624 l 1
 583 624 l 1
EndSplineSet
Validated: 3073
EndChar

StartChar: uni01C9
Encoding: 457 457 392
Width: 600
Flags: MW
LayerCount: 2
Fore
SplineSet
435 376 m 1
 354 376 l 2
 336 376 327 383 327 397 c 0
 327 410 336 417 354 417 c 2
 476 417 l 1
 476 -28 l 2
 476 -121 412 -186 321 -186 c 2
 192 -186 l 2
 174 -186 165 -179 165 -165 c 0
 165 -152 174 -145 192 -145 c 2
 320 -145 l 2
 386 -145 435 -96 435 -28 c 2
 435 376 l 1
483 624 m 1
 483 520 l 1
 424 520 l 1
 424 624 l 1
 483 624 l 1
258 604 m 1
 258 41 l 1
 322 41 l 2
 341 41 350 34 350 21 c 0
 350 7 340 0 322 0 c 2
 151 0 l 2
 133 0 124 7 124 21 c 0
 124 34 133 41 151 41 c 2
 217 41 l 1
 217 563 l 1
 161 563 l 2
 143 563 134 570 134 584 c 0
 134 597 143 604 161 604 c 2
 258 604 l 1
EndSplineSet
Validated: 3073
EndChar

StartChar: uni01CA
Encoding: 458 458 393
Width: 600
Flags: HMW
LayerCount: 2
Fore
SplineSet
533 519 m 1
 533 113 l 2
 533 1.13687e-13 516 -19 454 -19 c 0
 390 -19 372 18 372 71 c 2
 372 220 l 2
 372 238 379 247 393 247 c 0
 406 247 413 238 413 220 c 2
 413 90 l 2
 413 40 427 22 455 22 c 0
 479 22 492 36 492 113 c 2
 492 519 l 1
 456 519 l 2
 438 519 429 526 429 540 c 0
 429 553 438 560 456 560 c 2
 573 560 l 2
 591 560 600 553 600 540 c 0
 600 526 591 519 573 519 c 2
 533 519 l 1
319 0 m 1
 269 0 l 1
 106 472 l 1
 106 41 l 1
 149 41 l 2
 167 41 176 34 176 21 c 0
 176 7 166 0 149 0 c 2
 47 0 l 2
 29 0 20 7 20 21 c 0
 20 34 29 41 47 41 c 2
 65 41 l 1
 65 522 l 1
 27 522 l 2
 9 522 0 529 0 543 c 0
 0 556 9 563 27 563 c 2
 117 563 l 1
 280 91 l 1
 280 522 l 1
 238 522 l 2
 219 522 210 529 210 543 c 0
 210 556 219 563 238 563 c 2
 355 563 l 2
 373 563 382 556 382 543 c 0
 382 529 373 522 355 522 c 2
 321 522 l 1
 321 0 319 52.2002 319 0 c 1
EndSplineSet
Validated: 3073
EndChar

StartChar: uni01CB
Encoding: 459 459 394
Width: 600
Flags: MW
LayerCount: 2
Fore
SplineSet
401 0 m 1
 349 0 l 1
 144 488 l 1
 144 41 l 1
 219 41 l 2
 237 41 246 34 246 21 c 0
 246 7 236 0 219 0 c 2
 69 0 l 2
 51 0 42 7 42 21 c 0
 42 34 51 41 69 41 c 2
 103 41 l 1
 103 522 l 1
 49 522 l 2
 31 522 22 529 22 543 c 0
 22 556 31 563 49 563 c 2
 155 563 l 1
 360 75 l 1
 360 522 l 1
 286 522 l 2
 267 522 258 529 258 543 c 0
 258 556 267 563 286 563 c 2
 435 563 l 2
 453 563 462 556 462 543 c 0
 462 529 453 522 435 522 c 2
 401 522 l 1
 401 0 l 1
535 376 m 1
 454 376 l 2
 436 376 427 383 427 397 c 0
 427 410 436 417 454 417 c 2
 576 417 l 1
 576 -28 l 2
 576 -121 512 -186 421 -186 c 2
 292 -186 l 2
 274 -186 265 -179 265 -165 c 0
 265 -152 274 -145 292 -145 c 2
 420 -145 l 2
 486 -145 535 -96 535 -28 c 2
 535 376 l 1
583 624 m 1
 583 520 l 1
 524 520 l 1
 524 624 l 1
 583 624 l 1
EndSplineSet
Validated: 3073
EndChar

StartChar: uni01CC
Encoding: 460 460 395
Width: 600
Flags: MW
LayerCount: 2
Fore
SplineSet
353 288 m 2
 353 312 330 390 238 390 c 0
 200 390 180 354 162 333 c 0
 150 319 159 335 127 294 c 1
 127 41 l 1
 172 41 l 2
 190 41 199 34 199 21 c 0
 199 7 190 0 172 0 c 2
 41 0 l 2
 22 0 13 7 13 21 c 0
 13 34 22 41 41 41 c 2
 86 41 l 1
 86 376 l 1
 52 376 l 2
 34 376 25 383 25 397 c 0
 25 410 34 417 52 417 c 2
 127 417 l 1
 127 348 l 1
 180 420 198 431 242 431 c 2
 244 431 l 2
 334 431 394 371 394 295 c 2
 394 41 l 1
 428 41 l 2
 446 41 455 34 455 21 c 0
 455 7 446 0 428 0 c 2
 319 0 l 2
 301 0 292 7 292 21 c 0
 292 34 301 41 319 41 c 2
 353 41 l 1
 353 288 l 2
535 376 m 1
 454 376 l 2
 436 376 427 383 427 397 c 0
 427 410 436 417 454 417 c 2
 576 417 l 1
 576 -28 l 2
 576 -121 512 -186 421 -186 c 2
 292 -186 l 2
 274 -186 265 -179 265 -165 c 0
 265 -152 274 -145 292 -145 c 2
 420 -145 l 2
 486 -145 535 -96 535 -28 c 2
 535 376 l 1
583 624 m 1
 583 520 l 1
 524 520 l 1
 524 624 l 1
 583 624 l 1
EndSplineSet
Validated: 3073
EndChar

StartChar: uni01D7
Encoding: 471 471 406
Width: 600
Flags: M
LayerCount: 2
Fore
SplineSet
499 469.8 m 1
 499 166.5 l 2
 499 63.9004 412 -14.4004 300 -14.4004 c 0
 187 -14.4004 101 63.9004 101 166.5 c 2
 101 469.8 l 1
 67 469.8 l 2
 49 469.8 40 476.1 40 488.7 c 0
 40 501.3 49 506.7 67 506.7 c 2
 216 506.7 l 2
 234 506.7 243 500.4 243 488.7 c 0
 243 476.1 234 469.8 216 469.8 c 2
 142 469.8 l 1
 142 166.5 l 2
 142 85.5 211 22.5 300 22.5 c 0
 388 22.5 458 85.5 458 166.5 c 2
 458 469.8 l 1
 384 469.8 l 2
 366 469.8 357 476.1 357 488.7 c 0
 357 501.3 365 506.7 384 506.7 c 2
 533 506.7 l 2
 552 506.7 560 501.3 560 488.7 c 0
 560 476.1 551 469.8 533 469.8 c 2
 499 469.8 l 1
190 643 m 0
 218 643 240 620 240 592 c 0
 240 566 217 543 190 543 c 0
 163 543 140 566 140 593 c 0
 140 620 163 643 190 643 c 0
411 643 m 0
 439 643 461 620 461 592 c 0
 461 566 438 543 411 543 c 0
 384 543 361 566 361 593 c 0
 361 620 384 643 411 643 c 0
422 754 m 2
 308 654 l 2
 299 647 295 645 289 645 c 0
 278 645 269 654 269 666 c 0
 269 673 271 676 281 685 c 2
 395 785 l 2
 404 792 408 794 414 794 c 0
 425 794 434 785 434 773 c 0
 434 766 431 762 422 754 c 2
EndSplineSet
Validated: 3073
EndChar

StartChar: uni01D9
Encoding: 473 473 408
Width: 600
Flags: M
LayerCount: 2
Fore
SplineSet
499 469.8 m 1
 499 166.5 l 2
 499 63.9004 412 -14.4004 300 -14.4004 c 0
 187 -14.4004 101 63.9004 101 166.5 c 2
 101 469.8 l 1
 67 469.8 l 2
 49 469.8 40 476.1 40 488.7 c 0
 40 501.3 49 506.7 67 506.7 c 2
 216 506.7 l 2
 234 506.7 243 500.4 243 488.7 c 0
 243 476.1 234 469.8 216 469.8 c 2
 142 469.8 l 1
 142 166.5 l 2
 142 85.5 211 22.5 300 22.5 c 0
 388 22.5 458 85.5 458 166.5 c 2
 458 469.8 l 1
 384 469.8 l 2
 366 469.8 357 476.1 357 488.7 c 0
 357 501.3 365 506.7 384 506.7 c 2
 533 506.7 l 2
 552 506.7 560 501.3 560 488.7 c 0
 560 476.1 551 469.8 533 469.8 c 2
 499 469.8 l 1
190 639 m 0
 218 639 240 616 240 588 c 0
 240 562 217 539 190 539 c 0
 163 539 140 562 140 589 c 0
 140 616 163 639 190 639 c 0
411 639 m 0
 439 639 461 616 461 588 c 0
 461 562 438 539 411 539 c 0
 384 539 361 562 361 589 c 0
 361 616 384 639 411 639 c 0
300 645 m 1
 168 754 l 1
 158 761 155 765 155 774 c 0
 155 785 164 794 175 794 c 0
 180 794 186 791 193 786 c 2
 300 698 l 1
 407 786 l 2
 414 791 420 794 425 794 c 0
 435 794 445 784 445 774 c 0
 445 766 443 762 432 753 c 2
 300 645 l 1
EndSplineSet
Validated: 3073
EndChar

StartChar: uni01DB
Encoding: 475 475 410
Width: 600
Flags: M
LayerCount: 2
Fore
SplineSet
214 788 m 2
 328 688 l 1
 335 680 l 2
 340 675 340 675 340 669 c 0
 340 657 331 648 319 648 c 0
 314 648 308 651 301 657 c 2
 187 757 l 2
 178 765 175 769 175 777 c 0
 175 788 184 797 195 797 c 0
 201 797 206 794 214 788 c 2
499 469.8 m 1
 499 166.5 l 2
 499 63.9004 412 -14.4004 300 -14.4004 c 0
 187 -14.4004 101 63.9004 101 166.5 c 2
 101 469.8 l 1
 67 469.8 l 2
 49 469.8 40 476.1 40 488.7 c 0
 40 501.3 49 506.7 67 506.7 c 2
 216 506.7 l 2
 234 506.7 243 500.4 243 488.7 c 0
 243 476.1 234 469.8 216 469.8 c 2
 142 469.8 l 1
 142 166.5 l 2
 142 85.5 211 22.5 300 22.5 c 0
 388 22.5 458 85.5 458 166.5 c 2
 458 469.8 l 1
 384 469.8 l 2
 366 469.8 357 476.1 357 488.7 c 0
 357 501.3 365 506.7 384 506.7 c 2
 533 506.7 l 2
 552 506.7 560 501.3 560 488.7 c 0
 560 476.1 551 469.8 533 469.8 c 2
 499 469.8 l 1
190 649 m 0
 218 649 240 626 240 598 c 0
 240 572 217 549 190 549 c 0
 163 549 140 572 140 599 c 0
 140 626 163 649 190 649 c 0
411 649 m 0
 439 649 461 626 461 598 c 0
 461 572 438 549 411 549 c 0
 384 549 361 572 361 599 c 0
 361 626 384 649 411 649 c 0
EndSplineSet
Validated: 3073
EndChar

StartChar: uni01DD
Encoding: 477 477 412
Width: 600
Flags: MW
LayerCount: 2
Fore
SplineSet
63 216 m 1
 479 216 l 1
 465 321 385 390 277 390 c 0
 215 390 142 368 102 336 c 0
 95 331 91 329 86 329 c 0
 76 329 67 338 67 349 c 0
 67 384 187 431 278 431 c 0
 413 431 520 328 520 198 c 0
 520 77 420 -16 292 -16 c 0
 159 -16 63 75 63 216 c 1
479 175 m 1
 105 175 l 1
 121 84 195 25 292 25 c 0
 389 25 461 83 479 175 c 1
EndSplineSet
Validated: 3073
EndChar

StartChar: uni01E4
Encoding: 484 484 419
Width: 600
Flags: MW
LayerCount: 2
Fore
SplineSet
315 535 m 0
 138 535 104 362 104 317 c 2
 104 244 l 2
 104 108 192 25 336 25 c 0
 388 25 423 33 479 59 c 1
 479 105 l 1
 340 105 l 1
 322 105 313 112 313 126 c 0
 313 139 322 146 340 146 c 0
 479 146 l 1
 479 209 l 1
 340 209 l 2
 322 209 313 216 313 230 c 0
 313 243 322 250 340 250 c 2
 534 250 l 2
 553 250 562 243 562 230 c 0
 562 216 553 209 534 209 c 2
 520 209 l 1
 520 146 l 1
 534 146 l 1
 553 146 562 139 562 126 c 0
 562 112 552 105 534 105 c 1
 520 105 l 1
 520 36 l 1
 461 2 395 -16 333 -16 c 0
 169 -16 63 86 63 244 c 2
 63 318 l 2
 63 453 163 576 313 576 c 0
 379 576 434 558 479 522 c 1
 479 536 l 2
 479 554 486 563 500 563 c 0
 514 563 520 555 520 536 c 2
 520 445 l 2
 520 427 513 418 500 418 c 0
 487 418 481 426 480 443 c 0
 476 494 404 535 315 535 c 0
EndSplineSet
Validated: 3073
EndChar

StartChar: uni01E5
Encoding: 485 485 420
Width: 600
Flags: MW
LayerCount: 2
Fore
SplineSet
272 390 m 0
 178 390 104 315 104 221 c 0
 104 126 179 51 272 51 c 0
 365 51 440 126 440 219 c 0
 440 316 367 390 272 390 c 0
469 -88 m 1
 455 -118 408 -186 316 -186 c 2
 202 -186 l 2
 184 -186 175 -179 175 -165 c 0
 175 -152 184 -145 202 -145 c 2
 318 -145 l 2
 362 -145 400 -122 421 -88 c 1
 299 -88 l 1
 281 -88 272 -81 272 -68 c 0
 272 -55 281 -48 299 -48 c 0
 437 -48 l 1
 439 -40 440 -31 440 -22 c 2
 440 107 l 1
 395 41 341 10 269 10 c 0
 156 10 63 105 63 221 c 0
 63 337 156 431 269 431 c 0
 342 431 395 401 440 334 c 1
 440 417 l 1
 535 417 l 2
 553 417 562 410 562 397 c 0
 562 383 553 376 535 376 c 2
 481 376 l 1
 481 -28 l 2
 481 -35 481 -42 480 -48 c 1
 535 -48 l 1
 553 -48 562 -55 562 -68 c 0
 562 -81 553 -88 535 -88 c 0
 469 -88 l 1
EndSplineSet
Validated: 3073
EndChar

StartChar: uni01F0
Encoding: 496 496 431
Width: 600
Flags: M
LayerCount: 2
Fore
SplineSet
417 376 m 1
 176 376 l 2
 158 376 149 383 149 397 c 0
 149 410 158 417 176 417 c 2
 458 417 l 1
 458 -28 l 2
 458 -121 394 -186 303 -186 c 2
 174 -186 l 2
 156 -186 147 -179 147 -165 c 0
 147 -152 156 -145 174 -145 c 2
 302 -145 l 2
 368 -145 417 -96 417 -28 c 2
 417 376 l 1
384 457 m 1
 252 566 l 1
 242 573 240 577 240 586 c 0
 240 597 248 606 260 606 c 0
 264 606 270 603 278 598 c 2
 384 510 l 1
 492 598 l 2
 498 603 504 606 510 606 c 0
 520 606 530 596 530 586 c 0
 530 578 528 574 516 565 c 2
 384 457 l 1
EndSplineSet
Validated: 3073
EndChar

StartChar: uni01F1
Encoding: 497 497 432
Width: 600
Flags: MW
LayerCount: 2
Fore
SplineSet
561 0 m 1
 327 0 l 1
 327 59 l 1
 514 519 l 1
 514 522 l 1
 386 522 l 1
 386 404 l 2
 386 385 379 376 366 376 c 0
 352 376 345 385 345 404 c 2
 345 563 l 1
 553 563 l 1
 553 505 l 1
 366 45 l 1
 366 41 l 1
 520 41 l 1
 520 182 l 2
 520 200 526 209 540 209 c 0
 554 209 561 200 561 182 c 2
 561 0 l 1
68 41 m 1
 68 522 l 1
 50 522 l 2
 32 522 23 529 23 543 c 0
 23 556 32 563 50 563 c 2
 142 563 l 2
 271 563 308 451 308 310 c 2
 308 254 l 2
 308 112 271 0 142 0 c 2
 50 0 l 2
 32 0 23 7 23 21 c 0
 23 34 32 41 50 41 c 2
 68 41 l 1
109 41 m 1
 147 41 l 2
 243 41 267 139 267 245 c 2
 267 327 l 2
 267 376 266 419 234 468 c 0
 207 509 194 522 140 522 c 2
 109 522 l 1
 109 41 l 1
EndSplineSet
Validated: 3073
EndChar

StartChar: uni01F2
Encoding: 498 498 433
Width: 600
Flags: MW
LayerCount: 2
Fore
SplineSet
554 417 m 1
 554 381 l 1
 379 41 l 1
 528 41 l 1
 528 97 l 2
 528 115 535 124 549 124 c 0
 562 124 569 115 569 97 c 2
 569 0 l 1
 323 0 l 1
 323 36 l 1
 496 376 l 1
 381 376 l 1
 381 321 l 2
 381 303 374 294 361 294 c 0
 347 294 340 303 340 321 c 2
 340 417 l 1
 554 417 l 1
68 41 m 1
 68 522 l 1
 50 522 l 2
 32 522 23 529 23 543 c 0
 23 556 32 563 50 563 c 2
 142 563 l 2
 271 563 308 451 308 310 c 2
 308 254 l 2
 308 112 271 0 142 0 c 2
 50 0 l 2
 32 0 23 7 23 21 c 0
 23 34 32 41 50 41 c 2
 68 41 l 1
109 41 m 1
 147 41 l 2
 243 41 267 139 267 245 c 2
 267 327 l 2
 267 376 266 419 234 468 c 0
 207 509 194 522 140 522 c 2
 109 522 l 1
 109 41 l 1
EndSplineSet
Validated: 3073
EndChar

StartChar: uni01F3
Encoding: 499 499 434
Width: 600
Flags: MW
LayerCount: 2
Fore
SplineSet
124 25 m 0
 193 25 213 108 213 206 c 0
 213 310 182 390 124 390 c 0
 78 390 66 309 66 208 c 0
 66 107 90 25 124 25 c 0
120 431 m 0
 191 431 204 386 213 367 c 1
 213 563 l 1
 159 563 l 2
 141 563 132 570 132 584 c 0
 132 597 141 604 159 604 c 2
 254 604 l 1
 254 41 l 1
 310 41 l 2
 480 376 l 1
 357 376 l 1
 357 321 l 2
 357 303 350 294 337 294 c 0
 323 294 316 303 316 321 c 2
 316 417 l 1
 538 417 l 1
 538 381 l 1
 363 41 l 1
 512 41 l 1
 512 97 l 2
 512 115 519 124 533 124 c 0
 546 124 553 115 553 97 c 2
 553 0 l 1
 213 0 l 1
 213 49 l 1
 200 0 182 -16 121 -16 c 0
 56 -16 25 85 25 208 c 0
 25 330 44 431 120 431 c 0
EndSplineSet
Validated: 3073
EndChar

StartChar: uni01F6
Encoding: 502 502 437
Width: 600
Flags: MW
LayerCount: 2
Fore
SplineSet
580 116 m 2
 579 44 530 -16 449 -16 c 0
 400 -16 370 3 339 41 c 8
 320 65 320 115 320 115 c 1
 320 274 l 1
 130 274 l 1
 130 43 l 1
 184 43 l 2
 202 43 211 36 211 23 c 0
 211 9 202 2 184 2 c 2
 44 2 l 2
 26 2 16 9 16 23 c 0
 16 36 25 43 44 43 c 2
 89 43 l 1
 89 524 l 1
 64 524 l 2
 46 524 37 531 37 545 c 0
 37 558 46 565 64 565 c 2
 168 565 l 2
 186 565 195 558 195 545 c 0
 195 531 186 524 168 524 c 2
 130 524 l 1
 130 315 l 1
 320 315 l 1
 320 524 l 1
 282 524 l 2
 264 524 255 531 255 545 c 0
 255 558 264 565 282 565 c 2
 386 565 l 2
 404 565 413 558 413 545 c 0
 413 531 404 524 386 524 c 2
 361 524 l 1
 361 115 l 1
 361 65 401 25 452 25 c 0
 519 25 538 85 538 118 c 2
 538 376 l 1
 464 376 l 2
 445 376 436 383 436 397 c 0
 436 410 445 417 464 417 c 2
 579 417 l 1
 580 116 l 2
EndSplineSet
Validated: 3073
EndChar

StartChar: uni01F7
Encoding: 503 503 438
Width: 600
Flags: MW
LayerCount: 2
Fore
SplineSet
144 477 m 1
 206 521 l 2
 262 560 318 572 392 572 c 0
 476 572 538 538 538 462 c 0
 538 387 494 333 461 300 c 2
 144 -11 l 1
 144 -145 l 1
 242 -145 l 2
 260 -145 269 -152 269 -165 c 0
 269 -179 260 -186 242 -186 c 2
 49 -186 l 2
 31 -186 22 -179 22 -165 c 0
 22 -152 31 -145 49 -145 c 2
 103 -145 l 1
 103 522 l 1
 49 522 l 2
 31 522 22 529 22 543 c 0
 22 556 31 563 49 563 c 2
 144 563 l 1
 144 477 l 1
144 426 m 1
 144 46 l 1
 431 328 l 2
 462 359 498 410 498 462 c 0
 498 513 468 532 392 532 c 0
 322 532 278 521 230 487 c 2
 144 426 l 1
EndSplineSet
Validated: 3073
EndChar

StartChar: Aringacute
Encoding: 506 506 441
Width: 600
Flags: M
LayerCount: 2
Fore
SplineSet
314 760 m 2
 200 660 l 2
 191 653 187 651 181 651 c 0
 170 651 161 660 161 672 c 0
 161 679 163 682 173 691 c 2
 287 791 l 2
 296 798 300 800 306 800 c 0
 317 800 326 791 326 779 c 0
 326 772 323 768 314 760 c 2
428 148.8 m 1
 162 148.8 l 1
 108 31.2002 l 1
 187 31.2002 l 2
 205 31.2002 214 25.5996 214 15.2002 c 0
 214 4 205 -1.59961 187 -1.59961 c 2
 36 -1.59961 l 2
 18 -1.59961 9 4 9 15.2002 c 0
 9 25.5996 18 31.2002 36 31.2002 c 2
 67 31.2002 l 1
 246 416 l 1
 126 416 l 2
 108 416 99 421.6 99 432.8 c 0
 99 443.2 108 448.8 126 448.8 c 1
 330 448.8 l 1
 527 31.2002 l 1
 564 31.2002 l 2
 582 31.2002 591 25.5996 591 15.2002 c 0
 591 4 582 -1.59961 564 -1.59961 c 2
 408 -1.59961 l 2
 390 -1.59961 381 4 381 15.2002 c 0
 381 25.5996 390 31.2002 408 31.2002 c 2
 484 31.2002 l 1
 428 148.8 l 1
413 181.6 m 1
 301 416 l 1
 286 416 l 1
 178 181.6 l 1
 413 181.6 l 1
277 659 m 0
 329 659 370 619 370 567 c 0
 370 519 328 478 277 478 c 0
 226 478 184 519 184 569 c 0
 184 618 226 659 277 659 c 0
277 626 m 0
 244 626 217 600 217 569 c 0
 217 537 244 511 277 511 c 0
 310 511 337 537 337 568 c 0
 337 600 310 626 277 626 c 0
EndSplineSet
Validated: 3073
EndChar

StartChar: uni021C
Encoding: 540 540 475
Width: 600
Flags: MW
LayerCount: 2
Fore
SplineSet
272 215 m 0
 268 215 253 218 253 235 c 0
 253 242 257 249 262 252 c 2
 403 344 l 2
 428 360 442 389 442 420 c 0
 442 486 381 535 299 535 c 0
 221 535 160 490 156 430 c 0
 155 414 148 406 135 406 c 0
 122 406 115 415 115 433 c 2
 115 536 l 2
 115 554 122 563 135 563 c 0
 149 563 156 554 156 536 c 2
 156 517 l 1
 198 558 243 576 302 576 c 0
 407 576 486 509 486 421 c 0
 486 379 468 339 434 317 c 2
 407 299 l 1
 459 285 510 250 510 182 c 0
 510 71 422 15 299 0 c 2
 134 -20 l 1
 132 -20 l 2
 120 -20 112 -11 112 1 c 0
 112 11 119 19 130 20 c 2
 293 40 l 2
 413 55 470 97 470 182 c 0
 470 234 410 265 356 265 c 1
 286 220 l 2
 281 217 277 215 272 215 c 0
EndSplineSet
Validated: 3073
EndChar

StartChar: uni021D
Encoding: 541 541 476
Width: 600
Flags: MW
LayerCount: 2
Fore
SplineSet
216 129 m 4
 201 129 197 144 197 149 c 4
 197 157 203 164 210 168 c 6
 396 270 l 6
 416 281 428 299 428 315 c 4
 428 358 372 390 298 390 c 4
 222 390 170 361 165 316 c 4
 163 300 156 293 144 293 c 4
 131 293 124 302 124 320 c 6
 124 389 l 6
 124 408 131 417 144 417 c 4
 157 417 165 406 165 389 c 6
 165 385 l 5
 200 416 245 431 302 431 c 4
 400 431 473 383 473 318 c 4
 473 287 454 254 427 239 c 6
 417 233 l 5
 462 214 494 185 494 126 c 4
 494 44 432 13 362 -28 c 6
 214 -114 l 5
 211 -116 208 -116 205 -116 c 4
 200 -116 184 -113 184 -97 c 4
 184 -89 187 -82 194 -78 c 4
 342 8 l 6
 416 51 454 71 454 126 c 4
 454 176 431 184 369 207 c 5
 234 134 l 6
 229 131 222 129 216 129 c 4
EndSplineSet
Validated: 3073
EndChar

StartChar: uni0224
Encoding: 548 548 479
Width: 600
Flags: MW
LayerCount: 2
Fore
SplineSet
281 -145 m 0
 294 -145 314 -158 351 -158 c 0
 412 -158 456 -110 456 -42 c 2
 456 0 l 1
 103 0 l 1
 103 59 l 1
 431 519 l 1
 431 522 l 1
 162 522 l 1
 162 404 l 2
 162 385 155 376 142 376 c 0
 128 376 121 385 121 404 c 2
 121 563 l 1
 470 563 l 1
 470 505 l 1
 142 45 l 1
 142 41 l 1
 456 41 l 1
 456 182 l 1
 456 200 462 209 476 209 c 0
 490 209 497 200 497 182 c 0
 497 -48 l 1
 497 -132 432 -199 350 -199 c 0
 331 -199 263 -192 263 -165 c 0
 263 -154 271 -145 281 -145 c 0
EndSplineSet
Validated: 3073
EndChar

StartChar: uni0225
Encoding: 549 549 480
Width: 600
Flags: MW
LayerCount: 2
Fore
SplineSet
273 -145 m 0
 286 -145 306 -158 343 -158 c 0
 404 -158 448 -110 448 -42 c 2
 448 0 l 1
 115 0 l 1
 115 36 l 1
 416 376 l 1
 165 376 l 1
 165 321 l 2
 165 303 158 294 145 294 c 0
 131 294 124 303 124 321 c 2
 124 417 l 1
 474 417 l 1
 474 381 l 1
 171 41 l 1
 448 41 l 1
 448 97 l 2
 448 115 455 124 469 124 c 0
 483 124 489 114 489 97 c 0
 489 -48 l 1
 489 -132 424 -199 342 -199 c 0
 323 -199 255 -192 255 -165 c 0
 255 -154 263 -145 273 -145 c 0
EndSplineSet
Validated: 3073
EndChar

StartChar: uni0228
Encoding: 552 552 483
Width: 600
Flags: M
LayerCount: 2
Fore
SplineSet
218 -114 m 0
 230 -114 253 -135 284 -135 c 0
 310 -135 328 -123 328 -106 c 0
 328 -89 313 -81 282 -81 c 2
 262 -81 l 1
 262 0 l 1
 70 0 l 2
 52 0 43 7 43 21 c 0
 43 34 52 41 70 41 c 2
 124 41 l 1
 124 522 l 1
 70 522 l 2
 52 522 43 529 43 543 c 0
 43 556 52 563 70 563 c 2
 499 563 l 1
 499 424 l 2
 499 406 492 397 478 397 c 0
 465 397 458 406 458 424 c 2
 458 522 l 1
 165 522 l 1
 165 313 l 1
 310 313 l 1
 310 358 l 2
 310 376 317 385 331 385 c 0
 344 385 351 376 351 358 c 2
 351 227 l 2
 351 209 344 200 331 200 c 0
 317 200 310 209 310 227 c 2
 310 272 l 1
 165 272 l 1
 165 41 l 1
 479 41 l 1
 479 160 l 2
 479 178 486 187 500 187 c 0
 513 187 520 178 520 160 c 2
 520 0 l 1
 300 0 l 1
 300 -47 l 1
 341 -48 365 -70 365 -108 c 0
 365 -147 333 -173 286 -173 c 0
 258 -173 198 -158 198 -133 c 0
 198 -122 207 -114 218 -114 c 0
EndSplineSet
Validated: 3073
EndChar

StartChar: uni0229
Encoding: 553 553 484
Width: 600
Flags: M
LayerCount: 2
Fore
SplineSet
104 240 m 1
 478 240 l 1
 462 331 388 390 291 390 c 0
 194 390 122 332 104 240 c 1
272 -15 m 1
 151.5 -2 63 96.3594 63 217 c 0
 63 338 163 431 291 431 c 0
 424 431 520 340 520 199 c 1
 104 199 l 1
 118 94 198 25 306 25 c 0
 368 25 441 47 481 79 c 0
 488 84 492 86 497 86 c 0
 507 86 516 77 516 66 c 0
 516 31.6374 400.331 -13.3389 310 -15 c 1
 310 -62 l 1
 351 -63 375 -85 375 -123 c 0
 375 -162 343 -188 296 -188 c 0
 268 -188 208 -173 208 -148 c 0
 208 -137 217 -129 228 -129 c 0
 240 -129 263 -150 294 -150 c 0
 320 -150 338 -138 338 -121 c 0
 338 -104 323 -96 292 -96 c 2
 272 -96 l 1
 272 -15 l 1
EndSplineSet
Validated: 3073
EndChar

StartChar: uni0251
Encoding: 593 593 496
Width: 600
Flags: MW
LayerCount: 2
Fore
SplineSet
282 390 m 0
 183 390 104 309 104 208 c 0
 104 106 183 25 283 25 c 0
 381 25 461 106 461 206 c 0
 461 310 383 390 282 390 c 0
461 385 m 1
 461 403 468 412 481 412 c 0
 496 412 502 402 502 385 c 0
 502 41 l 1
 556 41 l 2
 574 41 583 34 583 21 c 0
 583 7 574 0 556 0 c 2
 461 0 l 1
 461 89 l 1
 414 19 354 -16 279 -16 c 0
 160 -16 63 85 63 208 c 0
 63 331 160 431 279 431 c 0
 354 431 412 398 461 327 c 1
 461 385 l 1
EndSplineSet
Validated: 3073
EndChar

StartChar: uni0253
Encoding: 595 595 498
Width: 600
Flags: MW
LayerCount: 2
Fore
SplineSet
144 208 m 0
 144 107 223 25 322 25 c 0
 419 25 500 107 500 205 c 0
 500 309 422 390 322 390 c 0
 223 390 144 309 144 208 c 0
322 566 m 0
 311 566 294 577 258 577 c 0
 190 577 144 530 144 462 c 0
 144 328 l 1
 194 399 250 431 324 431 c 0
 446 431 541 334 541 210 c 0
 541 85 444 -16 324 -16 c 0
 251 -16 191 18 144 88 c 1
 144 0 l 1
 49 0 l 2
 31 0 22 7 22 21 c 0
 22 34 31 41 49 41 c 2
 103 41 l 1
 103 462 l 1
 103 549 169 618 254 618 c 0
 272 618 341 613 341 586 c 0
 341 575 332 566 322 566 c 0
EndSplineSet
Validated: 3073
EndChar

StartChar: uni0254
Encoding: 596 596 499
Width: 600
Flags: MW
LayerCount: 2
Fore
SplineSet
103 107 m 0
 134 107 156 25 308 25 c 0
 417 25 494 100 494 205 c 0
 494 315 418 390 308 390 c 0
 224 390 153 348 149 295 c 0
 147 278 141 271 128 271 c 0
 115 271 108 280 108 298 c 2
 108 389 l 2
 108 408 115 417 128 417 c 0
 142 417 149 408 149 389 c 2
 149 376 l 1
 190 412 244 431 305 431 c 0
 439 431 535 336 535 204 c 0
 535 76 441 -16 310 -16 c 0
 168 -16 84 67 84 88 c 0
 84 98 93 107 103 107 c 0
EndSplineSet
Validated: 3073
EndChar

StartChar: uni0255
Encoding: 597 597 500
Width: 600
Flags: MW
LayerCount: 2
Fore
SplineSet
328 -16 m 1
 133 -16 84 114 84 204 c 0
 84 336 180 431 314 431 c 0
 375 431 429 412 470 376 c 1
 470 389 l 2
 470 408 477 417 491 417 c 0
 504 417 511 408 511 389 c 2
 511 298 l 2
 511 280 504 271 491 271 c 0
 478 271 472 278 470 295 c 0
 466 348 395 390 311 390 c 0
 201 390 125 315 125 205 c 0
 125 128 166 25 328 25 c 1
 328 93 l 2
 328 159 366 207 431 207 c 0
 500 207 538 163 538 104 c 0
 538 21 460 -6 369 -14 c 1
 369 -112 l 1
 369 -123 360 -132 348 -132 c 0
 337 -132 328 -123 328 -112 c 0
 328 -16 l 1
369 28 m 1
 452 37 497 60 497 104 c 0
 497 143 480 166 431 166 c 0
 393 166 369 142 369 93 c 2
 369 28 l 1
EndSplineSet
Validated: 3073
EndChar

StartChar: uni0256
Encoding: 598 598 501
Width: 600
Flags: MW
LayerCount: 2
Fore
SplineSet
282 390 m 0
 183 390 104 309 104 208 c 0
 104 106 183 25 283 25 c 0
 381 25 461 106 461 206 c 0
 461 310 383 390 282 390 c 0
695 -165 m 0
 695 -192 628 -199 608 -199 c 0
 526 -199 461 -132 461 -48 c 2
 461 89 l 1
 414 19 354 -16 279 -16 c 0
 160 -16 63 85 63 208 c 0
 63 331 160 431 279 431 c 0
 354 431 412 398 461 327 c 1
 461 563 l 1
 407 563 l 2
 389 563 380 570 380 584 c 0
 380 597 389 604 407 604 c 2
 502 604 l 1
 502 -42 l 2
 502 -110 546 -158 607 -158 c 0
 644 -158 664 -145 677 -145 c 0
 687 -145 695 -154 695 -165 c 0
EndSplineSet
Validated: 3073
EndChar

StartChar: uni0257
Encoding: 599 599 502
Width: 600
Flags: MW
LayerCount: 2
Fore
SplineSet
461 206 m 0
 461 310 383 390 282 390 c 0
 183 390 104 309 104 208 c 0
 104 106 183 25 283 25 c 0
 381 25 461 106 461 206 c 0
680 566 m 0
 669 566 652 577 616 577 c 0
 548 577 502 530 502 462 c 0
 502 41 l 1
 556 41 l 2
 574 41 583 34 583 21 c 0
 583 7 574 0 556 0 c 2
 461 0 l 1
 461 89 l 1
 414 19 354 -16 279 -16 c 0
 160 -16 63 85 63 208 c 0
 63 331 160 431 279 431 c 0
 354 431 412 398 461 327 c 1
 461 462 l 1
 461 549 527 618 612 618 c 0
 630 618 699 613 699 586 c 0
 699 575 690 566 680 566 c 0
EndSplineSet
Validated: 3073
EndChar

StartChar: uni0258
Encoding: 600 600 503
Width: 600
Flags: MW
LayerCount: 2
Fore
SplineSet
86 86 m 0
 105 86 150 25 277 25 c 0
 385 25 465 94 479 199 c 1
 63 199 l 1
 63 340 160 431 292 431 c 0
 420 431 520 338 520 217 c 0
 520 87 413 -16 278 -16 c 0
 187 -16 67 31 67 66 c 0
 67 77 76 86 86 86 c 0
479 240 m 1
 461 332 389 390 292 390 c 0
 195 390 121 331 105 240 c 1
 479 240 l 1
EndSplineSet
Validated: 3073
EndChar

StartChar: uni025A
Encoding: 602 602 505
Width: 600
Flags: MW
LayerCount: 2
Fore
SplineSet
693 244 m 0
 693 225 655 211 631 211 c 0
 595 211 562 232 547 259 c 2
 524 300 l 1
 502 288 l 1
 513 261 520 230 520 198 c 0
 520 77 420 -16 292 -16 c 0
 196 -16 116 35 80 118 c 1
 446 306 l 1
 410 359 350 390 277 390 c 0
 215 390 142 368 102 336 c 0
 95 331 91 329 86 329 c 0
 76 329 67 338 67 349 c 0
 67 384 187 431 278 431 c 0
 364 431 439 389 482 324 c 1
 540 354 l 1
 583 280 l 2
 595 259 611 254 627 254 c 0
 644 254 662 260 675 260 c 0
 690 260 693 250 693 244 c 0
465 270 m 1
 136 100 l 1
 170 53 225 25 292 25 c 0
 403 25 478 103 478 199 c 0
 478 222 474 246 465 270 c 1
EndSplineSet
Validated: 3073
EndChar

StartChar: uni025B
Encoding: 603 603 506
Width: 600
Flags: MW
LayerCount: 2
Fore
SplineSet
148 117 m 0
 148 64 214 25 302 25 c 0
 387 25 456 62 456 108 c 2
 456 115 l 2
 456 128 464 137 476 137 c 0
 490 137 497 128 497 110 c 2
 497 27 l 2
 497 9 490 0 476 0 c 0
 463 0 456 9 456 27 c 2
 456 38 l 1
 414 1 364 -16 299 -16 c 0
 186 -16 103 40 103 116 c 0
 103 185 165 215 188 224 c 1
 188 230 l 1
 173 239 l 2
 145 257 127 287 127 318 c 0
 127 383 200 431 298 431 c 0
 355 431 400 416 435 385 c 1
 435 389 l 2
 435 406 443 417 456 417 c 0
 469 417 476 408 476 389 c 2
 476 320 l 2
 476 302 469 293 456 293 c 0
 444 293 437 300 435 316 c 0
 430 361 378 390 302 390 c 0
 228 390 172 358 172 315 c 0
 172 286 202 247 320 247 c 2
 368 247 l 2
 386 247 395 240 395 227 c 0
 395 213 386 206 368 206 c 2
 300 206 l 2
 171 206 148 135 148 117 c 0
EndSplineSet
Validated: 3073
EndChar

StartChar: uni025C
Encoding: 604 604 507
Width: 600
Flags: MW
LayerCount: 2
Fore
SplineSet
452 117 m 0
 452 135 429 206 300 206 c 2
 232 206 l 2
 214 206 205 213 205 227 c 0
 205 240 214 247 232 247 c 2
 280 247 l 2
 398 247 428 286 428 315 c 0
 428 358 372 390 298 390 c 0
 222 390 170 361 165 316 c 0
 163 300 156 293 144 293 c 0
 131 293 124 302 124 320 c 2
 124 389 l 2
 124 408 131 417 144 417 c 0
 157 417 165 406 165 389 c 2
 165 385 l 1
 200 416 245 431 302 431 c 0
 400 431 473 383 473 318 c 0
 473 287 455 257 427 239 c 2
 412 230 l 1
 412 224 l 1
 435 215 497 185 497 116 c 0
 497 40 414 -16 301 -16 c 0
 236 -16 186 1 144 38 c 1
 144 27 l 2
 144 9 137 0 124 0 c 0
 110 0 103 9 103 27 c 2
 103 110 l 2
 103 128 110 137 124 137 c 0
 136 137 144 128 144 115 c 2
 144 108 l 2
 144 62 213 25 298 25 c 0
 386 25 452 64 452 117 c 0
EndSplineSet
Validated: 3073
EndChar

StartChar: uni025F
Encoding: 607 607 508
Width: 600
Flags: MW
LayerCount: 2
Fore
SplineSet
417 41 m 1
 417 376 l 1
 176 376 l 2
 158 376 149 383 149 397 c 0
 149 410 158 417 176 417 c 2
 458 417 l 1
 458 41 l 1
 517 41 l 1
 535 41 544 34 544 21 c 0
 544 7 535 0 517 0 c 0
 458 0 l 1
 458 -28 l 2
 458 -121 394 -186 303 -186 c 2
 174 -186 l 2
 156 -186 147 -179 147 -165 c 0
 147 -152 156 -145 174 -145 c 2
 302 -145 l 2
 368 -145 417 -96 417 -28 c 2
 417 0 l 1
 284 0 l 1
 266 0 257 7 257 21 c 0
 257 34 266 41 284 41 c 0
 417 41 l 1
EndSplineSet
Validated: 3073
EndChar

StartChar: uni0260
Encoding: 608 608 509
Width: 600
Flags: MW
LayerCount: 2
Fore
SplineSet
440 219 m 0
 440 316 367 390 272 390 c 0
 178 390 104 315 104 221 c 0
 104 126 179 51 272 51 c 0
 365 51 440 126 440 219 c 0
659 566 m 0
 648 566 631 577 595 577 c 0
 527 577 481 530 481 462 c 0
 481 -28 l 1
 481 -69 468 -100 438 -132 c 0
 403 -169 366 -186 316 -186 c 2
 202 -186 l 2
 184 -186 175 -179 175 -165 c 0
 175 -152 184 -145 202 -145 c 2
 318 -145 l 2
 386 -145 440 -90 440 -22 c 0
 440 107 l 1
 395 41 341 10 269 10 c 0
 156 10 63 105 63 221 c 0
 63 337 156 431 269 431 c 0
 342 431 395 401 440 334 c 1
 440 462 l 1
 440 549 506 618 591 618 c 0
 609 618 678 613 678 586 c 0
 678 575 669 566 659 566 c 0
EndSplineSet
Validated: 3073
EndChar

StartChar: uni0261
Encoding: 609 609 510
Width: 600
Flags: MW
LayerCount: 2
Fore
SplineSet
272 390 m 0
 178 390 104 315 104 221 c 0
 104 126 179 51 272 51 c 0
 365 51 440 126 440 219 c 0
 440 316 367 390 272 390 c 0
440 334 m 1
 440 417 l 2
 440 435 447 444 460 444 c 0
 475 444 481 434 481 417 c 0
 481 -28 l 1
 481 -69 468 -100 438 -132 c 0
 403 -169 366 -186 316 -186 c 2
 202 -186 l 2
 184 -186 175 -179 175 -165 c 0
 175 -152 184 -145 202 -145 c 2
 318 -145 l 2
 386 -145 440 -90 440 -22 c 2
 440 107 l 1
 395 41 341 10 269 10 c 0
 156 10 63 105 63 221 c 0
 63 337 156 431 269 431 c 0
 342 431 395 401 440 334 c 1
EndSplineSet
Validated: 3073
EndChar

StartChar: uni0262
Encoding: 610 610 511
Width: 600
Flags: MW
LayerCount: 2
Fore
SplineSet
299 386 m 0
 186 386 118 318 118 234 c 2
 118 180 l 2
 118 80 190 28 317 28 c 0
 363 28 389 33 438 52 c 1
 438 144 l 1
 321 144 l 2
 305 144 297 155 297 165 c 0
 297 175 305 185 321 185 c 2
 491 185 l 2
 508 185 516 175 516 165 c 0
 516 155 508 144 491 144 c 2
 479 144 l 1
 479 26 l 1
 427 1 369 -12 315 -12 c 0
 170 -12 77 63 77 180 c 2
 77 235 l 2
 77 335 165 426 297 426 c 0
 355 426 400 413 440 386 c 1
 440 396 l 2
 440 410 447 416 460 416 c 0
 472 416 481 411 481 396 c 2
 481 329 l 2
 481 316 471 309 460 309 c 0
 457.176 309 454.685 308.889 452.513 308.889 c 0
 445.453 308.889 441.765 310.059 441 320 c 0
 437 357 377 386 299 386 c 0
EndSplineSet
Validated: 3073
EndChar

StartChar: uni0263
Encoding: 611 611 512
Width: 600
Flags: MW
LayerCount: 2
Fore
SplineSet
299 37 m 17
 302 37 l 9
 464 376 l 1
 414 376 l 2
 396 376 387 383 387 397 c 0
 387 410 396 417 414 417 c 2
 525 417 l 2
 543 417 552 410 552 397 c 0
 552 383 543 376 525 376 c 2
 510 376 l 1
 323 -13 l 1
 343 -53 360 -90 360 -138 c 2
 360 -142 l 2
 360 -166 343 -200 302 -200 c 2
 300 -200 l 2
 260 -200 240 -167 240 -141 c 0
 240 -138 l 0
 240 -91 257 -53 277 -12 c 1
 95 376 l 1
 79 376 l 2
 61 376 52 383 52 397 c 0
 52 410 61 417 79 417 c 2
 190 417 l 2
 208 417 217 410 217 397 c 0
 217 383 208 376 190 376 c 2
 141 376 l 1
 299 37 l 17
300 -60 m 1
 288 -87 280 -111 280 -138 c 0
 282 -148 285 -159 302 -160 c 0
 315 -160 318 -150 320 -138 c 0
 320 -111 312 -87 300 -60 c 1
EndSplineSet
Validated: 3073
EndChar

StartChar: uni0264
Encoding: 612 612 513
Width: 600
Flags: MW
LayerCount: 2
Fore
SplineSet
510 401 m 1
 513 411 520 416 530 416 c 0
 542 416 550 408 550 389 c 2
 550 306 l 2
 550 288 543 279 530 279 c 0
 516 279 509 288 509 306 c 2
 509 332 l 1
 503 372 486 376 450 376 c 0
 402 376 361 358 328 329 c 1
 376 269 400 184 400 100 c 0
 400 43 367 -20 300 -20 c 0
 233 -20 200 42 200 100 c 0
 200 184 224 269 272 329 c 1
 240 358 199 376 150 376 c 0
 115 376 96 369 91 335 c 1
 91 306 l 2
 91 288 84 279 71 279 c 0
 57 279 50 288 50 306 c 2
 50 389 l 2
 50 407 57 416 71 416 c 0
 80 416 87 411 90 401 c 1
 108 411 129 416 150 416 c 0
 211 416 261 394 300 359 c 1
 339 394 389 416 450 416 c 0
 472 416 493 411 510 401 c 1
300 299 m 1
 261 247 240 175 240 100 c 0
 240 55 265 20 300 20 c 0
 336 20 360 55 360 100 c 0
 360 175 339 247 300 299 c 1
EndSplineSet
Validated: 3073
EndChar

StartChar: uni0266
Encoding: 614 614 515
Width: 600
Flags: MW
LayerCount: 2
Fore
SplineSet
437 288 m 2
 437 348 388 390 314 390 c 0
 258 390 230 373 176 309 c 2
 165 296 l 1
 165 41 l 1
 210 41 l 2
 229 41 238 34 238 21 c 0
 238 7 228 0 210 0 c 2
 78 0 l 2
 61 0 51 7 51 21 c 0
 51 34 60 41 78 41 c 2
 124 41 l 1
 124 462 l 1
 124 549 190 618 275 618 c 0
 293 618 362 613 362 586 c 0
 362 575 353 566 343 566 c 0
 332 566 315 577 279 577 c 0
 211 577 165 530 165 462 c 0
 165 347 l 1
 216 408 258 431 319 431 c 0
 412 431 478 372 478 291 c 2
 478 41 l 1
 523 41 l 2
 542 41 551 34 551 21 c 0
 551 7 542 0 523 0 c 2
 392 0 l 2
 374 0 365 7 365 21 c 0
 365 34 374 41 392 41 c 2
 437 41 l 1
 437 288 l 2
EndSplineSet
Validated: 3073
EndChar

StartChar: uni0267
Encoding: 615 615 516
Width: 600
Flags: MW
LayerCount: 2
Fore
SplineSet
343 566 m 0
 332 566 315 577 279 577 c 0
 211 577 165 530 165 462 c 0
 165 347 l 1
 216 408 258 431 319 431 c 0
 412 431 478 372 478 291 c 0
 478 -48 l 1
 478 -132 413 -199 331 -199 c 0
 312 -199 244 -192 244 -165 c 0
 244 -154 252 -145 262 -145 c 0
 275 -145 295 -158 332 -158 c 0
 393 -158 437 -110 437 -42 c 0
 437 288 l 2
 437 348 388 390 314 390 c 0
 258 390 230 373 176 309 c 2
 165 296 l 1
 165 41 l 1
 210 41 l 2
 229 41 238 34 238 21 c 0
 238 7 228 0 210 0 c 2
 78 0 l 2
 61 0 51 7 51 21 c 0
 51 34 60 41 78 41 c 2
 124 41 l 1
 124 462 l 1
 124 549 190 618 275 618 c 0
 293 618 362 613 362 586 c 0
 362 575 353 566 343 566 c 0
EndSplineSet
Validated: 3073
EndChar

StartChar: uni0268
Encoding: 616 616 517
Width: 600
Flags: MW
LayerCount: 2
Fore
SplineSet
318 624 m 1
 318 520 l 1
 259 520 l 1
 259 624 l 1
 318 624 l 1
279 200 m 1
 119 200 l 2
 101 200 92 207 92 221 c 0
 92 234 101 241 119 241 c 2
 279 241 l 1
 279 376 l 1
 161 376 l 2
 143 376 134 383 134 397 c 0
 134 410 143 417 161 417 c 2
 320 417 l 1
 320 241 l 1
 480 241 l 2
 499 241 508 234 508 221 c 0
 508 207 498 200 480 200 c 2
 320 200 l 1
 320 41 l 1
 480 41 l 2
 499 41 508 34 508 21 c 0
 508 7 498 0 480 0 c 2
 119 0 l 2
 101 0 92 7 92 21 c 0
 92 34 101 41 119 41 c 2
 279 41 l 1
 279 200 l 1
EndSplineSet
Validated: 3073
EndChar

StartChar: uni0269
Encoding: 617 617 518
Width: 600
Flags: HMW
LayerCount: 2
Fore
SplineSet
502 68 m 4
 502 53 452 -8 370 -8 c 4
 302 -8 261 46 261 120 c 14
 261 386 l 5
 200 386 l 6
 185 386 173 393 173 406 c 4
 173 422 183 426 200 426 c 6
 302 426 l 5
 302 120 l 22
 302 58 328 33 370 33 c 4
 445 33 462 88 482 88 c 4
 487 88 502 84 502 68 c 4
EndSplineSet
Validated: 3073
EndChar

StartChar: uni026A
Encoding: 618 618 519
Width: 600
Flags: MW
LayerCount: 2
Fore
SplineSet
321 376 m 1
 321 41 l 1
 440 41 l 2
 457 41 465 30 465 21 c 0
 465 10 456 0 440 0 c 2
 159 0 l 2
 143 0 135 10 135 21 c 0
 135 30 143 41 159 41 c 2
 280 41 l 1
 280 376 l 1
 159 376 l 2
 143 376 135 387 135 397 c 0
 135 407 143 417 159 417 c 2
 440 417 l 2
 457 417 465 407 465 397 c 0
 465 387 457 376 440 376 c 2
 321 376 l 1
EndSplineSet
Validated: 3073
EndChar

StartChar: uni026B
Encoding: 619 619 520
Width: 600
Flags: MW
LayerCount: 2
Fore
SplineSet
92 249 m 0
 92 261 144 348 212 348 c 0
 236 348 250 343 279 323 c 1
 279 563 l 1
 162 563 l 2
 144 563 135 570 135 584 c 0
 135 597 144 604 162 604 c 2
 320 604 l 1
 320 291 l 1
 358 260 371 253 386 253 c 0
 438 253 466 330 488 330 c 0
 499 330 508 321 508 311 c 0
 508 292 444 212 389 212 c 0
 367 212 350 218 320 239 c 1
 320 41 l 1
 480 41 l 2
 499 41 508 34 508 21 c 0
 508 7 498 0 480 0 c 2
 119 0 l 2
 101 0 92 7 92 21 c 0
 92 34 101 41 119 41 c 2
 279 41 l 1
 279 272 l 1
 254 293 231 307 212 307 c 0
 155 307 143 230 111 230 c 0
 101 230 92 239 92 249 c 0
EndSplineSet
Validated: 3073
EndChar

StartChar: uni026C
Encoding: 620 620 521
Width: 600
Flags: MW
LayerCount: 2
Fore
SplineSet
225 440 m 2
 234 440 l 2
 252 440 267 435 279 427 c 1
 279 563 l 1
 162 563 l 2
 144 563 135 570 135 584 c 0
 135 597 144 604 162 604 c 2
 320 604 l 1
 320 300 l 1
 479 300 l 2
 490 300 499 291 499 280 c 0
 499 269 490 260 479 260 c 2
 320 260 l 1
 320 41 l 1
 480 41 l 2
 499 41 508 34 508 21 c 0
 508 7 498 0 480 0 c 2
 119 0 l 2
 101 0 92 7 92 21 c 0
 92 34 101 41 119 41 c 2
 279 41 l 1
 279 260 l 1
 229 260 l 2
 174 260 139 305 139 348 c 2
 139 354 l 2
 139 404 179 440 225 440 c 2
279 330 m 2
 279 386 266 397 229 400 c 0
 198 398 181 384 179 350 c 0
 180 326 197 300 229 300 c 2
 279 300 l 1
 279 330 l 2
EndSplineSet
Validated: 3073
EndChar

StartChar: uni026D
Encoding: 621 621 522
Width: 600
Flags: MW
LayerCount: 2
Fore
SplineSet
513 -165 m 0
 513 -192 446 -199 426 -199 c 0
 344 -199 279 -132 279 -48 c 0
 279 563 l 1
 162 563 l 2
 144 563 135 570 135 584 c 0
 135 597 144 604 162 604 c 2
 320 604 l 1
 320 -42 l 1
 320 -110 364 -158 425 -158 c 0
 462 -158 482 -145 495 -145 c 0
 505 -145 513 -154 513 -165 c 0
EndSplineSet
Validated: 3073
EndChar

StartChar: uni0270
Encoding: 624 624 524
Width: 600
Flags: MW
LayerCount: 2
Fore
SplineSet
492 -186 m 1
 492 52 l 1
 458 4 429 -14 387 -14 c 0
 344 -14 312 9 290 57 c 1
 251 7 218 -14 177 -14 c 0
 119 -14 72 35 72 94 c 2
 72 376 l 1
 38 376 l 2
 20 376 11 383 11 396 c 0
 11 410 20 417 38 417 c 2
 112 417 l 1
 112 98 l 2
 112 60 143 27 178 27 c 0
 214 27 244 51 282 109 c 1
 282 376 l 1
 248 376 l 2
 230 376 221 383 221 396 c 0
 221 410 230 417 248 417 c 2
 322 417 l 1
 322 101 l 2
 322 62 353 27 387 27 c 0
 422 27 454 52 492 109 c 1
 492 376 l 1
 458 376 l 2
 440 376 431 383 431 396 c 0
 431 410 441 417 458 417 c 2
 567 417 l 2
 584 417 593 410 593 396 c 0
 593 383 584 376 566 376 c 2
 532 376 l 1
 532 -145 l 1
 566 -145 l 2
 584 -145 593 -152 593 -166 c 0
 593 -179 584 -186 566 -186 c 2
 492 -186 l 1
EndSplineSet
Validated: 3073
EndChar

StartChar: uni0271
Encoding: 625 625 525
Width: 600
Flags: MW
LayerCount: 2
Fore
SplineSet
317 -145 m 0
 330 -145 350 -158 387 -158 c 0
 448 -158 492 -110 492 -42 c 0
 492 319 l 1
 492 357 461 390 426 390 c 0
 390 390 360 366 322 308 c 1
 322 41 l 1
 356 41 l 2
 374 41 383 34 383 21 c 0
 383 7 374 0 356 0 c 2
 282 0 l 1
 282 316 l 2
 282 355 251 390 217 390 c 0
 182 390 150 365 112 308 c 1
 112 41 l 1
 146 41 l 2
 164 41 173 34 173 21 c 0
 173 7 163 0 146 0 c 2
 37 0 l 2
 20 0 11 7 11 21 c 0
 11 34 20 41 38 41 c 2
 72 41 l 1
 72 376 l 1
 38 376 l 2
 20 376 11 383 11 397 c 0
 11 410 20 417 38 417 c 2
 112 417 l 1
 112 365 l 1
 146 413 175 431 217 431 c 0
 260 431 292 408 314 360 c 1
 353 410 386 431 427 431 c 0
 485 431 532 382 532 323 c 0
 532 -48 l 1
 532 -132 468 -199 386 -199 c 0
 367 -199 299 -192 299 -165 c 0
 299 -154 307 -145 317 -145 c 0
EndSplineSet
Validated: 3073
EndChar

StartChar: uni0272
Encoding: 626 626 526
Width: 600
Flags: MW
LayerCount: 2
Fore
SplineSet
319 390 m 0
 230 390 189 322 167 294 c 1
 167 -48 l 1
 167 -132 102 -199 20 -199 c 0
 1 -199 -67 -192 -67 -165 c 0
 -67 -154 -59 -145 -49 -145 c 0
 -36 -145 -16 -158 21 -158 c 0
 82 -158 126 -110 126 -42 c 0
 126 376 l 1
 92 376 l 2
 74 376 65 383 65 397 c 0
 65 410 74 417 92 417 c 2
 167 417 l 1
 167 348 l 1
 225 412 261 431 323 431 c 0
 412 431 480 372 480 295 c 2
 480 41 l 1
 514 41 l 2
 532 41 541 34 541 21 c 0
 541 7 532 0 514 0 c 2
 405 0 l 2
 387 0 378 7 378 21 c 0
 378 34 387 41 405 41 c 2
 439 41 l 1
 439 288 l 2
 439 344 394 390 319 390 c 0
EndSplineSet
Validated: 3073
EndChar

StartChar: uni0273
Encoding: 627 627 527
Width: 600
Flags: MW
LayerCount: 2
Fore
SplineSet
319 390 m 0
 230 390 189 322 167 294 c 1
 167 41 l 1
 212 41 l 2
 230 41 239 34 239 21 c 0
 239 7 230 0 212 0 c 2
 81 0 l 2
 62 0 53 7 53 21 c 0
 53 34 62 41 81 41 c 2
 126 41 l 1
 126 376 l 1
 92 376 l 2
 74 376 65 383 65 397 c 0
 65 410 74 417 92 417 c 2
 167 417 l 1
 167 348 l 1
 225 412 261 431 323 431 c 0
 412 431 480 372 480 295 c 0
 480 -42 l 1
 480 -110 524 -158 585 -158 c 0
 622 -158 642 -145 655 -145 c 0
 665 -145 673 -154 673 -165 c 0
 673 -192 606 -199 586 -199 c 0
 504 -199 439 -132 439 -48 c 0
 439 288 l 2
 439 344 394 390 319 390 c 0
EndSplineSet
Validated: 3073
EndChar

StartChar: uni0274
Encoding: 628 628 528
Width: 600
Flags: MW
LayerCount: 2
Fore
SplineSet
479 0 m 1
 430 0 l 1
 164 363 l 1
 164 41 l 1
 228 41 l 2
 244 41 252 30 252 21 c 0
 252 10 243 0 228 0 c 2
 96 0 l 2
 80 0 72 10 72 21 c 0
 72 30 80 41 96 41 c 2
 123 41 l 1
 123 376 l 1
 78 376 l 2
 62 376 54 387 54 397 c 0
 54 407 62 417 78 417 c 2
 171 417 l 1
 438 54 l 1
 438 376 l 1
 375 376 l 2
 358 376 350 387 350 397 c 0
 350 407 358 417 375 417 c 2
 506 417 l 2
 522 417 530 407 530 397 c 0
 530 387 522 376 506 376 c 2
 479 376 l 1
 479 0 l 1
EndSplineSet
Validated: 3073
EndChar

StartChar: uni0275
Encoding: 629 629 529
Width: 600
Flags: MW
LayerCount: 2
Fore
SplineSet
300 431 m 0
 428 431 528 332 528 205 c 0
 528 83 426 -16 300 -16 c 0
 173 -16 72 83 72 208 c 0
 72 331 173 431 300 431 c 0
486 228 m 1
 475 321 397 390 300 390 c 0
 203 390 124 319 114 228 c 1
 486 228 l 1
486 188 m 1
 114 188 l 1
 124 96 203 25 300 25 c 0
 397 25 477 97 486 188 c 1
EndSplineSet
Validated: 3073
EndChar

StartChar: uni0276
Encoding: 630 630 530
Width: 600
Flags: MW
LayerCount: 2
Fore
SplineSet
13 216 m 0
 13 222 13 214 13 224 c 0
 13 337 92 417 258 417 c 2
 567 417 l 1
 567 263 l 2
 567 245 560 236 547 236 c 0
 533 236 526 245 526 263 c 2
 526 376 l 1
 341 376 l 1
 341 239 l 1
 416 239 l 1
 416 266 l 2
 416 284 423 293 437 293 c 0
 450 293 457 284 457 266 c 2
 457 170 l 2
 457 152 450 143 437 143 c 0
 423 143 416 152 416 170 c 2
 416 198 l 1
 341 198 l 1
 341 41 l 1
 546 41 l 1
 546 133 l 2
 546 153 552 160 566 160 c 0
 579 160 587 149 587 133 c 2
 587 0 l 1
 265 0 l 2
 112 0 13 87 13 216 c 0
300 376 m 1
 264 376 l 0
 100 373 56 317 53 218 c 0
 54 110 127 41 268 41 c 1
 300 41 l 1
 300 376 l 1
EndSplineSet
Validated: 3073
EndChar

StartChar: uni0278
Encoding: 632 632 531
Width: 600
Flags: MW
LayerCount: 2
Fore
SplineSet
112 286 m 2
 112 337 136 417 272 417 c 2
 306 417 l 1
 306 614 l 1
 351 614 l 1
 351 417 l 1
 404 417 l 2
 488 417 545 363 545 284 c 2
 545 131 l 2
 545 79 521 0 385 0 c 2
 351 0 l 1
 351 -200 l 1
 306 -200 l 1
 306 0 l 1
 253 0 l 2
 169 0 112 54 112 133 c 2
 112 286 l 2
157 133 m 2
 157 59 220 40 257 40 c 2
 306 40 l 1
 306 377 l 1
 252 377 l 2
 177 377 157 326 157 286 c 2
 157 133 l 2
500 284 m 2
 500 358 443 377 400 377 c 2
 351 377 l 1
 351 40 l 1
 405 40 l 2
 480 40 500 91 500 131 c 2
 500 284 l 2
EndSplineSet
Validated: 3073
EndChar

StartChar: uni027B
Encoding: 635 635 534
Width: 600
Flags: MW
LayerCount: 2
Fore
SplineSet
73 73 m 0
 90 73 112 31 155 31 c 0
 200 31 235 54 345 155 c 1
 345 376 l 1
 166 376 l 2
 149 376 139 384 139 397 c 0
 139 409 149 417 166 417 c 2
 482 417 l 2
 499 417 509 409 509 396 c 0
 509 384 499 376 482 376 c 2
 386 376 l 1
 386 -42 l 1
 386 -110 430 -158 491 -158 c 0
 528 -158 548 -145 561 -145 c 0
 571 -145 579 -154 579 -165 c 0
 579 -192 512 -199 492 -199 c 0
 410 -199 345 -132 345 -48 c 0
 345 102 l 1
 252 18 203 -10 152 -10 c 0
 92 -10 52 39 52 52 c 0
 52 64 61 73 73 73 c 0
EndSplineSet
Validated: 3073
EndChar

StartChar: uni027C
Encoding: 636 636 535
Width: 600
Flags: MW
LayerCount: 2
Fore
SplineSet
520 344 m 0
 503 344 481 386 438 386 c 0
 393 386 358 363 248 262 c 1
 248 -145 l 1
 427 -145 l 2
 444 -145 454 -153 454 -166 c 0
 454 -178 444 -186 427 -186 c 2
 111 -186 l 2
 94 -186 84 -178 84 -165 c 0
 84 -153 94 -145 111 -145 c 2
 207 -145 l 1
 207 376 l 1
 132 376 l 2
 115 376 105 384 105 397 c 0
 105 409 115 417 132 417 c 2
 248 417 l 1
 248 315 l 1
 341 399 390 427 441 427 c 0
 501 427 541 378 541 365 c 0
 541 353 532 344 520 344 c 0
EndSplineSet
Validated: 3073
EndChar

StartChar: uni027D
Encoding: 637 637 536
Width: 600
Flags: MW
LayerCount: 2
Fore
SplineSet
520 344 m 0
 503 344 481 386 438 386 c 0
 393 386 358 363 248 262 c 1
 248 -42 l 1
 248 -110 292 -158 353 -158 c 0
 390 -158 410 -145 423 -145 c 0
 433 -145 441 -154 441 -165 c 0
 441 -192 374 -199 354 -199 c 0
 272 -199 207 -132 207 -48 c 0
 207 376 l 1
 132 376 l 2
 115 376 105 384 105 397 c 0
 105 409 115 417 132 417 c 2
 248 417 l 1
 248 315 l 1
 341 399 390 427 441 427 c 0
 501 427 541 378 541 365 c 0
 541 353 532 344 520 344 c 0
EndSplineSet
Validated: 3073
EndChar

StartChar: uni027E
Encoding: 638 638 537
Width: 600
Flags: MW
LayerCount: 2
Fore
SplineSet
427 0 m 0
 111 0 l 1
 93 0 84 7 84 20 c 0
 84 34 93 41 111 41 c 0
 207 41 l 1
 207 259 l 2
 207 352 271 417 362 417 c 2
 491 417 l 2
 509 417 518 410 518 396 c 0
 518 383 509 376 491 376 c 2
 363 376 l 2
 297 376 248 327 248 259 c 2
 248 41 l 1
 427 41 l 1
 445 41 454 34 454 20 c 0
 454 7 445 0 427 0 c 0
EndSplineSet
Validated: 3073
EndChar

StartChar: uni027F
Encoding: 639 639 538
Width: 600
Flags: MW
LayerCount: 2
Fore
SplineSet
175 0 m 0
 157 0 148 7 148 20 c 0
 148 34 157 41 175 41 c 1
 354 41 l 1
 354 259 l 2
 354 327 305 376 239 376 c 2
 111 376 l 2
 93 376 84 383 84 396 c 0
 84 410 93 417 111 417 c 2
 240 417 l 2
 331 417 395 352 395 259 c 2
 395 41 l 1
 491 41 l 0
 509 41 518 34 518 20 c 0
 518 7 509 0 491 0 c 1
 175 0 l 0
EndSplineSet
Validated: 3073
EndChar

StartChar: uni0280
Encoding: 640 640 539
Width: 600
Flags: MW
LayerCount: 2
Fore
SplineSet
170 181 m 1
 170 41 l 1
 233 41 l 2
 249 41 257 30 257 21 c 0
 257 10 249 0 233 0 c 2
 84 0 l 2
 68 0 60 10 60 21 c 0
 60 30 68 41 84 41 c 2
 129 41 l 1
 129 374 l 1
 84 374 l 2
 68 374 60 386 60 396 c 0
 60 406 68 417 84 417 c 2
 302 417 l 2
 387 417 460 364 460 301 c 0
 460 253 415 213 338 194 c 1
 389 166 418 145 489 41 c 1
 516 41 l 2
 532 41 540 30 540 21 c 0
 540 10 532 0 516 0 c 2
 466 0 l 1
 389 120 350 155 283 181 c 1
 170 181 l 1
419 301 m 0
 419 359 329 374 302 374 c 2
 170 374 l 1
 170 221 l 1
 267 221 l 2
 347 221 419 261 419 301 c 0
EndSplineSet
Validated: 3073
EndChar

StartChar: uni0281
Encoding: 641 641 540
Width: 600
Flags: MW
LayerCount: 2
Fore
SplineSet
170 236 m 1
 283 236 l 1
 350 262 389 297 466 417 c 1
 516 417 l 2
 532 417 540 407 540 396 c 0
 540 387 532 376 516 376 c 2
 489 376 l 1
 418 272 389 251 338 223 c 1
 415 204 460 164 460 116 c 0
 460 53 387 0 302 0 c 2
 84 0 l 2
 68 0 60 11 60 21 c 0
 60 31 68 43 84 43 c 2
 129 43 l 1
 129 376 l 1
 84 376 l 2
 68 376 60 387 60 396 c 0
 60 407 68 417 84 417 c 2
 233 417 l 2
 249 417 257 407 257 396 c 0
 257 387 249 376 233 376 c 2
 170 376 l 1
 170 236 l 1
419 116 m 0
 419 156 347 196 267 196 c 2
 170 196 l 1
 170 43 l 1
 302 43 l 2
 329 43 419 58 419 116 c 0
EndSplineSet
Validated: 3073
EndChar

StartChar: uni0282
Encoding: 642 642 541
Width: 600
Flags: MW
LayerCount: 2
Fore
SplineSet
452 117 m 0
 452 253 124 157 124 318 c 0
 124 383 197 431 295 431 c 0
 352 431 397 416 432 385 c 1
 432 389 l 2
 432 406 440 417 453 417 c 0
 466 417 473 408 473 389 c 2
 473 320 l 2
 473 302 466 293 453 293 c 0
 441 293 434 300 432 316 c 0
 427 361 375 390 299 390 c 0
 225 390 169 358 169 315 c 0
 169 228 352 268 447 206 c 0
 478 185 497 151 497 116 c 0
 497 40 414 -16 301 -16 c 0
 236 -16 186 1 144 38 c 1
 144 -42 l 1
 144 -110 188 -158 249 -158 c 0
 286 -158 306 -145 319 -145 c 0
 329 -145 337 -154 337 -165 c 0
 337 -192 270 -199 250 -199 c 0
 168 -199 103 -132 103 -48 c 0
 103 110 l 1
 103 128 110 137 124 137 c 0
 136 137 144 128 144 115 c 2
 144 108 l 2
 144 62 213 25 298 25 c 0
 386 25 452 64 452 117 c 0
EndSplineSet
Validated: 3073
EndChar

StartChar: uni0283
Encoding: 643 643 542
Width: 600
Flags: MW
LayerCount: 2
Fore
SplineSet
499 566 m 0
 488 566 471 577 435 577 c 0
 367 577 321 530 321 462 c 2
 321 58 l 2
 321 -26 256 -93 174 -93 c 0
 155 -93 87 -86 87 -59 c 0
 87 -48 95 -39 105 -39 c 0
 118 -39 138 -52 175 -52 c 0
 236 -52 280 -4 280 64 c 2
 280 462 l 2
 280 549 346 618 431 618 c 0
 449 618 518 613 518 586 c 0
 518 575 509 566 499 566 c 0
EndSplineSet
Validated: 3073
EndChar

StartChar: uni0284
Encoding: 644 644 543
Width: 600
Flags: MW
LayerCount: 2
Fore
SplineSet
499 566 m 0
 488 566 471 577 435 577 c 0
 367 577 321 530 321 462 c 0
 321 41 l 1
 417 41 l 2
 435 41 444 34 444 21 c 0
 444 7 435 0 417 0 c 2
 310 0 l 1
 288 -55 236 -93 174 -93 c 0
 155 -93 87 -86 87 -59 c 0
 87 -48 95 -39 105 -39 c 0
 118 -39 138 -52 175 -52 c 0
 214 -52 246 -32 264 0 c 1
 184 0 l 2
 166 0 157 7 157 21 c 0
 157 34 166 41 184 41 c 2
 278 41 l 1
 279 48 280 56 280 64 c 2
 280 462 l 2
 280 549 346 618 431 618 c 0
 449 618 518 613 518 586 c 0
 518 575 509 566 499 566 c 0
EndSplineSet
Validated: 3073
EndChar

StartChar: uni0285
Encoding: 645 645 544
Width: 600
Flags: MW
LayerCount: 2
Fore
SplineSet
518 -59 m 4
 518 -86 451 -93 431 -93 c 4
 349 -93 284 -26 284 58 c 6
 284 462 l 6
 284 530 238 577 170 577 c 4
 134 577 118 566 106 566 c 4
 96 566 87 575 87 586 c 4
 87 613 156 618 174 618 c 4
 259 618 325 549 325 462 c 6
 325 64 l 6
 325 -4 369 -52 430 -52 c 4
 467 -52 487 -39 500 -39 c 4
 510 -39 518 -48 518 -59 c 4
EndSplineSet
Validated: 3073
EndChar

StartChar: uni0286
Encoding: 646 646 545
Width: 600
Flags: MW
LayerCount: 2
Fore
SplineSet
174 -60 m 0
 207 -60 234 -34 234 -2 c 0
 234 29 207 55 174 55 c 0
 141 55 114 29 114 -3 c 0
 114 -34 141 -60 174 -60 c 0
500 564 m 0
 487 564 467 577 430 577 c 0
 369 577 325 529 325 461 c 0
 325 63 l 1
 325 -24 259 -93 174 -93 c 0
 123 -93 81 -52 81 -3 c 0
 81 47 123 88 174 88 c 0
 225 88 267 47 267 -1 c 0
 267 -7 l 1
 278 14 284 38 284 63 c 0
 284 467 l 1
 284 551 349 618 431 618 c 0
 450 618 518 611 518 584 c 0
 518 573 510 564 500 564 c 0
EndSplineSet
Validated: 3073
EndChar

StartChar: uni0288
Encoding: 648 648 547
Width: 600
Flags: MW
LayerCount: 2
Fore
SplineSet
186 417 m 1
 406 417 l 2
 424 417 433 410 433 397 c 0
 433 383 424 376 406 376 c 2
 186 376 l 1
 186 -75 l 2
 186 -126 229 -159 298 -159 c 0
 354 -159 425 -142 464 -119 c 0
 472 -114 475 -113 480 -113 c 0
 490 -113 499 -123 499 -133 c 0
 499 -162 385 -200 300 -200 c 0
 206 -200 145 -152 145 -77 c 2
 145 376 l 1
 71 376 l 2
 52 376 43 383 43 397 c 0
 43 410 52 417 71 417 c 2
 145 417 l 1
 145 536 l 2
 145 554 152 563 166 563 c 0
 180 563 186 555 186 536 c 2
 186 417 l 1
EndSplineSet
Validated: 3073
EndChar

StartChar: uni0289
Encoding: 649 649 548
Width: 600
Flags: MW
LayerCount: 2
Fore
SplineSet
480 299 m 1
 514 299 l 2
 532 299 541 292 541 279 c 0
 541 265 532 258 514 258 c 2
 480 258 l 1
 480 41 l 1
 514 41 l 2
 532 41 541 34 541 21 c 0
 541 7 532 0 514 0 c 2
 439 0 l 1
 439 66 l 1
 384 12 323 -16 257 -16 c 0
 177 -16 124 36 124 115 c 2
 124 258 l 1
 70 258 l 2
 52 258 43 265 43 279 c 0
 43 292 52 299 70 299 c 2
 124 299 l 1
 124 376 l 1
 70 376 l 2
 52 376 43 383 43 397 c 0
 43 410 52 417 70 417 c 2
 165 417 l 1
 165 299 l 1
 439 299 l 1
 439 376 l 1
 365 376 l 2
 346 376 337 383 337 397 c 0
 337 410 346 417 365 417 c 2
 480 417 l 1
 480 299 l 1
439 258 m 1
 165 258 l 1
 165 115 l 2
 165 65 205 25 256 25 c 0
 323 25 384 55 439 115 c 1
 439 258 l 1
EndSplineSet
Validated: 3073
EndChar

StartChar: uni028F
Encoding: 655 655 552
Width: 600
Flags: MW
LayerCount: 2
Fore
SplineSet
322 154 m 1
 322 41 l 1
 412 41 l 2
 430 41 439 34 439 21 c 0
 439 7 430 0 412 0 c 2
 191 0 l 2
 173 0 164 7 164 21 c 0
 164 34 173 41 191 41 c 2
 281 41 l 1
 281 154 l 1
 132 376 l 1
 108 376 l 2
 90 376 81 383 81 397 c 0
 81 410 90 417 108 417 c 2
 219 417 l 2
 237 417 246 410 246 397 c 0
 246 383 237 376 219 376 c 2
 181 376 l 1
 303 195 l 1
 422 376 l 1
 382 376 l 2
 363 376 354 383 354 397 c 0
 354 410 363 417 382 417 c 2
 492 417 l 2
 509 417 519 409 519 397 c 0
 519 384 508 376 492 376 c 2
 468 376 l 1
 322 154 l 1
EndSplineSet
Validated: 3073
EndChar

StartChar: uni0290
Encoding: 656 656 553
Width: 600
Flags: MW
LayerCount: 2
Fore
SplineSet
682 -165 m 0
 682 -192 615 -199 595 -199 c 0
 513 -199 448 -132 448 -48 c 2
 448 0 l 1
 115 0 l 1
 115 36 l 1
 416 376 l 1
 165 376 l 1
 165 321 l 2
 165 303 158 294 145 294 c 0
 131 294 124 303 124 321 c 2
 124 417 l 1
 474 417 l 1
 474 381 l 1
 171 41 l 1
 448 41 l 1
 448 97 l 1
 448 115 455 124 469 124 c 0
 482 124 489 115 489 97 c 0
 489 -42 l 1
 489 -110 533 -158 594 -158 c 0
 631 -158 651 -145 664 -145 c 0
 674 -145 682 -154 682 -165 c 0
EndSplineSet
Validated: 3073
EndChar

StartChar: uni0291
Encoding: 657 657 554
Width: 600
Flags: MW
LayerCount: 2
Fore
SplineSet
374 41 m 1
 404 41 l 2
 460 41 471 54 474 91 c 0
 472 122 458 139 424 141 c 0
 400 140 374 123 374 91 c 2
 374 41 l 1
514 95 m 2
 514 86 l 2
 514 30 466 1 404 1 c 2
 374 1 l 1
 374 -79 l 2
 374 -90 365 -99 354 -99 c 0
 343 -99 334 -90 334 -79 c 2
 334 0 l 1
 115 0 l 1
 115 36 l 1
 416 376 l 1
 165 376 l 1
 165 321 l 2
 165 303 158 294 145 294 c 0
 131 294 124 303 124 321 c 2
 124 417 l 1
 474 417 l 1
 474 381 l 1
 171 41 l 1
 334 41 l 1
 334 91 l 2
 334 146 379 181 422 181 c 2
 428 181 l 2
 478 181 514 141 514 95 c 2
EndSplineSet
Validated: 3073
EndChar

StartChar: uni0292
Encoding: 658 658 555
Width: 600
Flags: MW
LayerCount: 2
Fore
SplineSet
168 169 m 0
 157 169 149 177 149 188 c 0
 149 193 152 199 156 203 c 2
 336 376 l 1
 136 376 l 2
 120 376 112 387 112 396 c 0
 112 407 120 417 136 417 c 2
 409 417 l 2
 428 417 437 410 437 397 c 0
 437 383 428 376 409 376 c 2
 393 376 l 1
 259 250 l 25
 272 250 l 2
 368 250 424 154 424 58 c 0
 424 -47 364 -158 260 -158 c 0
 186 -158 136 -111 102 -79 c 0
 98 -75 95 -69 95 -64 c 0
 95 -51 107 -44 114 -44 c 0
 143 -44 178 -118 260 -118 c 0
 328 -118 384 -33 384 58 c 0
 384 140 335 210 272 210 c 0
 193 210 208 169 168 169 c 0
EndSplineSet
Validated: 3073
EndChar

StartChar: uni0294
Encoding: 660 660 556
Width: 600
Flags: MW
LayerCount: 2
Fore
SplineSet
134 529 m 1
 177 543 220 577 309 577 c 0
 415 577 487 515 487 423 c 0
 487 349 447 306 322 247 c 1
 322 41 l 1
 367 41 l 2
 386 41 395 34 395 21 c 0
 395 7 385 0 367 0 c 2
 236 0 l 2
 218 0 209 7 209 21 c 0
 209 34 218 41 236 41 c 2
 281 41 l 1
 281 274 l 1
 397 323 446 366 446 423 c 0
 446 489 387 536 304 536 c 0
 259 536 227 528 175 502 c 1
 175 461 l 2
 175 443 168 434 155 434 c 0
 141 434 134 443 134 461 c 2
 134 529 l 1
EndSplineSet
Validated: 3073
EndChar

StartChar: uni0295
Encoding: 661 661 557
Width: 600
Flags: MW
LayerCount: 2
Fore
SplineSet
487 529 m 1
 487 461 l 2
 487 443 480 434 466 434 c 0
 453 434 446 443 446 461 c 2
 446 502 l 1
 394 528 362 536 317 536 c 0
 234 536 175 489 175 423 c 0
 175 366 224 323 340 274 c 1
 340 41 l 1
 385 41 l 2
 403 41 412 34 412 21 c 0
 412 7 403 0 385 0 c 2
 254 0 l 2
 236 0 226 7 226 21 c 0
 226 34 235 41 254 41 c 2
 299 41 l 1
 299 247 l 1
 174 306 134 349 134 423 c 0
 134 515 206 577 312 577 c 0
 401 577 444 543 487 529 c 1
EndSplineSet
Validated: 3073
EndChar

StartChar: uni0296
Encoding: 662 662 558
Width: 600
Flags: MW
LayerCount: 2
Fore
SplineSet
134 34 m 1
 134 102 l 2
 134 120 141 129 155 129 c 0
 168 129 175 120 175 102 c 2
 175 61 l 1
 227 35 259 27 304 27 c 0
 387 27 446 74 446 140 c 0
 446 197 397 240 281 289 c 1
 281 522 l 1
 236 522 l 2
 218 522 209 529 209 542 c 0
 209 556 218 563 236 563 c 2
 367 563 l 2
 385 563 395 556 395 542 c 0
 395 529 386 522 367 522 c 2
 322 522 l 1
 322 316 l 1
 447 257 487 214 487 140 c 0
 487 48 415 -14 309 -14 c 0
 220 -14 177 20 134 34 c 1
EndSplineSet
Validated: 3073
EndChar

